%TF.GenerationSoftware,KiCad,Pcbnew,8.0.7*%
%TF.CreationDate,2025-10-12T21:35:03-07:00*%
%TF.ProjectId,Screen accessory board v1.0,53637265-656e-4206-9163-636573736f72,rev?*%
%TF.SameCoordinates,Original*%
%TF.FileFunction,Legend,Bot*%
%TF.FilePolarity,Positive*%
%FSLAX46Y46*%
G04 Gerber Fmt 4.6, Leading zero omitted, Abs format (unit mm)*
G04 Created by KiCad (PCBNEW 8.0.7) date 2025-10-12 21:35:03*
%MOMM*%
%LPD*%
G01*
G04 APERTURE LIST*
%ADD10C,0.150000*%
%ADD11C,0.127000*%
%ADD12C,0.200000*%
%ADD13C,0.120000*%
G04 APERTURE END LIST*
D10*
X179133332Y-74829200D02*
X178990475Y-74876819D01*
X178990475Y-74876819D02*
X178752380Y-74876819D01*
X178752380Y-74876819D02*
X178657142Y-74829200D01*
X178657142Y-74829200D02*
X178609523Y-74781580D01*
X178609523Y-74781580D02*
X178561904Y-74686342D01*
X178561904Y-74686342D02*
X178561904Y-74591104D01*
X178561904Y-74591104D02*
X178609523Y-74495866D01*
X178609523Y-74495866D02*
X178657142Y-74448247D01*
X178657142Y-74448247D02*
X178752380Y-74400628D01*
X178752380Y-74400628D02*
X178942856Y-74353009D01*
X178942856Y-74353009D02*
X179038094Y-74305390D01*
X179038094Y-74305390D02*
X179085713Y-74257771D01*
X179085713Y-74257771D02*
X179133332Y-74162533D01*
X179133332Y-74162533D02*
X179133332Y-74067295D01*
X179133332Y-74067295D02*
X179085713Y-73972057D01*
X179085713Y-73972057D02*
X179038094Y-73924438D01*
X179038094Y-73924438D02*
X178942856Y-73876819D01*
X178942856Y-73876819D02*
X178704761Y-73876819D01*
X178704761Y-73876819D02*
X178561904Y-73924438D01*
X178228570Y-73876819D02*
X177990475Y-74876819D01*
X177990475Y-74876819D02*
X177799999Y-74162533D01*
X177799999Y-74162533D02*
X177609523Y-74876819D01*
X177609523Y-74876819D02*
X177371428Y-73876819D01*
X176466666Y-74876819D02*
X177038094Y-74876819D01*
X176752380Y-74876819D02*
X176752380Y-73876819D01*
X176752380Y-73876819D02*
X176847618Y-74019676D01*
X176847618Y-74019676D02*
X176942856Y-74114914D01*
X176942856Y-74114914D02*
X177038094Y-74162533D01*
X189353333Y-68934819D02*
X189353333Y-69649104D01*
X189353333Y-69649104D02*
X189400952Y-69791961D01*
X189400952Y-69791961D02*
X189496190Y-69887200D01*
X189496190Y-69887200D02*
X189639047Y-69934819D01*
X189639047Y-69934819D02*
X189734285Y-69934819D01*
X188353333Y-69934819D02*
X188924761Y-69934819D01*
X188639047Y-69934819D02*
X188639047Y-68934819D01*
X188639047Y-68934819D02*
X188734285Y-69077676D01*
X188734285Y-69077676D02*
X188829523Y-69172914D01*
X188829523Y-69172914D02*
X188924761Y-69220533D01*
D11*
%TO.C,SW1*%
X174805000Y-77300000D02*
X174805000Y-79600000D01*
X175500000Y-75455000D02*
X180100000Y-75455000D01*
X180100000Y-81445000D02*
X175600000Y-81445000D01*
X180800000Y-77300000D02*
X180800000Y-79600000D01*
D12*
X173455000Y-80700000D02*
G75*
G02*
X173255000Y-80700000I-100000J0D01*
G01*
X173255000Y-80700000D02*
G75*
G02*
X173455000Y-80700000I100000J0D01*
G01*
D11*
X179555000Y-78450000D02*
G75*
G02*
X176045000Y-78450000I-1755000J0D01*
G01*
X176045000Y-78450000D02*
G75*
G02*
X179555000Y-78450000I1755000J0D01*
G01*
D13*
%TO.C,J1*%
X167580000Y-68150000D02*
X167580000Y-70810000D01*
X167580000Y-68150000D02*
X185420000Y-68150000D01*
X167580000Y-70810000D02*
X185420000Y-70810000D01*
X185420000Y-68150000D02*
X185420000Y-70810000D01*
X188020000Y-69480000D02*
X188020000Y-70810000D01*
X188020000Y-70810000D02*
X186690000Y-70810000D01*
%TD*%
M02*
