M48
; DRILL file {KiCad 8.0.7} date 2025-10-12T21:35:05-0700
; FORMAT={-:-/ absolute / inch / decimal}
; #@! TF.CreationDate,2025-10-12T21:35:05-07:00
; #@! TF.GenerationSoftware,Kicad,Pcbnew,8.0.7
; #@! TF.FileFunction,Plated,1,2,PTH
FMAT,2
INCH
; #@! TA.AperFunction,Plated,PTH,ComponentDrill
T1C0.0315
; #@! TA.AperFunction,Plated,PTH,ComponentDrill
T2C0.0350
; #@! TA.AperFunction,Plated,PTH,ComponentDrill
T3C0.0390
; #@! TA.AperFunction,Plated,PTH,ComponentDrill
T4C0.0394
; #@! TA.AperFunction,Plated,PTH,ComponentDrill
T5C0.0472
; #@! TA.AperFunction,Plated,PTH,ComponentDrill
T6C0.0866
%
G90
G05
T1
X6.65Y-2.35
X6.65Y-2.55
X6.9331Y-1.575
X7.05Y-2.35
X7.05Y-2.55
X7.0669Y-1.575
X7.1531Y-2.55
X7.35Y-2.55
T2
X7.5781Y-2.075
X7.6766Y-2.075
X7.775Y-2.075
T3
X6.872Y-3.0
X6.872Y-3.1772
X7.128Y-3.0
X7.128Y-3.1772
T4
X6.65Y-2.7354
X6.75Y-2.7354
X6.85Y-2.7354
X6.95Y-2.7354
X7.05Y-2.7354
X7.15Y-2.7354
X7.25Y-2.7354
X7.35Y-2.7354
T5
X6.7701Y-2.0115
X6.7956Y-2.1065
X7.3Y-2.35
X7.8Y-2.35
T6
X6.4587Y-2.5787
X7.0Y-1.1929
X7.5413Y-2.5787
M30
