%TF.GenerationSoftware,KiCad,Pcbnew,8.0.7*%
%TF.CreationDate,2025-10-12T21:35:03-07:00*%
%TF.ProjectId,Screen accessory board v1.0,53637265-656e-4206-9163-636573736f72,rev?*%
%TF.SameCoordinates,Original*%
%TF.FileFunction,Legend,Top*%
%TF.FilePolarity,Positive*%
%FSLAX46Y46*%
G04 Gerber Fmt 4.6, Leading zero omitted, Abs format (unit mm)*
G04 Created by KiCad (PCBNEW 8.0.7) date 2025-10-12 21:35:03*
%MOMM*%
%LPD*%
G01*
G04 APERTURE LIST*
%ADD10C,0.150000*%
%ADD11C,0.120000*%
%ADD12C,0.152400*%
G04 APERTURE END LIST*
D10*
X159023207Y-38940931D02*
X158689874Y-38464740D01*
X158451779Y-38940931D02*
X158451779Y-37940931D01*
X158451779Y-37940931D02*
X158832731Y-37940931D01*
X158832731Y-37940931D02*
X158927969Y-37988550D01*
X158927969Y-37988550D02*
X158975588Y-38036169D01*
X158975588Y-38036169D02*
X159023207Y-38131407D01*
X159023207Y-38131407D02*
X159023207Y-38274264D01*
X159023207Y-38274264D02*
X158975588Y-38369502D01*
X158975588Y-38369502D02*
X158927969Y-38417121D01*
X158927969Y-38417121D02*
X158832731Y-38464740D01*
X158832731Y-38464740D02*
X158451779Y-38464740D01*
X159927969Y-37940931D02*
X159451779Y-37940931D01*
X159451779Y-37940931D02*
X159404160Y-38417121D01*
X159404160Y-38417121D02*
X159451779Y-38369502D01*
X159451779Y-38369502D02*
X159547017Y-38321883D01*
X159547017Y-38321883D02*
X159785112Y-38321883D01*
X159785112Y-38321883D02*
X159880350Y-38369502D01*
X159880350Y-38369502D02*
X159927969Y-38417121D01*
X159927969Y-38417121D02*
X159975588Y-38512359D01*
X159975588Y-38512359D02*
X159975588Y-38750454D01*
X159975588Y-38750454D02*
X159927969Y-38845692D01*
X159927969Y-38845692D02*
X159880350Y-38893312D01*
X159880350Y-38893312D02*
X159785112Y-38940931D01*
X159785112Y-38940931D02*
X159547017Y-38940931D01*
X159547017Y-38940931D02*
X159451779Y-38893312D01*
X159451779Y-38893312D02*
X159404160Y-38845692D01*
X160832731Y-37940931D02*
X160642255Y-37940931D01*
X160642255Y-37940931D02*
X160547017Y-37988550D01*
X160547017Y-37988550D02*
X160499398Y-38036169D01*
X160499398Y-38036169D02*
X160404160Y-38179026D01*
X160404160Y-38179026D02*
X160356541Y-38369502D01*
X160356541Y-38369502D02*
X160356541Y-38750454D01*
X160356541Y-38750454D02*
X160404160Y-38845692D01*
X160404160Y-38845692D02*
X160451779Y-38893312D01*
X160451779Y-38893312D02*
X160547017Y-38940931D01*
X160547017Y-38940931D02*
X160737493Y-38940931D01*
X160737493Y-38940931D02*
X160832731Y-38893312D01*
X160832731Y-38893312D02*
X160880350Y-38845692D01*
X160880350Y-38845692D02*
X160927969Y-38750454D01*
X160927969Y-38750454D02*
X160927969Y-38512359D01*
X160927969Y-38512359D02*
X160880350Y-38417121D01*
X160880350Y-38417121D02*
X160832731Y-38369502D01*
X160832731Y-38369502D02*
X160737493Y-38321883D01*
X160737493Y-38321883D02*
X160547017Y-38321883D01*
X160547017Y-38321883D02*
X160451779Y-38369502D01*
X160451779Y-38369502D02*
X160404160Y-38417121D01*
X160404160Y-38417121D02*
X160356541Y-38512359D01*
X162118446Y-38940931D02*
X162118446Y-37940931D01*
X162118446Y-37940931D02*
X162451779Y-38655216D01*
X162451779Y-38655216D02*
X162785112Y-37940931D01*
X162785112Y-37940931D02*
X162785112Y-38940931D01*
X163594636Y-38417121D02*
X163261303Y-38417121D01*
X163261303Y-38940931D02*
X163261303Y-37940931D01*
X163261303Y-37940931D02*
X163737493Y-37940931D01*
X164118446Y-38940931D02*
X164118446Y-37940931D01*
X164118446Y-37940931D02*
X164356541Y-37940931D01*
X164356541Y-37940931D02*
X164499398Y-37988550D01*
X164499398Y-37988550D02*
X164594636Y-38083788D01*
X164594636Y-38083788D02*
X164642255Y-38179026D01*
X164642255Y-38179026D02*
X164689874Y-38369502D01*
X164689874Y-38369502D02*
X164689874Y-38512359D01*
X164689874Y-38512359D02*
X164642255Y-38702835D01*
X164642255Y-38702835D02*
X164594636Y-38798073D01*
X164594636Y-38798073D02*
X164499398Y-38893312D01*
X164499398Y-38893312D02*
X164356541Y-38940931D01*
X164356541Y-38940931D02*
X164118446Y-38940931D01*
X165832732Y-38893312D02*
X165975589Y-38940931D01*
X165975589Y-38940931D02*
X166213684Y-38940931D01*
X166213684Y-38940931D02*
X166308922Y-38893312D01*
X166308922Y-38893312D02*
X166356541Y-38845692D01*
X166356541Y-38845692D02*
X166404160Y-38750454D01*
X166404160Y-38750454D02*
X166404160Y-38655216D01*
X166404160Y-38655216D02*
X166356541Y-38559978D01*
X166356541Y-38559978D02*
X166308922Y-38512359D01*
X166308922Y-38512359D02*
X166213684Y-38464740D01*
X166213684Y-38464740D02*
X166023208Y-38417121D01*
X166023208Y-38417121D02*
X165927970Y-38369502D01*
X165927970Y-38369502D02*
X165880351Y-38321883D01*
X165880351Y-38321883D02*
X165832732Y-38226645D01*
X165832732Y-38226645D02*
X165832732Y-38131407D01*
X165832732Y-38131407D02*
X165880351Y-38036169D01*
X165880351Y-38036169D02*
X165927970Y-37988550D01*
X165927970Y-37988550D02*
X166023208Y-37940931D01*
X166023208Y-37940931D02*
X166261303Y-37940931D01*
X166261303Y-37940931D02*
X166404160Y-37988550D01*
X167261303Y-38893312D02*
X167166065Y-38940931D01*
X167166065Y-38940931D02*
X166975589Y-38940931D01*
X166975589Y-38940931D02*
X166880351Y-38893312D01*
X166880351Y-38893312D02*
X166832732Y-38845692D01*
X166832732Y-38845692D02*
X166785113Y-38750454D01*
X166785113Y-38750454D02*
X166785113Y-38464740D01*
X166785113Y-38464740D02*
X166832732Y-38369502D01*
X166832732Y-38369502D02*
X166880351Y-38321883D01*
X166880351Y-38321883D02*
X166975589Y-38274264D01*
X166975589Y-38274264D02*
X167166065Y-38274264D01*
X167166065Y-38274264D02*
X167261303Y-38321883D01*
X167689875Y-38940931D02*
X167689875Y-38274264D01*
X167689875Y-38464740D02*
X167737494Y-38369502D01*
X167737494Y-38369502D02*
X167785113Y-38321883D01*
X167785113Y-38321883D02*
X167880351Y-38274264D01*
X167880351Y-38274264D02*
X167975589Y-38274264D01*
X168689875Y-38893312D02*
X168594637Y-38940931D01*
X168594637Y-38940931D02*
X168404161Y-38940931D01*
X168404161Y-38940931D02*
X168308923Y-38893312D01*
X168308923Y-38893312D02*
X168261304Y-38798073D01*
X168261304Y-38798073D02*
X168261304Y-38417121D01*
X168261304Y-38417121D02*
X168308923Y-38321883D01*
X168308923Y-38321883D02*
X168404161Y-38274264D01*
X168404161Y-38274264D02*
X168594637Y-38274264D01*
X168594637Y-38274264D02*
X168689875Y-38321883D01*
X168689875Y-38321883D02*
X168737494Y-38417121D01*
X168737494Y-38417121D02*
X168737494Y-38512359D01*
X168737494Y-38512359D02*
X168261304Y-38607597D01*
X169547018Y-38893312D02*
X169451780Y-38940931D01*
X169451780Y-38940931D02*
X169261304Y-38940931D01*
X169261304Y-38940931D02*
X169166066Y-38893312D01*
X169166066Y-38893312D02*
X169118447Y-38798073D01*
X169118447Y-38798073D02*
X169118447Y-38417121D01*
X169118447Y-38417121D02*
X169166066Y-38321883D01*
X169166066Y-38321883D02*
X169261304Y-38274264D01*
X169261304Y-38274264D02*
X169451780Y-38274264D01*
X169451780Y-38274264D02*
X169547018Y-38321883D01*
X169547018Y-38321883D02*
X169594637Y-38417121D01*
X169594637Y-38417121D02*
X169594637Y-38512359D01*
X169594637Y-38512359D02*
X169118447Y-38607597D01*
X170023209Y-38274264D02*
X170023209Y-38940931D01*
X170023209Y-38369502D02*
X170070828Y-38321883D01*
X170070828Y-38321883D02*
X170166066Y-38274264D01*
X170166066Y-38274264D02*
X170308923Y-38274264D01*
X170308923Y-38274264D02*
X170404161Y-38321883D01*
X170404161Y-38321883D02*
X170451780Y-38417121D01*
X170451780Y-38417121D02*
X170451780Y-38940931D01*
X158404160Y-40265160D02*
X158880350Y-40265160D01*
X158308922Y-40550875D02*
X158642255Y-39550875D01*
X158642255Y-39550875D02*
X158975588Y-40550875D01*
X159737493Y-40503256D02*
X159642255Y-40550875D01*
X159642255Y-40550875D02*
X159451779Y-40550875D01*
X159451779Y-40550875D02*
X159356541Y-40503256D01*
X159356541Y-40503256D02*
X159308922Y-40455636D01*
X159308922Y-40455636D02*
X159261303Y-40360398D01*
X159261303Y-40360398D02*
X159261303Y-40074684D01*
X159261303Y-40074684D02*
X159308922Y-39979446D01*
X159308922Y-39979446D02*
X159356541Y-39931827D01*
X159356541Y-39931827D02*
X159451779Y-39884208D01*
X159451779Y-39884208D02*
X159642255Y-39884208D01*
X159642255Y-39884208D02*
X159737493Y-39931827D01*
X160594636Y-40503256D02*
X160499398Y-40550875D01*
X160499398Y-40550875D02*
X160308922Y-40550875D01*
X160308922Y-40550875D02*
X160213684Y-40503256D01*
X160213684Y-40503256D02*
X160166065Y-40455636D01*
X160166065Y-40455636D02*
X160118446Y-40360398D01*
X160118446Y-40360398D02*
X160118446Y-40074684D01*
X160118446Y-40074684D02*
X160166065Y-39979446D01*
X160166065Y-39979446D02*
X160213684Y-39931827D01*
X160213684Y-39931827D02*
X160308922Y-39884208D01*
X160308922Y-39884208D02*
X160499398Y-39884208D01*
X160499398Y-39884208D02*
X160594636Y-39931827D01*
X161404160Y-40503256D02*
X161308922Y-40550875D01*
X161308922Y-40550875D02*
X161118446Y-40550875D01*
X161118446Y-40550875D02*
X161023208Y-40503256D01*
X161023208Y-40503256D02*
X160975589Y-40408017D01*
X160975589Y-40408017D02*
X160975589Y-40027065D01*
X160975589Y-40027065D02*
X161023208Y-39931827D01*
X161023208Y-39931827D02*
X161118446Y-39884208D01*
X161118446Y-39884208D02*
X161308922Y-39884208D01*
X161308922Y-39884208D02*
X161404160Y-39931827D01*
X161404160Y-39931827D02*
X161451779Y-40027065D01*
X161451779Y-40027065D02*
X161451779Y-40122303D01*
X161451779Y-40122303D02*
X160975589Y-40217541D01*
X161832732Y-40503256D02*
X161927970Y-40550875D01*
X161927970Y-40550875D02*
X162118446Y-40550875D01*
X162118446Y-40550875D02*
X162213684Y-40503256D01*
X162213684Y-40503256D02*
X162261303Y-40408017D01*
X162261303Y-40408017D02*
X162261303Y-40360398D01*
X162261303Y-40360398D02*
X162213684Y-40265160D01*
X162213684Y-40265160D02*
X162118446Y-40217541D01*
X162118446Y-40217541D02*
X161975589Y-40217541D01*
X161975589Y-40217541D02*
X161880351Y-40169922D01*
X161880351Y-40169922D02*
X161832732Y-40074684D01*
X161832732Y-40074684D02*
X161832732Y-40027065D01*
X161832732Y-40027065D02*
X161880351Y-39931827D01*
X161880351Y-39931827D02*
X161975589Y-39884208D01*
X161975589Y-39884208D02*
X162118446Y-39884208D01*
X162118446Y-39884208D02*
X162213684Y-39931827D01*
X162642256Y-40503256D02*
X162737494Y-40550875D01*
X162737494Y-40550875D02*
X162927970Y-40550875D01*
X162927970Y-40550875D02*
X163023208Y-40503256D01*
X163023208Y-40503256D02*
X163070827Y-40408017D01*
X163070827Y-40408017D02*
X163070827Y-40360398D01*
X163070827Y-40360398D02*
X163023208Y-40265160D01*
X163023208Y-40265160D02*
X162927970Y-40217541D01*
X162927970Y-40217541D02*
X162785113Y-40217541D01*
X162785113Y-40217541D02*
X162689875Y-40169922D01*
X162689875Y-40169922D02*
X162642256Y-40074684D01*
X162642256Y-40074684D02*
X162642256Y-40027065D01*
X162642256Y-40027065D02*
X162689875Y-39931827D01*
X162689875Y-39931827D02*
X162785113Y-39884208D01*
X162785113Y-39884208D02*
X162927970Y-39884208D01*
X162927970Y-39884208D02*
X163023208Y-39931827D01*
X163642256Y-40550875D02*
X163547018Y-40503256D01*
X163547018Y-40503256D02*
X163499399Y-40455636D01*
X163499399Y-40455636D02*
X163451780Y-40360398D01*
X163451780Y-40360398D02*
X163451780Y-40074684D01*
X163451780Y-40074684D02*
X163499399Y-39979446D01*
X163499399Y-39979446D02*
X163547018Y-39931827D01*
X163547018Y-39931827D02*
X163642256Y-39884208D01*
X163642256Y-39884208D02*
X163785113Y-39884208D01*
X163785113Y-39884208D02*
X163880351Y-39931827D01*
X163880351Y-39931827D02*
X163927970Y-39979446D01*
X163927970Y-39979446D02*
X163975589Y-40074684D01*
X163975589Y-40074684D02*
X163975589Y-40360398D01*
X163975589Y-40360398D02*
X163927970Y-40455636D01*
X163927970Y-40455636D02*
X163880351Y-40503256D01*
X163880351Y-40503256D02*
X163785113Y-40550875D01*
X163785113Y-40550875D02*
X163642256Y-40550875D01*
X164404161Y-40550875D02*
X164404161Y-39884208D01*
X164404161Y-40074684D02*
X164451780Y-39979446D01*
X164451780Y-39979446D02*
X164499399Y-39931827D01*
X164499399Y-39931827D02*
X164594637Y-39884208D01*
X164594637Y-39884208D02*
X164689875Y-39884208D01*
X164927971Y-39884208D02*
X165166066Y-40550875D01*
X165404161Y-39884208D02*
X165166066Y-40550875D01*
X165166066Y-40550875D02*
X165070828Y-40788970D01*
X165070828Y-40788970D02*
X165023209Y-40836589D01*
X165023209Y-40836589D02*
X164927971Y-40884208D01*
X166880352Y-40027065D02*
X167023209Y-40074684D01*
X167023209Y-40074684D02*
X167070828Y-40122303D01*
X167070828Y-40122303D02*
X167118447Y-40217541D01*
X167118447Y-40217541D02*
X167118447Y-40360398D01*
X167118447Y-40360398D02*
X167070828Y-40455636D01*
X167070828Y-40455636D02*
X167023209Y-40503256D01*
X167023209Y-40503256D02*
X166927971Y-40550875D01*
X166927971Y-40550875D02*
X166547019Y-40550875D01*
X166547019Y-40550875D02*
X166547019Y-39550875D01*
X166547019Y-39550875D02*
X166880352Y-39550875D01*
X166880352Y-39550875D02*
X166975590Y-39598494D01*
X166975590Y-39598494D02*
X167023209Y-39646113D01*
X167023209Y-39646113D02*
X167070828Y-39741351D01*
X167070828Y-39741351D02*
X167070828Y-39836589D01*
X167070828Y-39836589D02*
X167023209Y-39931827D01*
X167023209Y-39931827D02*
X166975590Y-39979446D01*
X166975590Y-39979446D02*
X166880352Y-40027065D01*
X166880352Y-40027065D02*
X166547019Y-40027065D01*
X167689876Y-40550875D02*
X167594638Y-40503256D01*
X167594638Y-40503256D02*
X167547019Y-40455636D01*
X167547019Y-40455636D02*
X167499400Y-40360398D01*
X167499400Y-40360398D02*
X167499400Y-40074684D01*
X167499400Y-40074684D02*
X167547019Y-39979446D01*
X167547019Y-39979446D02*
X167594638Y-39931827D01*
X167594638Y-39931827D02*
X167689876Y-39884208D01*
X167689876Y-39884208D02*
X167832733Y-39884208D01*
X167832733Y-39884208D02*
X167927971Y-39931827D01*
X167927971Y-39931827D02*
X167975590Y-39979446D01*
X167975590Y-39979446D02*
X168023209Y-40074684D01*
X168023209Y-40074684D02*
X168023209Y-40360398D01*
X168023209Y-40360398D02*
X167975590Y-40455636D01*
X167975590Y-40455636D02*
X167927971Y-40503256D01*
X167927971Y-40503256D02*
X167832733Y-40550875D01*
X167832733Y-40550875D02*
X167689876Y-40550875D01*
X168880352Y-40550875D02*
X168880352Y-40027065D01*
X168880352Y-40027065D02*
X168832733Y-39931827D01*
X168832733Y-39931827D02*
X168737495Y-39884208D01*
X168737495Y-39884208D02*
X168547019Y-39884208D01*
X168547019Y-39884208D02*
X168451781Y-39931827D01*
X168880352Y-40503256D02*
X168785114Y-40550875D01*
X168785114Y-40550875D02*
X168547019Y-40550875D01*
X168547019Y-40550875D02*
X168451781Y-40503256D01*
X168451781Y-40503256D02*
X168404162Y-40408017D01*
X168404162Y-40408017D02*
X168404162Y-40312779D01*
X168404162Y-40312779D02*
X168451781Y-40217541D01*
X168451781Y-40217541D02*
X168547019Y-40169922D01*
X168547019Y-40169922D02*
X168785114Y-40169922D01*
X168785114Y-40169922D02*
X168880352Y-40122303D01*
X169356543Y-40550875D02*
X169356543Y-39884208D01*
X169356543Y-40074684D02*
X169404162Y-39979446D01*
X169404162Y-39979446D02*
X169451781Y-39931827D01*
X169451781Y-39931827D02*
X169547019Y-39884208D01*
X169547019Y-39884208D02*
X169642257Y-39884208D01*
X170404162Y-40550875D02*
X170404162Y-39550875D01*
X170404162Y-40503256D02*
X170308924Y-40550875D01*
X170308924Y-40550875D02*
X170118448Y-40550875D01*
X170118448Y-40550875D02*
X170023210Y-40503256D01*
X170023210Y-40503256D02*
X169975591Y-40455636D01*
X169975591Y-40455636D02*
X169927972Y-40360398D01*
X169927972Y-40360398D02*
X169927972Y-40074684D01*
X169927972Y-40074684D02*
X169975591Y-39979446D01*
X169975591Y-39979446D02*
X170023210Y-39931827D01*
X170023210Y-39931827D02*
X170118448Y-39884208D01*
X170118448Y-39884208D02*
X170308924Y-39884208D01*
X170308924Y-39884208D02*
X170404162Y-39931827D01*
X158356541Y-41494152D02*
X158594636Y-42160819D01*
X158594636Y-42160819D02*
X158832731Y-41494152D01*
X159737493Y-42160819D02*
X159166065Y-42160819D01*
X159451779Y-42160819D02*
X159451779Y-41160819D01*
X159451779Y-41160819D02*
X159356541Y-41303676D01*
X159356541Y-41303676D02*
X159261303Y-41398914D01*
X159261303Y-41398914D02*
X159166065Y-41446533D01*
X160166065Y-42065580D02*
X160213684Y-42113200D01*
X160213684Y-42113200D02*
X160166065Y-42160819D01*
X160166065Y-42160819D02*
X160118446Y-42113200D01*
X160118446Y-42113200D02*
X160166065Y-42065580D01*
X160166065Y-42065580D02*
X160166065Y-42160819D01*
X160832731Y-41160819D02*
X160927969Y-41160819D01*
X160927969Y-41160819D02*
X161023207Y-41208438D01*
X161023207Y-41208438D02*
X161070826Y-41256057D01*
X161070826Y-41256057D02*
X161118445Y-41351295D01*
X161118445Y-41351295D02*
X161166064Y-41541771D01*
X161166064Y-41541771D02*
X161166064Y-41779866D01*
X161166064Y-41779866D02*
X161118445Y-41970342D01*
X161118445Y-41970342D02*
X161070826Y-42065580D01*
X161070826Y-42065580D02*
X161023207Y-42113200D01*
X161023207Y-42113200D02*
X160927969Y-42160819D01*
X160927969Y-42160819D02*
X160832731Y-42160819D01*
X160832731Y-42160819D02*
X160737493Y-42113200D01*
X160737493Y-42113200D02*
X160689874Y-42065580D01*
X160689874Y-42065580D02*
X160642255Y-41970342D01*
X160642255Y-41970342D02*
X160594636Y-41779866D01*
X160594636Y-41779866D02*
X160594636Y-41541771D01*
X160594636Y-41541771D02*
X160642255Y-41351295D01*
X160642255Y-41351295D02*
X160689874Y-41256057D01*
X160689874Y-41256057D02*
X160737493Y-41208438D01*
X160737493Y-41208438D02*
X160832731Y-41160819D01*
X177633333Y-43634819D02*
X177300000Y-43158628D01*
X177061905Y-43634819D02*
X177061905Y-42634819D01*
X177061905Y-42634819D02*
X177442857Y-42634819D01*
X177442857Y-42634819D02*
X177538095Y-42682438D01*
X177538095Y-42682438D02*
X177585714Y-42730057D01*
X177585714Y-42730057D02*
X177633333Y-42825295D01*
X177633333Y-42825295D02*
X177633333Y-42968152D01*
X177633333Y-42968152D02*
X177585714Y-43063390D01*
X177585714Y-43063390D02*
X177538095Y-43111009D01*
X177538095Y-43111009D02*
X177442857Y-43158628D01*
X177442857Y-43158628D02*
X177061905Y-43158628D01*
X177966667Y-42634819D02*
X178585714Y-42634819D01*
X178585714Y-42634819D02*
X178252381Y-43015771D01*
X178252381Y-43015771D02*
X178395238Y-43015771D01*
X178395238Y-43015771D02*
X178490476Y-43063390D01*
X178490476Y-43063390D02*
X178538095Y-43111009D01*
X178538095Y-43111009D02*
X178585714Y-43206247D01*
X178585714Y-43206247D02*
X178585714Y-43444342D01*
X178585714Y-43444342D02*
X178538095Y-43539580D01*
X178538095Y-43539580D02*
X178490476Y-43587200D01*
X178490476Y-43587200D02*
X178395238Y-43634819D01*
X178395238Y-43634819D02*
X178109524Y-43634819D01*
X178109524Y-43634819D02*
X178014286Y-43587200D01*
X178014286Y-43587200D02*
X177966667Y-43539580D01*
X164766666Y-48984819D02*
X164766666Y-49699104D01*
X164766666Y-49699104D02*
X164719047Y-49841961D01*
X164719047Y-49841961D02*
X164623809Y-49937200D01*
X164623809Y-49937200D02*
X164480952Y-49984819D01*
X164480952Y-49984819D02*
X164385714Y-49984819D01*
X165195238Y-49080057D02*
X165242857Y-49032438D01*
X165242857Y-49032438D02*
X165338095Y-48984819D01*
X165338095Y-48984819D02*
X165576190Y-48984819D01*
X165576190Y-48984819D02*
X165671428Y-49032438D01*
X165671428Y-49032438D02*
X165719047Y-49080057D01*
X165719047Y-49080057D02*
X165766666Y-49175295D01*
X165766666Y-49175295D02*
X165766666Y-49270533D01*
X165766666Y-49270533D02*
X165719047Y-49413390D01*
X165719047Y-49413390D02*
X165147619Y-49984819D01*
X165147619Y-49984819D02*
X165766666Y-49984819D01*
X173823333Y-57774819D02*
X173490000Y-57298628D01*
X173251905Y-57774819D02*
X173251905Y-56774819D01*
X173251905Y-56774819D02*
X173632857Y-56774819D01*
X173632857Y-56774819D02*
X173728095Y-56822438D01*
X173728095Y-56822438D02*
X173775714Y-56870057D01*
X173775714Y-56870057D02*
X173823333Y-56965295D01*
X173823333Y-56965295D02*
X173823333Y-57108152D01*
X173823333Y-57108152D02*
X173775714Y-57203390D01*
X173775714Y-57203390D02*
X173728095Y-57251009D01*
X173728095Y-57251009D02*
X173632857Y-57298628D01*
X173632857Y-57298628D02*
X173251905Y-57298628D01*
X174204286Y-56870057D02*
X174251905Y-56822438D01*
X174251905Y-56822438D02*
X174347143Y-56774819D01*
X174347143Y-56774819D02*
X174585238Y-56774819D01*
X174585238Y-56774819D02*
X174680476Y-56822438D01*
X174680476Y-56822438D02*
X174728095Y-56870057D01*
X174728095Y-56870057D02*
X174775714Y-56965295D01*
X174775714Y-56965295D02*
X174775714Y-57060533D01*
X174775714Y-57060533D02*
X174728095Y-57203390D01*
X174728095Y-57203390D02*
X174156667Y-57774819D01*
X174156667Y-57774819D02*
X174775714Y-57774819D01*
X190788095Y-69154819D02*
X190788095Y-68154819D01*
X190788095Y-68631009D02*
X191359523Y-68631009D01*
X191359523Y-69154819D02*
X191359523Y-68154819D01*
X191740476Y-68154819D02*
X192359523Y-68154819D01*
X192359523Y-68154819D02*
X192026190Y-68535771D01*
X192026190Y-68535771D02*
X192169047Y-68535771D01*
X192169047Y-68535771D02*
X192264285Y-68583390D01*
X192264285Y-68583390D02*
X192311904Y-68631009D01*
X192311904Y-68631009D02*
X192359523Y-68726247D01*
X192359523Y-68726247D02*
X192359523Y-68964342D01*
X192359523Y-68964342D02*
X192311904Y-69059580D01*
X192311904Y-69059580D02*
X192264285Y-69107200D01*
X192264285Y-69107200D02*
X192169047Y-69154819D01*
X192169047Y-69154819D02*
X191883333Y-69154819D01*
X191883333Y-69154819D02*
X191788095Y-69107200D01*
X191788095Y-69107200D02*
X191740476Y-69059580D01*
X193651667Y-49810200D02*
X193794524Y-49857819D01*
X193794524Y-49857819D02*
X194032619Y-49857819D01*
X194032619Y-49857819D02*
X194127857Y-49810200D01*
X194127857Y-49810200D02*
X194175476Y-49762580D01*
X194175476Y-49762580D02*
X194223095Y-49667342D01*
X194223095Y-49667342D02*
X194223095Y-49572104D01*
X194223095Y-49572104D02*
X194175476Y-49476866D01*
X194175476Y-49476866D02*
X194127857Y-49429247D01*
X194127857Y-49429247D02*
X194032619Y-49381628D01*
X194032619Y-49381628D02*
X193842143Y-49334009D01*
X193842143Y-49334009D02*
X193746905Y-49286390D01*
X193746905Y-49286390D02*
X193699286Y-49238771D01*
X193699286Y-49238771D02*
X193651667Y-49143533D01*
X193651667Y-49143533D02*
X193651667Y-49048295D01*
X193651667Y-49048295D02*
X193699286Y-48953057D01*
X193699286Y-48953057D02*
X193746905Y-48905438D01*
X193746905Y-48905438D02*
X193842143Y-48857819D01*
X193842143Y-48857819D02*
X194080238Y-48857819D01*
X194080238Y-48857819D02*
X194223095Y-48905438D01*
X194556429Y-48857819D02*
X194794524Y-49857819D01*
X194794524Y-49857819D02*
X194985000Y-49143533D01*
X194985000Y-49143533D02*
X195175476Y-49857819D01*
X195175476Y-49857819D02*
X195413572Y-48857819D01*
X195746905Y-48953057D02*
X195794524Y-48905438D01*
X195794524Y-48905438D02*
X195889762Y-48857819D01*
X195889762Y-48857819D02*
X196127857Y-48857819D01*
X196127857Y-48857819D02*
X196223095Y-48905438D01*
X196223095Y-48905438D02*
X196270714Y-48953057D01*
X196270714Y-48953057D02*
X196318333Y-49048295D01*
X196318333Y-49048295D02*
X196318333Y-49143533D01*
X196318333Y-49143533D02*
X196270714Y-49286390D01*
X196270714Y-49286390D02*
X195699286Y-49857819D01*
X195699286Y-49857819D02*
X196318333Y-49857819D01*
X191939819Y-55371999D02*
X192177914Y-55371999D01*
X192082676Y-55610094D02*
X192177914Y-55371999D01*
X192177914Y-55371999D02*
X192082676Y-55133904D01*
X192368390Y-55514856D02*
X192177914Y-55371999D01*
X192177914Y-55371999D02*
X192368390Y-55229142D01*
X163288095Y-69154819D02*
X163288095Y-68154819D01*
X163288095Y-68631009D02*
X163859523Y-68631009D01*
X163859523Y-69154819D02*
X163859523Y-68154819D01*
X164288095Y-68250057D02*
X164335714Y-68202438D01*
X164335714Y-68202438D02*
X164430952Y-68154819D01*
X164430952Y-68154819D02*
X164669047Y-68154819D01*
X164669047Y-68154819D02*
X164764285Y-68202438D01*
X164764285Y-68202438D02*
X164811904Y-68250057D01*
X164811904Y-68250057D02*
X164859523Y-68345295D01*
X164859523Y-68345295D02*
X164859523Y-68440533D01*
X164859523Y-68440533D02*
X164811904Y-68583390D01*
X164811904Y-68583390D02*
X164240476Y-69154819D01*
X164240476Y-69154819D02*
X164859523Y-69154819D01*
X184023333Y-62929580D02*
X183975714Y-62977200D01*
X183975714Y-62977200D02*
X183832857Y-63024819D01*
X183832857Y-63024819D02*
X183737619Y-63024819D01*
X183737619Y-63024819D02*
X183594762Y-62977200D01*
X183594762Y-62977200D02*
X183499524Y-62881961D01*
X183499524Y-62881961D02*
X183451905Y-62786723D01*
X183451905Y-62786723D02*
X183404286Y-62596247D01*
X183404286Y-62596247D02*
X183404286Y-62453390D01*
X183404286Y-62453390D02*
X183451905Y-62262914D01*
X183451905Y-62262914D02*
X183499524Y-62167676D01*
X183499524Y-62167676D02*
X183594762Y-62072438D01*
X183594762Y-62072438D02*
X183737619Y-62024819D01*
X183737619Y-62024819D02*
X183832857Y-62024819D01*
X183832857Y-62024819D02*
X183975714Y-62072438D01*
X183975714Y-62072438D02*
X184023333Y-62120057D01*
X184975714Y-63024819D02*
X184404286Y-63024819D01*
X184690000Y-63024819D02*
X184690000Y-62024819D01*
X184690000Y-62024819D02*
X184594762Y-62167676D01*
X184594762Y-62167676D02*
X184499524Y-62262914D01*
X184499524Y-62262914D02*
X184404286Y-62310533D01*
X191031905Y-57224819D02*
X191031905Y-56224819D01*
X191031905Y-56224819D02*
X191270000Y-56224819D01*
X191270000Y-56224819D02*
X191412857Y-56272438D01*
X191412857Y-56272438D02*
X191508095Y-56367676D01*
X191508095Y-56367676D02*
X191555714Y-56462914D01*
X191555714Y-56462914D02*
X191603333Y-56653390D01*
X191603333Y-56653390D02*
X191603333Y-56796247D01*
X191603333Y-56796247D02*
X191555714Y-56986723D01*
X191555714Y-56986723D02*
X191508095Y-57081961D01*
X191508095Y-57081961D02*
X191412857Y-57177200D01*
X191412857Y-57177200D02*
X191270000Y-57224819D01*
X191270000Y-57224819D02*
X191031905Y-57224819D01*
X192555714Y-57224819D02*
X191984286Y-57224819D01*
X192270000Y-57224819D02*
X192270000Y-56224819D01*
X192270000Y-56224819D02*
X192174762Y-56367676D01*
X192174762Y-56367676D02*
X192079524Y-56462914D01*
X192079524Y-56462914D02*
X191984286Y-56510533D01*
X177038095Y-27554819D02*
X177038095Y-26554819D01*
X177038095Y-27031009D02*
X177609523Y-27031009D01*
X177609523Y-27554819D02*
X177609523Y-26554819D01*
X178609523Y-27554819D02*
X178038095Y-27554819D01*
X178323809Y-27554819D02*
X178323809Y-26554819D01*
X178323809Y-26554819D02*
X178228571Y-26697676D01*
X178228571Y-26697676D02*
X178133333Y-26792914D01*
X178133333Y-26792914D02*
X178038095Y-26840533D01*
X173823333Y-62854819D02*
X173490000Y-62378628D01*
X173251905Y-62854819D02*
X173251905Y-61854819D01*
X173251905Y-61854819D02*
X173632857Y-61854819D01*
X173632857Y-61854819D02*
X173728095Y-61902438D01*
X173728095Y-61902438D02*
X173775714Y-61950057D01*
X173775714Y-61950057D02*
X173823333Y-62045295D01*
X173823333Y-62045295D02*
X173823333Y-62188152D01*
X173823333Y-62188152D02*
X173775714Y-62283390D01*
X173775714Y-62283390D02*
X173728095Y-62331009D01*
X173728095Y-62331009D02*
X173632857Y-62378628D01*
X173632857Y-62378628D02*
X173251905Y-62378628D01*
X174775714Y-62854819D02*
X174204286Y-62854819D01*
X174490000Y-62854819D02*
X174490000Y-61854819D01*
X174490000Y-61854819D02*
X174394762Y-61997676D01*
X174394762Y-61997676D02*
X174299524Y-62092914D01*
X174299524Y-62092914D02*
X174204286Y-62140533D01*
D11*
%TO.C,R3*%
X179394455Y-42155000D02*
X176198000Y-42155000D01*
X179394455Y-37855000D02*
X176198000Y-37855000D01*
X179394455Y-37855000D02*
G75*
G02*
X179394455Y-42155000I-1500001J-2150000D01*
G01*
X176198000Y-42155000D02*
G75*
G02*
X176198000Y-37855000I1500000J2150000D01*
G01*
%TO.C,J2*%
X161355186Y-52038429D02*
X162949503Y-57988529D01*
X162949503Y-57988529D02*
X171333749Y-55741970D01*
X169739421Y-49791869D02*
X161355186Y-52038429D01*
X170174242Y-51414632D02*
X170251883Y-51704403D01*
X170251883Y-51704403D02*
X170686549Y-51587939D01*
X170821291Y-53829440D02*
X170898930Y-54119216D01*
X170898930Y-54119216D02*
X171333592Y-54002752D01*
X171333749Y-55741970D02*
X169739421Y-49791869D01*
X170608902Y-51298162D02*
X170174242Y-51414632D01*
X170686549Y-51587939D02*
X170608902Y-51298162D01*
X171255954Y-53712973D02*
X170821291Y-53829440D01*
X171333592Y-54002752D02*
X171255954Y-53712973D01*
X172715747Y-55065503D02*
X173295300Y-54910213D01*
X172895725Y-54578045D02*
X172715747Y-55065503D01*
X173295300Y-54910213D02*
X172895725Y-54578045D01*
%TO.C,R2*%
X169950000Y-59690000D02*
X170720000Y-59690000D01*
X170720000Y-58320000D02*
X170720000Y-61060000D01*
X170720000Y-61060000D02*
X177260000Y-61060000D01*
X177260000Y-58320000D02*
X170720000Y-58320000D01*
X177260000Y-61060000D02*
X177260000Y-58320000D01*
X178030000Y-59690000D02*
X177260000Y-59690000D01*
D12*
%TO.C,SW2*%
X189054100Y-50584100D02*
X189054100Y-54825900D01*
X189054100Y-54825900D02*
X200915900Y-54825900D01*
X200915900Y-50584100D02*
X189054100Y-50584100D01*
X200915900Y-54825900D02*
X200915900Y-50584100D01*
D11*
%TO.C,C1*%
X181920000Y-63715000D02*
X181920000Y-63700000D01*
X181920000Y-65840000D02*
X181920000Y-65825000D01*
X186460000Y-63700000D02*
X181920000Y-63700000D01*
X186460000Y-63715000D02*
X186460000Y-63700000D01*
X186460000Y-65840000D02*
X181920000Y-65840000D01*
X186460000Y-65840000D02*
X186460000Y-65825000D01*
%TO.C,D1*%
X186860000Y-59690000D02*
X187850000Y-59690000D01*
X187850000Y-57770000D02*
X187850000Y-61610000D01*
X187850000Y-61610000D02*
X195690000Y-61610000D01*
X188990000Y-57770000D02*
X188990000Y-61610000D01*
X189110000Y-57770000D02*
X189110000Y-61610000D01*
X189230000Y-57770000D02*
X189230000Y-61610000D01*
X195690000Y-57770000D02*
X187850000Y-57770000D01*
X195690000Y-61610000D02*
X195690000Y-57770000D01*
X196680000Y-59690000D02*
X195690000Y-59690000D01*
%TO.C,R1*%
X169950000Y-64770000D02*
X170720000Y-64770000D01*
X170720000Y-63400000D02*
X170720000Y-66140000D01*
X170720000Y-66140000D02*
X177260000Y-66140000D01*
X177260000Y-63400000D02*
X170720000Y-63400000D01*
X177260000Y-66140000D02*
X177260000Y-63400000D01*
X178030000Y-64770000D02*
X177260000Y-64770000D01*
%TD*%
M02*
