%TF.GenerationSoftware,KiCad,Pcbnew,8.0.7*%
%TF.CreationDate,2025-10-12T21:35:03-07:00*%
%TF.ProjectId,Screen accessory board v1.0,53637265-656e-4206-9163-636573736f72,rev?*%
%TF.SameCoordinates,Original*%
%TF.FileFunction,Copper,L2,Bot*%
%TF.FilePolarity,Positive*%
%FSLAX46Y46*%
G04 Gerber Fmt 4.6, Leading zero omitted, Abs format (unit mm)*
G04 Created by KiCad (PCBNEW 8.0.7) date 2025-10-12 21:35:03*
%MOMM*%
%LPD*%
G01*
G04 APERTURE LIST*
G04 Aperture macros list*
%AMRoundRect*
0 Rectangle with rounded corners*
0 $1 Rounding radius*
0 $2 $3 $4 $5 $6 $7 $8 $9 X,Y pos of 4 corners*
0 Add a 4 corners polygon primitive as box body*
4,1,4,$2,$3,$4,$5,$6,$7,$8,$9,$2,$3,0*
0 Add four circle primitives for the rounded corners*
1,1,$1+$1,$2,$3*
1,1,$1+$1,$4,$5*
1,1,$1+$1,$6,$7*
1,1,$1+$1,$8,$9*
0 Add four rect primitives between the rounded corners*
20,1,$1+$1,$2,$3,$4,$5,0*
20,1,$1+$1,$4,$5,$6,$7,0*
20,1,$1+$1,$6,$7,$8,$9,0*
20,1,$1+$1,$8,$9,$2,$3,0*%
%AMHorizOval*
0 Thick line with rounded ends*
0 $1 width*
0 $2 $3 position (X,Y) of the first rounded end (center of the circle)*
0 $4 $5 position (X,Y) of the second rounded end (center of the circle)*
0 Add line between two ends*
20,1,$1,$2,$3,$4,$5,0*
0 Add two circle primitives to create the rounded ends*
1,1,$1,$2,$3*
1,1,$1,$4,$5*%
G04 Aperture macros list end*
%TA.AperFunction,ComponentPad*%
%ADD10C,1.500000*%
%TD*%
%TA.AperFunction,ComponentPad*%
%ADD11HorizOval,1.700000X-0.241481X-0.064705X0.241481X0.064705X0*%
%TD*%
%TA.AperFunction,ComponentPad*%
%ADD12RoundRect,0.250000X0.665746X0.799552X-0.976328X0.359559X-0.665746X-0.799552X0.976328X-0.359559X0*%
%TD*%
%TA.AperFunction,ComponentPad*%
%ADD13C,1.600000*%
%TD*%
%TA.AperFunction,ComponentPad*%
%ADD14O,1.600000X1.600000*%
%TD*%
%TA.AperFunction,ComponentPad*%
%ADD15C,4.400000*%
%TD*%
%TA.AperFunction,ComponentPad*%
%ADD16C,1.397000*%
%TD*%
%TA.AperFunction,ComponentPad*%
%ADD17R,2.400000X2.400000*%
%TD*%
%TA.AperFunction,ComponentPad*%
%ADD18O,2.400000X2.400000*%
%TD*%
%TA.AperFunction,ComponentPad*%
%ADD19R,1.498000X1.498000*%
%TD*%
%TA.AperFunction,ComponentPad*%
%ADD20C,1.498000*%
%TD*%
%TA.AperFunction,ComponentPad*%
%ADD21R,1.700000X1.700000*%
%TD*%
%TA.AperFunction,ComponentPad*%
%ADD22O,1.700000X1.700000*%
%TD*%
G04 APERTURE END LIST*
D10*
%TO.P,R3,1*%
%TO.N,VCC3V3*%
X179500000Y-40005000D03*
%TO.P,R3,2*%
%TO.N,GPIO17*%
X176100000Y-40005000D03*
%TD*%
D11*
%TO.P,J2,2,Pin_2*%
%TO.N,GND*%
X171961384Y-51091058D03*
D12*
%TO.P,J2,1,Pin_1*%
%TO.N,5V_VCC*%
X172608433Y-53505871D03*
%TD*%
D13*
%TO.P,R2,1*%
%TO.N,GND*%
X168910000Y-59690000D03*
D14*
%TO.P,R2,2*%
%TO.N,GPIO17*%
X179070000Y-59690000D03*
%TD*%
D15*
%TO.P,H3,1,1*%
%TO.N,GND*%
X191550000Y-65500000D03*
%TD*%
D16*
%TO.P,SW2,1,A*%
%TO.N,5V_VCC*%
X192485000Y-52705000D03*
%TO.P,SW2,2,B*%
%TO.N,Net-(D1-A)*%
X194985000Y-52705000D03*
%TO.P,SW2,3,C*%
%TO.N,unconnected-(SW2-C-Pad3)*%
X197485000Y-52705000D03*
%TD*%
D15*
%TO.P,H2,1,1*%
%TO.N,GND*%
X164050000Y-65500000D03*
%TD*%
D13*
%TO.P,C1,1*%
%TO.N,VBUS*%
X186690000Y-64770000D03*
%TO.P,C1,2*%
%TO.N,GND*%
X181690000Y-64770000D03*
%TD*%
D17*
%TO.P,D1,1,K*%
%TO.N,VBUS*%
X185420000Y-59690000D03*
D18*
%TO.P,D1,2,A*%
%TO.N,Net-(D1-A)*%
X198120000Y-59690000D03*
%TD*%
D15*
%TO.P,H1,1,1*%
%TO.N,GND*%
X177800000Y-30300000D03*
%TD*%
D13*
%TO.P,R1,1*%
%TO.N,GND*%
X168910000Y-64770000D03*
D14*
%TO.P,R1,2*%
%TO.N,Net-(R1-Pad2)*%
X179070000Y-64770000D03*
%TD*%
D19*
%TO.P,SW1,1*%
%TO.N,GPIO18*%
X174550000Y-80700000D03*
D20*
%TO.P,SW1,2*%
%TO.N,Net-(R1-Pad2)*%
X181050000Y-80700000D03*
%TO.P,SW1,3*%
%TO.N,unconnected-(SW1-Pad3)*%
X174550000Y-76200000D03*
%TO.P,SW1,4*%
%TO.N,VCC3V3*%
X181050000Y-76200000D03*
%TD*%
D21*
%TO.P,J1,1,Pin_1*%
%TO.N,VBUS*%
X186690000Y-69480000D03*
D22*
%TO.P,J1,2,Pin_2*%
%TO.N,GND*%
X184150000Y-69480000D03*
%TO.P,J1,3,Pin_3*%
%TO.N,VCC3V3*%
X181610000Y-69480000D03*
%TO.P,J1,4,Pin_4*%
%TO.N,U0TXD*%
X179070000Y-69480000D03*
%TO.P,J1,5,Pin_5*%
%TO.N,U0RXD*%
X176530000Y-69480000D03*
%TO.P,J1,6,Pin_6*%
%TO.N,GPIO16*%
X173990000Y-69480000D03*
%TO.P,J1,7,Pin_7*%
%TO.N,GPIO17*%
X171450000Y-69480000D03*
%TO.P,J1,8,Pin_8*%
%TO.N,GPIO18*%
X168910000Y-69480000D03*
%TD*%
%TA.AperFunction,Conductor*%
%TO.N,GND*%
G36*
X178782237Y-26310125D02*
G01*
X178787136Y-26310322D01*
X179765342Y-26369360D01*
X179770239Y-26369755D01*
X180745294Y-26468046D01*
X180750172Y-26468637D01*
X181720417Y-26606013D01*
X181725322Y-26606808D01*
X182689301Y-26783058D01*
X182694136Y-26784044D01*
X183650212Y-26998871D01*
X183655035Y-27000057D01*
X184601767Y-27253138D01*
X184606503Y-27254507D01*
X185542254Y-27545405D01*
X185546941Y-27546965D01*
X186470279Y-27875232D01*
X186474920Y-27876988D01*
X187332986Y-28221476D01*
X187384288Y-28242072D01*
X187388874Y-28244021D01*
X188282840Y-28645344D01*
X188287344Y-28647476D01*
X189164460Y-29084389D01*
X189168868Y-29086697D01*
X190027719Y-29558494D01*
X190032004Y-29560960D01*
X190871278Y-30066924D01*
X190875440Y-30069550D01*
X191693648Y-30608783D01*
X191693650Y-30608784D01*
X191697747Y-30611604D01*
X191697753Y-30611608D01*
X191697755Y-30611609D01*
X192493622Y-31183269D01*
X192497610Y-31186256D01*
X193269904Y-31789456D01*
X193273768Y-31792602D01*
X194021161Y-32426306D01*
X194024896Y-32429604D01*
X194746244Y-33092840D01*
X194749844Y-33096286D01*
X195443959Y-33787962D01*
X195447417Y-33791549D01*
X196113186Y-34510559D01*
X196116497Y-34514282D01*
X196752849Y-35259464D01*
X196756008Y-35263318D01*
X197361888Y-36033442D01*
X197364890Y-36037419D01*
X197939367Y-36831298D01*
X197942206Y-36835393D01*
X198484296Y-37651669D01*
X198486969Y-37655874D01*
X198995850Y-38493309D01*
X198998337Y-38497592D01*
X199426464Y-39270489D01*
X199473162Y-39354792D01*
X199475488Y-39359199D01*
X199584269Y-39575668D01*
X199885443Y-40174991D01*
X199915490Y-40234782D01*
X199917635Y-40239275D01*
X199917636Y-40239277D01*
X199917637Y-40239278D01*
X200322098Y-41131815D01*
X200324063Y-41136394D01*
X200692336Y-42044450D01*
X200694116Y-42049104D01*
X200928576Y-42701303D01*
X201025619Y-42971250D01*
X201025620Y-42971251D01*
X201027207Y-42975961D01*
X201027210Y-42975972D01*
X201027211Y-42975973D01*
X201321394Y-43910679D01*
X201322794Y-43915461D01*
X201579186Y-44861229D01*
X201580393Y-44866064D01*
X201798581Y-45821363D01*
X201799593Y-45826242D01*
X201979225Y-46789546D01*
X201980040Y-46794461D01*
X202120831Y-47764228D01*
X202121447Y-47769173D01*
X202223157Y-48743758D01*
X202223575Y-48748723D01*
X202286051Y-49726667D01*
X202286268Y-49731645D01*
X202309402Y-50711251D01*
X202309420Y-50716234D01*
X202293180Y-51696025D01*
X202292997Y-51701005D01*
X202237408Y-52679314D01*
X202237026Y-52684282D01*
X202142172Y-53659608D01*
X202141590Y-53664556D01*
X202007634Y-54635251D01*
X202006854Y-54640173D01*
X201834001Y-55604741D01*
X201833023Y-55609627D01*
X201621571Y-56566409D01*
X201620399Y-56571252D01*
X201370657Y-57518843D01*
X201369290Y-57523634D01*
X201081697Y-58460372D01*
X201080139Y-58465105D01*
X200755146Y-59389525D01*
X200753400Y-59394192D01*
X200391514Y-60304851D01*
X200389581Y-60309444D01*
X199991407Y-61204816D01*
X199989291Y-61209327D01*
X199555476Y-62087956D01*
X199553181Y-62092379D01*
X199084400Y-62952902D01*
X199081938Y-62957211D01*
X199073789Y-62970839D01*
X198578973Y-63798191D01*
X198576330Y-63802415D01*
X198039969Y-64622531D01*
X198037158Y-64626645D01*
X197468310Y-65424508D01*
X197465337Y-65428506D01*
X196864877Y-66202894D01*
X196861745Y-66206770D01*
X196230663Y-66956402D01*
X196227378Y-66960149D01*
X195566674Y-67683838D01*
X195563241Y-67687449D01*
X194874022Y-68383982D01*
X194870447Y-68387453D01*
X194153774Y-69055760D01*
X194150062Y-69059084D01*
X193407149Y-69698031D01*
X193403307Y-69701204D01*
X192635297Y-70309809D01*
X192631330Y-70312825D01*
X191839477Y-70890092D01*
X191835392Y-70892945D01*
X191021035Y-71437899D01*
X191016839Y-71440587D01*
X190181200Y-71952413D01*
X190176900Y-71954929D01*
X189321401Y-72432753D01*
X189317003Y-72435095D01*
X188442993Y-72878165D01*
X188438504Y-72880329D01*
X187547377Y-73287938D01*
X187542805Y-73289919D01*
X186636041Y-73661387D01*
X186631393Y-73663183D01*
X185710418Y-73997930D01*
X185705702Y-73999537D01*
X184773018Y-74296695D01*
X184769169Y-74297853D01*
X184667088Y-74326767D01*
X184461547Y-74419013D01*
X184271572Y-74540090D01*
X184271557Y-74540101D01*
X184101151Y-74687457D01*
X184101141Y-74687467D01*
X183953915Y-74857979D01*
X183953912Y-74857983D01*
X183832970Y-75048053D01*
X183740874Y-75253670D01*
X183740873Y-75253672D01*
X183679580Y-75470458D01*
X183650380Y-75693851D01*
X183650379Y-75693857D01*
X183652086Y-75801419D01*
X183652102Y-75803434D01*
X183649911Y-81484302D01*
X183649888Y-81543234D01*
X183649103Y-81557114D01*
X183638894Y-81647427D01*
X183632709Y-81674488D01*
X183617611Y-81717592D01*
X183604978Y-81753662D01*
X183592926Y-81778670D01*
X183548275Y-81849690D01*
X183530963Y-81871389D01*
X183471637Y-81930691D01*
X183449930Y-81947995D01*
X183378891Y-81992618D01*
X183353878Y-82004659D01*
X183274698Y-82032357D01*
X183247635Y-82038533D01*
X183157184Y-82048720D01*
X183143306Y-82049499D01*
X183076907Y-82049499D01*
X183076891Y-82049500D01*
X181671884Y-82049500D01*
X181604845Y-82029815D01*
X181559090Y-81977011D01*
X181549146Y-81907853D01*
X181578171Y-81844297D01*
X181619477Y-81813119D01*
X181677137Y-81786232D01*
X181856231Y-81660829D01*
X182010829Y-81506231D01*
X182136232Y-81327137D01*
X182228631Y-81128987D01*
X182285218Y-80917802D01*
X182304273Y-80700000D01*
X182285218Y-80482198D01*
X182228631Y-80271013D01*
X182136232Y-80072864D01*
X182010829Y-79893769D01*
X181856231Y-79739171D01*
X181856227Y-79739168D01*
X181856226Y-79739167D01*
X181677141Y-79613770D01*
X181677137Y-79613768D01*
X181677133Y-79613766D01*
X181478987Y-79521369D01*
X181478983Y-79521368D01*
X181478979Y-79521366D01*
X181267807Y-79464783D01*
X181267803Y-79464782D01*
X181267802Y-79464782D01*
X181267801Y-79464781D01*
X181267796Y-79464781D01*
X181050002Y-79445727D01*
X181049998Y-79445727D01*
X180832203Y-79464781D01*
X180832192Y-79464783D01*
X180621020Y-79521366D01*
X180621011Y-79521370D01*
X180422866Y-79613766D01*
X180243766Y-79739172D01*
X180089172Y-79893766D01*
X179963766Y-80072866D01*
X179871370Y-80271011D01*
X179871366Y-80271020D01*
X179814783Y-80482192D01*
X179814781Y-80482203D01*
X179795727Y-80699998D01*
X179795727Y-80700001D01*
X179814781Y-80917796D01*
X179814783Y-80917807D01*
X179871366Y-81128979D01*
X179871368Y-81128983D01*
X179871369Y-81128987D01*
X179963768Y-81327137D01*
X179963770Y-81327141D01*
X180089167Y-81506226D01*
X180089172Y-81506232D01*
X180243767Y-81660827D01*
X180243773Y-81660832D01*
X180422858Y-81786229D01*
X180422860Y-81786230D01*
X180422863Y-81786232D01*
X180480521Y-81813118D01*
X180532960Y-81859290D01*
X180552112Y-81926484D01*
X180531896Y-81993365D01*
X180478731Y-82038699D01*
X180428116Y-82049500D01*
X175704558Y-82049500D01*
X175637519Y-82029815D01*
X175591764Y-81977011D01*
X175581820Y-81907853D01*
X175610845Y-81844297D01*
X175630246Y-81826234D01*
X175656546Y-81806546D01*
X175742796Y-81691331D01*
X175793091Y-81556483D01*
X175799500Y-81496873D01*
X175799499Y-79903128D01*
X175793091Y-79843517D01*
X175754172Y-79739171D01*
X175742797Y-79708671D01*
X175742793Y-79708664D01*
X175656547Y-79593455D01*
X175656544Y-79593452D01*
X175541335Y-79507206D01*
X175541328Y-79507202D01*
X175406482Y-79456908D01*
X175406483Y-79456908D01*
X175346883Y-79450501D01*
X175346881Y-79450500D01*
X175346873Y-79450500D01*
X175346864Y-79450500D01*
X173753129Y-79450500D01*
X173753123Y-79450501D01*
X173693516Y-79456908D01*
X173558671Y-79507202D01*
X173558664Y-79507206D01*
X173443455Y-79593452D01*
X173443452Y-79593455D01*
X173357206Y-79708664D01*
X173357202Y-79708671D01*
X173306908Y-79843517D01*
X173301506Y-79893766D01*
X173300501Y-79903123D01*
X173300500Y-79903135D01*
X173300500Y-81496870D01*
X173300501Y-81496876D01*
X173306908Y-81556483D01*
X173357202Y-81691328D01*
X173357206Y-81691335D01*
X173443452Y-81806544D01*
X173443453Y-81806544D01*
X173443454Y-81806546D01*
X173469754Y-81826234D01*
X173511624Y-81882168D01*
X173516608Y-81951859D01*
X173483122Y-82013182D01*
X173421799Y-82046666D01*
X173395442Y-82049500D01*
X172523109Y-82049500D01*
X172523093Y-82049499D01*
X172456567Y-82049499D01*
X172442689Y-82048720D01*
X172352362Y-82038547D01*
X172325296Y-82032371D01*
X172301786Y-82024147D01*
X172246112Y-82004671D01*
X172221100Y-81992630D01*
X172150062Y-81948008D01*
X172128359Y-81930707D01*
X172069020Y-81871392D01*
X172051714Y-81849701D01*
X172007055Y-81778667D01*
X171995012Y-81753676D01*
X171967275Y-81674486D01*
X171961092Y-81647436D01*
X171950895Y-81557238D01*
X171950111Y-81543359D01*
X171950086Y-81476718D01*
X171950085Y-81476702D01*
X171949620Y-80271011D01*
X171948049Y-76199998D01*
X173295727Y-76199998D01*
X173295727Y-76200001D01*
X173314781Y-76417796D01*
X173314783Y-76417807D01*
X173371366Y-76628979D01*
X173371368Y-76628983D01*
X173371369Y-76628987D01*
X173463768Y-76827137D01*
X173463770Y-76827141D01*
X173589167Y-77006226D01*
X173589172Y-77006232D01*
X173743767Y-77160827D01*
X173743773Y-77160832D01*
X173922858Y-77286229D01*
X173922860Y-77286230D01*
X173922863Y-77286232D01*
X174121013Y-77378631D01*
X174332198Y-77435218D01*
X174487770Y-77448828D01*
X174549998Y-77454273D01*
X174550000Y-77454273D01*
X174550002Y-77454273D01*
X174604450Y-77449509D01*
X174767802Y-77435218D01*
X174978987Y-77378631D01*
X175177137Y-77286232D01*
X175356231Y-77160829D01*
X175510829Y-77006231D01*
X175636232Y-76827137D01*
X175728631Y-76628987D01*
X175785218Y-76417802D01*
X175804273Y-76200000D01*
X175804273Y-76199998D01*
X179795727Y-76199998D01*
X179795727Y-76200001D01*
X179814781Y-76417796D01*
X179814783Y-76417807D01*
X179871366Y-76628979D01*
X179871368Y-76628983D01*
X179871369Y-76628987D01*
X179963768Y-76827137D01*
X179963770Y-76827141D01*
X180089167Y-77006226D01*
X180089172Y-77006232D01*
X180243767Y-77160827D01*
X180243773Y-77160832D01*
X180422858Y-77286229D01*
X180422860Y-77286230D01*
X180422863Y-77286232D01*
X180621013Y-77378631D01*
X180832198Y-77435218D01*
X180987770Y-77448828D01*
X181049998Y-77454273D01*
X181050000Y-77454273D01*
X181050002Y-77454273D01*
X181104450Y-77449509D01*
X181267802Y-77435218D01*
X181478987Y-77378631D01*
X181677137Y-77286232D01*
X181856231Y-77160829D01*
X182010829Y-77006231D01*
X182136232Y-76827137D01*
X182228631Y-76628987D01*
X182285218Y-76417802D01*
X182304273Y-76200000D01*
X182285218Y-75982198D01*
X182228631Y-75771013D01*
X182136232Y-75572864D01*
X182010829Y-75393769D01*
X181856231Y-75239171D01*
X181856227Y-75239168D01*
X181856226Y-75239167D01*
X181677141Y-75113770D01*
X181677137Y-75113768D01*
X181677133Y-75113766D01*
X181478987Y-75021369D01*
X181478983Y-75021368D01*
X181478979Y-75021366D01*
X181267807Y-74964783D01*
X181267803Y-74964782D01*
X181267802Y-74964782D01*
X181267801Y-74964781D01*
X181267796Y-74964781D01*
X181050002Y-74945727D01*
X181049998Y-74945727D01*
X180832203Y-74964781D01*
X180832192Y-74964783D01*
X180621020Y-75021366D01*
X180621011Y-75021370D01*
X180422866Y-75113766D01*
X180243766Y-75239172D01*
X180089172Y-75393766D01*
X179963766Y-75572866D01*
X179871370Y-75771011D01*
X179871366Y-75771020D01*
X179814783Y-75982192D01*
X179814781Y-75982203D01*
X179795727Y-76199998D01*
X175804273Y-76199998D01*
X175785218Y-75982198D01*
X175728631Y-75771013D01*
X175636232Y-75572864D01*
X175510829Y-75393769D01*
X175356231Y-75239171D01*
X175356227Y-75239168D01*
X175356226Y-75239167D01*
X175177141Y-75113770D01*
X175177137Y-75113768D01*
X175177133Y-75113766D01*
X174978987Y-75021369D01*
X174978983Y-75021368D01*
X174978979Y-75021366D01*
X174767807Y-74964783D01*
X174767803Y-74964782D01*
X174767802Y-74964782D01*
X174767801Y-74964781D01*
X174767796Y-74964781D01*
X174550002Y-74945727D01*
X174549998Y-74945727D01*
X174332203Y-74964781D01*
X174332192Y-74964783D01*
X174121020Y-75021366D01*
X174121011Y-75021370D01*
X173922866Y-75113766D01*
X173743766Y-75239172D01*
X173589172Y-75393766D01*
X173463766Y-75572866D01*
X173371370Y-75771011D01*
X173371366Y-75771020D01*
X173314783Y-75982192D01*
X173314781Y-75982203D01*
X173295727Y-76199998D01*
X171948049Y-76199998D01*
X171947896Y-75802714D01*
X171947912Y-75800743D01*
X171948006Y-75794861D01*
X171949609Y-75693852D01*
X171920409Y-75470463D01*
X171920407Y-75470457D01*
X171920407Y-75470454D01*
X171860701Y-75259286D01*
X171859114Y-75253672D01*
X171767022Y-75048065D01*
X171646079Y-74857990D01*
X171498845Y-74687469D01*
X171328433Y-74540108D01*
X171328429Y-74540105D01*
X171328426Y-74540103D01*
X171187342Y-74450185D01*
X171138449Y-74419024D01*
X171138448Y-74419023D01*
X171138444Y-74419021D01*
X170932913Y-74326780D01*
X170932900Y-74326775D01*
X170831209Y-74297972D01*
X170827359Y-74296814D01*
X169894298Y-73999537D01*
X169889582Y-73997930D01*
X168968607Y-73663183D01*
X168963959Y-73661387D01*
X168187053Y-73343116D01*
X168057192Y-73289916D01*
X168052624Y-73287937D01*
X167161496Y-72880329D01*
X167157007Y-72878165D01*
X166282997Y-72435095D01*
X166278599Y-72432753D01*
X165423100Y-71954928D01*
X165418800Y-71952412D01*
X164583162Y-71440587D01*
X164578966Y-71437899D01*
X163808512Y-70922324D01*
X163764605Y-70892942D01*
X163760526Y-70890093D01*
X163139667Y-70437482D01*
X162968670Y-70312824D01*
X162964703Y-70309808D01*
X162196693Y-69701203D01*
X162192851Y-69698030D01*
X161939344Y-69479999D01*
X167554341Y-69479999D01*
X167554341Y-69480000D01*
X167574936Y-69715403D01*
X167574938Y-69715413D01*
X167636094Y-69943655D01*
X167636096Y-69943659D01*
X167636097Y-69943663D01*
X167716004Y-70115023D01*
X167735965Y-70157830D01*
X167735967Y-70157834D01*
X167828142Y-70289472D01*
X167871505Y-70351401D01*
X168038599Y-70518495D01*
X168135384Y-70586265D01*
X168232165Y-70654032D01*
X168232167Y-70654033D01*
X168232170Y-70654035D01*
X168446337Y-70753903D01*
X168674592Y-70815063D01*
X168851034Y-70830500D01*
X168909999Y-70835659D01*
X168910000Y-70835659D01*
X168910001Y-70835659D01*
X168968966Y-70830500D01*
X169145408Y-70815063D01*
X169373663Y-70753903D01*
X169587830Y-70654035D01*
X169781401Y-70518495D01*
X169948495Y-70351401D01*
X170078425Y-70165842D01*
X170133002Y-70122217D01*
X170202500Y-70115023D01*
X170264855Y-70146546D01*
X170281575Y-70165842D01*
X170411500Y-70351395D01*
X170411505Y-70351401D01*
X170578599Y-70518495D01*
X170675384Y-70586265D01*
X170772165Y-70654032D01*
X170772167Y-70654033D01*
X170772170Y-70654035D01*
X170986337Y-70753903D01*
X171214592Y-70815063D01*
X171391034Y-70830500D01*
X171449999Y-70835659D01*
X171450000Y-70835659D01*
X171450001Y-70835659D01*
X171508966Y-70830500D01*
X171685408Y-70815063D01*
X171913663Y-70753903D01*
X172127830Y-70654035D01*
X172321401Y-70518495D01*
X172488495Y-70351401D01*
X172618425Y-70165842D01*
X172673002Y-70122217D01*
X172742500Y-70115023D01*
X172804855Y-70146546D01*
X172821575Y-70165842D01*
X172951500Y-70351395D01*
X172951505Y-70351401D01*
X173118599Y-70518495D01*
X173215384Y-70586265D01*
X173312165Y-70654032D01*
X173312167Y-70654033D01*
X173312170Y-70654035D01*
X173526337Y-70753903D01*
X173754592Y-70815063D01*
X173931034Y-70830500D01*
X173989999Y-70835659D01*
X173990000Y-70835659D01*
X173990001Y-70835659D01*
X174048966Y-70830500D01*
X174225408Y-70815063D01*
X174453663Y-70753903D01*
X174667830Y-70654035D01*
X174861401Y-70518495D01*
X175028495Y-70351401D01*
X175158425Y-70165842D01*
X175213002Y-70122217D01*
X175282500Y-70115023D01*
X175344855Y-70146546D01*
X175361575Y-70165842D01*
X175491500Y-70351395D01*
X175491505Y-70351401D01*
X175658599Y-70518495D01*
X175755384Y-70586265D01*
X175852165Y-70654032D01*
X175852167Y-70654033D01*
X175852170Y-70654035D01*
X176066337Y-70753903D01*
X176294592Y-70815063D01*
X176471034Y-70830500D01*
X176529999Y-70835659D01*
X176530000Y-70835659D01*
X176530001Y-70835659D01*
X176588966Y-70830500D01*
X176765408Y-70815063D01*
X176993663Y-70753903D01*
X177207830Y-70654035D01*
X177401401Y-70518495D01*
X177568495Y-70351401D01*
X177698425Y-70165842D01*
X177753002Y-70122217D01*
X177822500Y-70115023D01*
X177884855Y-70146546D01*
X177901575Y-70165842D01*
X178031500Y-70351395D01*
X178031505Y-70351401D01*
X178198599Y-70518495D01*
X178295384Y-70586265D01*
X178392165Y-70654032D01*
X178392167Y-70654033D01*
X178392170Y-70654035D01*
X178606337Y-70753903D01*
X178834592Y-70815063D01*
X179011034Y-70830500D01*
X179069999Y-70835659D01*
X179070000Y-70835659D01*
X179070001Y-70835659D01*
X179128966Y-70830500D01*
X179305408Y-70815063D01*
X179533663Y-70753903D01*
X179747830Y-70654035D01*
X179941401Y-70518495D01*
X180108495Y-70351401D01*
X180238425Y-70165842D01*
X180293002Y-70122217D01*
X180362500Y-70115023D01*
X180424855Y-70146546D01*
X180441575Y-70165842D01*
X180571500Y-70351395D01*
X180571505Y-70351401D01*
X180738599Y-70518495D01*
X180835384Y-70586265D01*
X180932165Y-70654032D01*
X180932167Y-70654033D01*
X180932170Y-70654035D01*
X181146337Y-70753903D01*
X181374592Y-70815063D01*
X181551034Y-70830500D01*
X181609999Y-70835659D01*
X181610000Y-70835659D01*
X181610001Y-70835659D01*
X181668966Y-70830500D01*
X181845408Y-70815063D01*
X182073663Y-70753903D01*
X182287830Y-70654035D01*
X182481401Y-70518495D01*
X182648495Y-70351401D01*
X182778730Y-70165405D01*
X182833307Y-70121781D01*
X182902805Y-70114587D01*
X182965160Y-70146110D01*
X182981879Y-70165405D01*
X183111890Y-70351078D01*
X183278917Y-70518105D01*
X183472421Y-70653600D01*
X183686507Y-70753429D01*
X183686516Y-70753433D01*
X183900000Y-70810634D01*
X183900000Y-69913012D01*
X183957007Y-69945925D01*
X184084174Y-69980000D01*
X184215826Y-69980000D01*
X184342993Y-69945925D01*
X184400000Y-69913012D01*
X184400000Y-70810633D01*
X184613483Y-70753433D01*
X184613492Y-70753429D01*
X184827578Y-70653600D01*
X185021078Y-70518108D01*
X185143133Y-70396053D01*
X185204456Y-70362568D01*
X185274148Y-70367552D01*
X185330082Y-70409423D01*
X185346997Y-70440401D01*
X185396202Y-70572328D01*
X185396206Y-70572335D01*
X185482452Y-70687544D01*
X185482455Y-70687547D01*
X185597664Y-70773793D01*
X185597671Y-70773797D01*
X185732517Y-70824091D01*
X185732516Y-70824091D01*
X185739444Y-70824835D01*
X185792127Y-70830500D01*
X187587872Y-70830499D01*
X187647483Y-70824091D01*
X187782331Y-70773796D01*
X187897546Y-70687546D01*
X187983796Y-70572331D01*
X188034091Y-70437483D01*
X188040500Y-70377873D01*
X188040499Y-68582128D01*
X188034091Y-68522517D01*
X188033002Y-68519598D01*
X187983797Y-68387671D01*
X187983793Y-68387664D01*
X187897547Y-68272455D01*
X187897544Y-68272452D01*
X187782335Y-68186206D01*
X187782328Y-68186202D01*
X187647482Y-68135908D01*
X187647483Y-68135908D01*
X187587883Y-68129501D01*
X187587881Y-68129500D01*
X187587873Y-68129500D01*
X187587864Y-68129500D01*
X185792129Y-68129500D01*
X185792123Y-68129501D01*
X185732516Y-68135908D01*
X185597671Y-68186202D01*
X185597664Y-68186206D01*
X185482455Y-68272452D01*
X185482452Y-68272455D01*
X185396206Y-68387664D01*
X185396202Y-68387671D01*
X185346997Y-68519598D01*
X185305126Y-68575532D01*
X185239661Y-68599949D01*
X185171388Y-68585097D01*
X185143134Y-68563946D01*
X185021082Y-68441894D01*
X184827578Y-68306399D01*
X184613492Y-68206570D01*
X184613486Y-68206567D01*
X184400000Y-68149364D01*
X184400000Y-69046988D01*
X184342993Y-69014075D01*
X184215826Y-68980000D01*
X184084174Y-68980000D01*
X183957007Y-69014075D01*
X183900000Y-69046988D01*
X183900000Y-68149364D01*
X183899999Y-68149364D01*
X183686513Y-68206567D01*
X183686507Y-68206570D01*
X183472422Y-68306399D01*
X183472420Y-68306400D01*
X183278926Y-68441886D01*
X183278920Y-68441891D01*
X183111891Y-68608920D01*
X183111890Y-68608922D01*
X182981880Y-68794595D01*
X182927303Y-68838219D01*
X182857804Y-68845412D01*
X182795450Y-68813890D01*
X182778730Y-68794594D01*
X182648494Y-68608597D01*
X182481402Y-68441506D01*
X182481395Y-68441501D01*
X182287834Y-68305967D01*
X182287830Y-68305965D01*
X182287828Y-68305964D01*
X182073663Y-68206097D01*
X182073659Y-68206096D01*
X182073655Y-68206094D01*
X181845413Y-68144938D01*
X181845403Y-68144936D01*
X181610001Y-68124341D01*
X181609999Y-68124341D01*
X181374596Y-68144936D01*
X181374586Y-68144938D01*
X181146344Y-68206094D01*
X181146335Y-68206098D01*
X180932171Y-68305964D01*
X180932169Y-68305965D01*
X180738597Y-68441505D01*
X180571505Y-68608597D01*
X180441575Y-68794158D01*
X180386998Y-68837783D01*
X180317500Y-68844977D01*
X180255145Y-68813454D01*
X180238425Y-68794158D01*
X180108494Y-68608597D01*
X179941402Y-68441506D01*
X179941395Y-68441501D01*
X179747834Y-68305967D01*
X179747830Y-68305965D01*
X179747828Y-68305964D01*
X179533663Y-68206097D01*
X179533659Y-68206096D01*
X179533655Y-68206094D01*
X179305413Y-68144938D01*
X179305403Y-68144936D01*
X179070001Y-68124341D01*
X179069999Y-68124341D01*
X178834596Y-68144936D01*
X178834586Y-68144938D01*
X178606344Y-68206094D01*
X178606335Y-68206098D01*
X178392171Y-68305964D01*
X178392169Y-68305965D01*
X178198597Y-68441505D01*
X178031505Y-68608597D01*
X177901575Y-68794158D01*
X177846998Y-68837783D01*
X177777500Y-68844977D01*
X177715145Y-68813454D01*
X177698425Y-68794158D01*
X177568494Y-68608597D01*
X177401402Y-68441506D01*
X177401395Y-68441501D01*
X177207834Y-68305967D01*
X177207830Y-68305965D01*
X177207828Y-68305964D01*
X176993663Y-68206097D01*
X176993659Y-68206096D01*
X176993655Y-68206094D01*
X176765413Y-68144938D01*
X176765403Y-68144936D01*
X176530001Y-68124341D01*
X176529999Y-68124341D01*
X176294596Y-68144936D01*
X176294586Y-68144938D01*
X176066344Y-68206094D01*
X176066335Y-68206098D01*
X175852171Y-68305964D01*
X175852169Y-68305965D01*
X175658597Y-68441505D01*
X175491505Y-68608597D01*
X175361575Y-68794158D01*
X175306998Y-68837783D01*
X175237500Y-68844977D01*
X175175145Y-68813454D01*
X175158425Y-68794158D01*
X175028494Y-68608597D01*
X174861402Y-68441506D01*
X174861395Y-68441501D01*
X174667834Y-68305967D01*
X174667830Y-68305965D01*
X174667828Y-68305964D01*
X174453663Y-68206097D01*
X174453659Y-68206096D01*
X174453655Y-68206094D01*
X174225413Y-68144938D01*
X174225403Y-68144936D01*
X173990001Y-68124341D01*
X173989999Y-68124341D01*
X173754596Y-68144936D01*
X173754586Y-68144938D01*
X173526344Y-68206094D01*
X173526335Y-68206098D01*
X173312171Y-68305964D01*
X173312169Y-68305965D01*
X173118597Y-68441505D01*
X172951505Y-68608597D01*
X172821575Y-68794158D01*
X172766998Y-68837783D01*
X172697500Y-68844977D01*
X172635145Y-68813454D01*
X172618425Y-68794158D01*
X172488494Y-68608597D01*
X172321402Y-68441506D01*
X172321395Y-68441501D01*
X172127834Y-68305967D01*
X172127830Y-68305965D01*
X172127828Y-68305964D01*
X171913663Y-68206097D01*
X171913659Y-68206096D01*
X171913655Y-68206094D01*
X171685413Y-68144938D01*
X171685403Y-68144936D01*
X171450001Y-68124341D01*
X171449999Y-68124341D01*
X171214596Y-68144936D01*
X171214586Y-68144938D01*
X170986344Y-68206094D01*
X170986335Y-68206098D01*
X170772171Y-68305964D01*
X170772169Y-68305965D01*
X170578597Y-68441505D01*
X170411505Y-68608597D01*
X170281575Y-68794158D01*
X170226998Y-68837783D01*
X170157500Y-68844977D01*
X170095145Y-68813454D01*
X170078425Y-68794158D01*
X169948494Y-68608597D01*
X169781402Y-68441506D01*
X169781395Y-68441501D01*
X169587834Y-68305967D01*
X169587830Y-68305965D01*
X169587828Y-68305964D01*
X169373663Y-68206097D01*
X169373659Y-68206096D01*
X169373655Y-68206094D01*
X169145413Y-68144938D01*
X169145403Y-68144936D01*
X168910001Y-68124341D01*
X168909999Y-68124341D01*
X168674596Y-68144936D01*
X168674586Y-68144938D01*
X168446344Y-68206094D01*
X168446335Y-68206098D01*
X168232171Y-68305964D01*
X168232169Y-68305965D01*
X168038597Y-68441505D01*
X167871505Y-68608597D01*
X167735965Y-68802169D01*
X167735964Y-68802171D01*
X167636098Y-69016335D01*
X167636094Y-69016344D01*
X167574938Y-69244586D01*
X167574936Y-69244596D01*
X167554341Y-69479999D01*
X161939344Y-69479999D01*
X161449939Y-69059083D01*
X161446227Y-69055759D01*
X160729553Y-68387453D01*
X160725978Y-68383982D01*
X160036759Y-67687449D01*
X160033326Y-67683838D01*
X159442406Y-67036586D01*
X159372616Y-66960143D01*
X159369337Y-66956402D01*
X158746533Y-66216602D01*
X158738235Y-66206746D01*
X158735111Y-66202878D01*
X158637137Y-66076525D01*
X158190099Y-65500000D01*
X161345065Y-65500000D01*
X161364786Y-65826038D01*
X161423667Y-66147341D01*
X161520835Y-66459164D01*
X161520839Y-66459175D01*
X161654897Y-66757041D01*
X161654898Y-66757043D01*
X161823881Y-67036576D01*
X161971476Y-67224968D01*
X163113708Y-66082736D01*
X163210967Y-66216602D01*
X163333398Y-66339033D01*
X163467262Y-66436290D01*
X162325030Y-67578522D01*
X162325030Y-67578523D01*
X162513423Y-67726118D01*
X162792956Y-67895101D01*
X162792958Y-67895102D01*
X163090824Y-68029160D01*
X163090835Y-68029164D01*
X163402658Y-68126332D01*
X163723961Y-68185213D01*
X164050000Y-68204934D01*
X164376038Y-68185213D01*
X164697341Y-68126332D01*
X165009164Y-68029164D01*
X165009175Y-68029160D01*
X165307041Y-67895102D01*
X165307043Y-67895101D01*
X165586586Y-67726112D01*
X165774968Y-67578523D01*
X165774968Y-67578522D01*
X164632736Y-66436290D01*
X164766602Y-66339033D01*
X164889033Y-66216602D01*
X164986290Y-66082736D01*
X166128522Y-67224968D01*
X166128523Y-67224968D01*
X166276112Y-67036586D01*
X166445101Y-66757043D01*
X166445102Y-66757041D01*
X166579160Y-66459175D01*
X166579164Y-66459164D01*
X166676332Y-66147341D01*
X166735213Y-65826038D01*
X166754934Y-65500000D01*
X166735213Y-65173961D01*
X166676332Y-64852658D01*
X166650574Y-64769997D01*
X167605034Y-64769997D01*
X167605034Y-64770002D01*
X167624858Y-64996599D01*
X167624860Y-64996610D01*
X167683730Y-65216317D01*
X167683735Y-65216331D01*
X167779863Y-65422478D01*
X167830974Y-65495472D01*
X168510000Y-64816446D01*
X168510000Y-64822661D01*
X168537259Y-64924394D01*
X168589920Y-65015606D01*
X168664394Y-65090080D01*
X168755606Y-65142741D01*
X168857339Y-65170000D01*
X168863553Y-65170000D01*
X168184526Y-65849025D01*
X168257513Y-65900132D01*
X168257521Y-65900136D01*
X168463668Y-65996264D01*
X168463682Y-65996269D01*
X168683389Y-66055139D01*
X168683400Y-66055141D01*
X168909998Y-66074966D01*
X168910002Y-66074966D01*
X169136599Y-66055141D01*
X169136610Y-66055139D01*
X169356317Y-65996269D01*
X169356331Y-65996264D01*
X169562478Y-65900136D01*
X169635471Y-65849024D01*
X168956447Y-65170000D01*
X168962661Y-65170000D01*
X169064394Y-65142741D01*
X169155606Y-65090080D01*
X169230080Y-65015606D01*
X169282741Y-64924394D01*
X169310000Y-64822661D01*
X169310000Y-64816447D01*
X169989024Y-65495471D01*
X170040136Y-65422478D01*
X170136264Y-65216331D01*
X170136269Y-65216317D01*
X170195139Y-64996610D01*
X170195141Y-64996599D01*
X170214966Y-64770002D01*
X170214966Y-64769998D01*
X177764532Y-64769998D01*
X177764532Y-64770001D01*
X177784364Y-64996686D01*
X177784366Y-64996697D01*
X177843258Y-65216488D01*
X177843261Y-65216497D01*
X177939431Y-65422732D01*
X177939432Y-65422734D01*
X178069954Y-65609141D01*
X178230858Y-65770045D01*
X178230861Y-65770047D01*
X178417266Y-65900568D01*
X178623504Y-65996739D01*
X178843308Y-66055635D01*
X179005230Y-66069801D01*
X179069998Y-66075468D01*
X179070000Y-66075468D01*
X179070002Y-66075468D01*
X179126673Y-66070509D01*
X179296692Y-66055635D01*
X179516496Y-65996739D01*
X179722734Y-65900568D01*
X179909139Y-65770047D01*
X180070047Y-65609139D01*
X180200568Y-65422734D01*
X180267895Y-65278351D01*
X180314065Y-65225915D01*
X180381259Y-65206763D01*
X180448140Y-65226979D01*
X180492657Y-65278354D01*
X180559864Y-65422480D01*
X180610974Y-65495472D01*
X181290000Y-64816446D01*
X181290000Y-64822661D01*
X181317259Y-64924394D01*
X181369920Y-65015606D01*
X181444394Y-65090080D01*
X181535606Y-65142741D01*
X181637339Y-65170000D01*
X181643553Y-65170000D01*
X180964526Y-65849025D01*
X181037513Y-65900132D01*
X181037521Y-65900136D01*
X181243668Y-65996264D01*
X181243682Y-65996269D01*
X181463389Y-66055139D01*
X181463400Y-66055141D01*
X181689998Y-66074966D01*
X181690002Y-66074966D01*
X181916599Y-66055141D01*
X181916610Y-66055139D01*
X182136317Y-65996269D01*
X182136331Y-65996264D01*
X182342478Y-65900136D01*
X182415471Y-65849024D01*
X181736447Y-65170000D01*
X181742661Y-65170000D01*
X181844394Y-65142741D01*
X181935606Y-65090080D01*
X182010080Y-65015606D01*
X182062741Y-64924394D01*
X182090000Y-64822661D01*
X182090000Y-64816447D01*
X182769024Y-65495471D01*
X182820136Y-65422478D01*
X182916264Y-65216331D01*
X182916269Y-65216317D01*
X182975139Y-64996610D01*
X182975141Y-64996599D01*
X182994966Y-64770002D01*
X182994966Y-64769998D01*
X185384532Y-64769998D01*
X185384532Y-64770001D01*
X185404364Y-64996686D01*
X185404366Y-64996697D01*
X185463258Y-65216488D01*
X185463261Y-65216497D01*
X185559431Y-65422732D01*
X185559432Y-65422734D01*
X185689954Y-65609141D01*
X185850858Y-65770045D01*
X185850861Y-65770047D01*
X186037266Y-65900568D01*
X186243504Y-65996739D01*
X186463308Y-66055635D01*
X186625230Y-66069801D01*
X186689998Y-66075468D01*
X186690000Y-66075468D01*
X186690002Y-66075468D01*
X186746673Y-66070509D01*
X186916692Y-66055635D01*
X187136496Y-65996739D01*
X187342734Y-65900568D01*
X187529139Y-65770047D01*
X187690047Y-65609139D01*
X187766466Y-65500000D01*
X188845065Y-65500000D01*
X188864786Y-65826038D01*
X188923667Y-66147341D01*
X189020835Y-66459164D01*
X189020839Y-66459175D01*
X189154897Y-66757041D01*
X189154898Y-66757043D01*
X189323881Y-67036576D01*
X189471476Y-67224968D01*
X190613708Y-66082736D01*
X190710967Y-66216602D01*
X190833398Y-66339033D01*
X190967262Y-66436290D01*
X189825030Y-67578522D01*
X189825030Y-67578523D01*
X190013423Y-67726118D01*
X190292956Y-67895101D01*
X190292958Y-67895102D01*
X190590824Y-68029160D01*
X190590835Y-68029164D01*
X190902658Y-68126332D01*
X191223961Y-68185213D01*
X191550000Y-68204934D01*
X191876038Y-68185213D01*
X192197341Y-68126332D01*
X192509164Y-68029164D01*
X192509175Y-68029160D01*
X192807041Y-67895102D01*
X192807043Y-67895101D01*
X193086586Y-67726112D01*
X193274968Y-67578523D01*
X193274968Y-67578522D01*
X192132736Y-66436290D01*
X192266602Y-66339033D01*
X192389033Y-66216602D01*
X192486290Y-66082736D01*
X193628522Y-67224968D01*
X193628523Y-67224968D01*
X193776112Y-67036586D01*
X193945101Y-66757043D01*
X193945102Y-66757041D01*
X194079160Y-66459175D01*
X194079164Y-66459164D01*
X194176332Y-66147341D01*
X194235213Y-65826038D01*
X194254934Y-65500000D01*
X194235213Y-65173961D01*
X194176332Y-64852658D01*
X194079164Y-64540835D01*
X194079160Y-64540824D01*
X193945102Y-64242958D01*
X193945101Y-64242956D01*
X193776118Y-63963423D01*
X193628522Y-63775030D01*
X192486290Y-64917262D01*
X192389033Y-64783398D01*
X192266602Y-64660967D01*
X192132736Y-64563709D01*
X193274968Y-63421476D01*
X193086576Y-63273881D01*
X192807043Y-63104898D01*
X192807041Y-63104897D01*
X192509175Y-62970839D01*
X192509164Y-62970835D01*
X192197341Y-62873667D01*
X191876038Y-62814786D01*
X191550000Y-62795065D01*
X191223961Y-62814786D01*
X190902658Y-62873667D01*
X190590835Y-62970835D01*
X190590824Y-62970839D01*
X190292958Y-63104897D01*
X190292956Y-63104898D01*
X190013422Y-63273881D01*
X190013416Y-63273886D01*
X189825030Y-63421474D01*
X189825029Y-63421476D01*
X190967262Y-64563709D01*
X190833398Y-64660967D01*
X190710967Y-64783398D01*
X190613709Y-64917262D01*
X189471476Y-63775029D01*
X189471474Y-63775030D01*
X189323886Y-63963416D01*
X189323881Y-63963422D01*
X189154898Y-64242956D01*
X189154897Y-64242958D01*
X189020839Y-64540824D01*
X189020835Y-64540835D01*
X188923667Y-64852658D01*
X188864786Y-65173961D01*
X188845065Y-65500000D01*
X187766466Y-65500000D01*
X187820568Y-65422734D01*
X187916739Y-65216496D01*
X187975635Y-64996692D01*
X187995468Y-64770000D01*
X187975635Y-64543308D01*
X187916739Y-64323504D01*
X187820568Y-64117266D01*
X187690047Y-63930861D01*
X187690045Y-63930858D01*
X187529141Y-63769954D01*
X187342734Y-63639432D01*
X187342732Y-63639431D01*
X187136497Y-63543261D01*
X187136488Y-63543258D01*
X186916697Y-63484366D01*
X186916693Y-63484365D01*
X186916692Y-63484365D01*
X186916691Y-63484364D01*
X186916686Y-63484364D01*
X186690002Y-63464532D01*
X186689998Y-63464532D01*
X186463313Y-63484364D01*
X186463302Y-63484366D01*
X186243511Y-63543258D01*
X186243502Y-63543261D01*
X186037267Y-63639431D01*
X186037265Y-63639432D01*
X185850858Y-63769954D01*
X185689954Y-63930858D01*
X185559432Y-64117265D01*
X185559431Y-64117267D01*
X185463261Y-64323502D01*
X185463258Y-64323511D01*
X185404366Y-64543302D01*
X185404364Y-64543313D01*
X185384532Y-64769998D01*
X182994966Y-64769998D01*
X182994966Y-64769997D01*
X182975141Y-64543400D01*
X182975139Y-64543389D01*
X182916269Y-64323682D01*
X182916264Y-64323668D01*
X182820136Y-64117521D01*
X182820132Y-64117513D01*
X182769025Y-64044526D01*
X182090000Y-64723551D01*
X182090000Y-64717339D01*
X182062741Y-64615606D01*
X182010080Y-64524394D01*
X181935606Y-64449920D01*
X181844394Y-64397259D01*
X181742661Y-64370000D01*
X181736445Y-64370000D01*
X182415472Y-63690974D01*
X182342478Y-63639863D01*
X182136331Y-63543735D01*
X182136317Y-63543730D01*
X181916610Y-63484860D01*
X181916599Y-63484858D01*
X181690002Y-63465034D01*
X181689998Y-63465034D01*
X181463400Y-63484858D01*
X181463389Y-63484860D01*
X181243682Y-63543730D01*
X181243673Y-63543734D01*
X181037516Y-63639866D01*
X181037512Y-63639868D01*
X180964526Y-63690973D01*
X180964526Y-63690974D01*
X181643553Y-64370000D01*
X181637339Y-64370000D01*
X181535606Y-64397259D01*
X181444394Y-64449920D01*
X181369920Y-64524394D01*
X181317259Y-64615606D01*
X181290000Y-64717339D01*
X181290000Y-64723552D01*
X180610974Y-64044526D01*
X180610973Y-64044526D01*
X180559868Y-64117512D01*
X180559866Y-64117517D01*
X180492657Y-64261646D01*
X180446484Y-64314085D01*
X180379291Y-64333237D01*
X180312410Y-64313021D01*
X180267895Y-64261648D01*
X180200568Y-64117266D01*
X180070047Y-63930861D01*
X180070045Y-63930858D01*
X179909141Y-63769954D01*
X179722734Y-63639432D01*
X179722732Y-63639431D01*
X179516497Y-63543261D01*
X179516488Y-63543258D01*
X179296697Y-63484366D01*
X179296693Y-63484365D01*
X179296692Y-63484365D01*
X179296691Y-63484364D01*
X179296686Y-63484364D01*
X179070002Y-63464532D01*
X179069998Y-63464532D01*
X178843313Y-63484364D01*
X178843302Y-63484366D01*
X178623511Y-63543258D01*
X178623502Y-63543261D01*
X178417267Y-63639431D01*
X178417265Y-63639432D01*
X178230858Y-63769954D01*
X178069954Y-63930858D01*
X177939432Y-64117265D01*
X177939431Y-64117267D01*
X177843261Y-64323502D01*
X177843258Y-64323511D01*
X177784366Y-64543302D01*
X177784364Y-64543313D01*
X177764532Y-64769998D01*
X170214966Y-64769998D01*
X170214966Y-64769997D01*
X170195141Y-64543400D01*
X170195139Y-64543389D01*
X170136269Y-64323682D01*
X170136264Y-64323668D01*
X170040136Y-64117521D01*
X170040132Y-64117513D01*
X169989025Y-64044526D01*
X169310000Y-64723551D01*
X169310000Y-64717339D01*
X169282741Y-64615606D01*
X169230080Y-64524394D01*
X169155606Y-64449920D01*
X169064394Y-64397259D01*
X168962661Y-64370000D01*
X168956445Y-64370000D01*
X169635472Y-63690974D01*
X169562478Y-63639863D01*
X169356331Y-63543735D01*
X169356317Y-63543730D01*
X169136610Y-63484860D01*
X169136599Y-63484858D01*
X168910002Y-63465034D01*
X168909998Y-63465034D01*
X168683400Y-63484858D01*
X168683389Y-63484860D01*
X168463682Y-63543730D01*
X168463673Y-63543734D01*
X168257516Y-63639866D01*
X168257512Y-63639868D01*
X168184526Y-63690973D01*
X168184526Y-63690974D01*
X168863553Y-64370000D01*
X168857339Y-64370000D01*
X168755606Y-64397259D01*
X168664394Y-64449920D01*
X168589920Y-64524394D01*
X168537259Y-64615606D01*
X168510000Y-64717339D01*
X168510000Y-64723552D01*
X167830974Y-64044526D01*
X167830973Y-64044526D01*
X167779868Y-64117512D01*
X167779866Y-64117516D01*
X167683734Y-64323673D01*
X167683730Y-64323682D01*
X167624860Y-64543389D01*
X167624858Y-64543400D01*
X167605034Y-64769997D01*
X166650574Y-64769997D01*
X166579164Y-64540835D01*
X166579160Y-64540824D01*
X166445102Y-64242958D01*
X166445101Y-64242956D01*
X166276118Y-63963423D01*
X166128522Y-63775030D01*
X164986290Y-64917262D01*
X164889033Y-64783398D01*
X164766602Y-64660967D01*
X164632736Y-64563709D01*
X165774968Y-63421476D01*
X165586576Y-63273881D01*
X165307043Y-63104898D01*
X165307041Y-63104897D01*
X165009175Y-62970839D01*
X165009164Y-62970835D01*
X164697341Y-62873667D01*
X164376038Y-62814786D01*
X164050000Y-62795065D01*
X163723961Y-62814786D01*
X163402658Y-62873667D01*
X163090835Y-62970835D01*
X163090824Y-62970839D01*
X162792958Y-63104897D01*
X162792956Y-63104898D01*
X162513422Y-63273881D01*
X162513416Y-63273886D01*
X162325030Y-63421474D01*
X162325029Y-63421476D01*
X163467262Y-64563709D01*
X163333398Y-64660967D01*
X163210967Y-64783398D01*
X163113709Y-64917262D01*
X161971476Y-63775029D01*
X161971474Y-63775030D01*
X161823886Y-63963416D01*
X161823881Y-63963422D01*
X161654898Y-64242956D01*
X161654897Y-64242958D01*
X161520839Y-64540824D01*
X161520835Y-64540835D01*
X161423667Y-64852658D01*
X161364786Y-65173961D01*
X161345065Y-65500000D01*
X158190099Y-65500000D01*
X158134662Y-65428505D01*
X158131713Y-65424541D01*
X157562843Y-64626644D01*
X157560032Y-64622530D01*
X157023678Y-63802425D01*
X157021035Y-63798201D01*
X156518065Y-62957216D01*
X156515594Y-62952889D01*
X156429617Y-62795065D01*
X156046819Y-62092376D01*
X156044525Y-62087955D01*
X155610691Y-61209287D01*
X155608612Y-61204855D01*
X155210419Y-60309442D01*
X155208487Y-60304851D01*
X155141585Y-60136497D01*
X154964150Y-59689997D01*
X167605034Y-59689997D01*
X167605034Y-59690002D01*
X167624858Y-59916599D01*
X167624860Y-59916610D01*
X167683730Y-60136317D01*
X167683735Y-60136331D01*
X167779863Y-60342478D01*
X167830974Y-60415472D01*
X168510000Y-59736446D01*
X168510000Y-59742661D01*
X168537259Y-59844394D01*
X168589920Y-59935606D01*
X168664394Y-60010080D01*
X168755606Y-60062741D01*
X168857339Y-60090000D01*
X168863553Y-60090000D01*
X168184526Y-60769025D01*
X168257513Y-60820132D01*
X168257521Y-60820136D01*
X168463668Y-60916264D01*
X168463682Y-60916269D01*
X168683389Y-60975139D01*
X168683400Y-60975141D01*
X168909998Y-60994966D01*
X168910002Y-60994966D01*
X169136599Y-60975141D01*
X169136610Y-60975139D01*
X169356317Y-60916269D01*
X169356331Y-60916264D01*
X169562478Y-60820136D01*
X169635471Y-60769024D01*
X168956447Y-60090000D01*
X168962661Y-60090000D01*
X169064394Y-60062741D01*
X169155606Y-60010080D01*
X169230080Y-59935606D01*
X169282741Y-59844394D01*
X169310000Y-59742661D01*
X169310000Y-59736447D01*
X169989024Y-60415471D01*
X170040136Y-60342478D01*
X170136264Y-60136331D01*
X170136269Y-60136317D01*
X170195139Y-59916610D01*
X170195141Y-59916599D01*
X170214966Y-59690002D01*
X170214966Y-59689998D01*
X177764532Y-59689998D01*
X177764532Y-59690001D01*
X177784364Y-59916686D01*
X177784366Y-59916697D01*
X177843258Y-60136488D01*
X177843261Y-60136497D01*
X177939431Y-60342732D01*
X177939432Y-60342734D01*
X178069954Y-60529141D01*
X178230858Y-60690045D01*
X178230861Y-60690047D01*
X178417266Y-60820568D01*
X178623504Y-60916739D01*
X178843308Y-60975635D01*
X179005230Y-60989801D01*
X179069998Y-60995468D01*
X179070000Y-60995468D01*
X179070002Y-60995468D01*
X179126673Y-60990509D01*
X179296692Y-60975635D01*
X179516496Y-60916739D01*
X179722734Y-60820568D01*
X179909139Y-60690047D01*
X180070047Y-60529139D01*
X180200568Y-60342734D01*
X180296739Y-60136496D01*
X180355635Y-59916692D01*
X180375468Y-59690000D01*
X180355635Y-59463308D01*
X180296739Y-59243504D01*
X180200568Y-59037266D01*
X180070047Y-58850861D01*
X180070045Y-58850858D01*
X179909141Y-58689954D01*
X179722734Y-58559432D01*
X179722732Y-58559431D01*
X179516497Y-58463261D01*
X179516488Y-58463258D01*
X179437655Y-58442135D01*
X183719500Y-58442135D01*
X183719500Y-60937870D01*
X183719501Y-60937876D01*
X183725908Y-60997483D01*
X183776202Y-61132328D01*
X183776206Y-61132335D01*
X183862452Y-61247544D01*
X183862455Y-61247547D01*
X183977664Y-61333793D01*
X183977671Y-61333797D01*
X184112517Y-61384091D01*
X184112516Y-61384091D01*
X184119444Y-61384835D01*
X184172127Y-61390500D01*
X186667872Y-61390499D01*
X186727483Y-61384091D01*
X186862331Y-61333796D01*
X186977546Y-61247546D01*
X187063796Y-61132331D01*
X187114091Y-60997483D01*
X187120500Y-60937873D01*
X187120499Y-59689995D01*
X196414732Y-59689995D01*
X196414732Y-59690004D01*
X196433777Y-59944154D01*
X196477640Y-60136331D01*
X196490492Y-60192637D01*
X196583607Y-60429888D01*
X196711041Y-60650612D01*
X196869950Y-60849877D01*
X197056783Y-61023232D01*
X197267366Y-61166805D01*
X197267371Y-61166807D01*
X197267372Y-61166808D01*
X197267373Y-61166809D01*
X197389328Y-61225538D01*
X197496992Y-61277387D01*
X197496993Y-61277387D01*
X197496996Y-61277389D01*
X197740542Y-61352513D01*
X197992565Y-61390500D01*
X198247435Y-61390500D01*
X198499458Y-61352513D01*
X198743004Y-61277389D01*
X198972634Y-61166805D01*
X199183217Y-61023232D01*
X199370050Y-60849877D01*
X199528959Y-60650612D01*
X199656393Y-60429888D01*
X199749508Y-60192637D01*
X199806222Y-59944157D01*
X199825268Y-59690000D01*
X199806222Y-59435843D01*
X199749508Y-59187363D01*
X199656393Y-58950112D01*
X199528959Y-58729388D01*
X199370050Y-58530123D01*
X199183217Y-58356768D01*
X198972634Y-58213195D01*
X198972630Y-58213193D01*
X198972627Y-58213191D01*
X198972626Y-58213190D01*
X198743006Y-58102612D01*
X198743008Y-58102612D01*
X198499466Y-58027489D01*
X198499462Y-58027488D01*
X198499458Y-58027487D01*
X198378231Y-58009214D01*
X198247440Y-57989500D01*
X198247435Y-57989500D01*
X197992565Y-57989500D01*
X197992559Y-57989500D01*
X197835609Y-58013157D01*
X197740542Y-58027487D01*
X197740539Y-58027488D01*
X197740533Y-58027489D01*
X197496992Y-58102612D01*
X197267373Y-58213190D01*
X197267372Y-58213191D01*
X197056782Y-58356768D01*
X196869952Y-58530121D01*
X196869950Y-58530123D01*
X196711041Y-58729388D01*
X196583608Y-58950109D01*
X196490492Y-59187362D01*
X196490490Y-59187369D01*
X196433777Y-59435845D01*
X196414732Y-59689995D01*
X187120499Y-59689995D01*
X187120499Y-58442128D01*
X187114091Y-58382517D01*
X187104487Y-58356768D01*
X187063797Y-58247671D01*
X187063793Y-58247664D01*
X186977547Y-58132455D01*
X186977544Y-58132452D01*
X186862335Y-58046206D01*
X186862328Y-58046202D01*
X186727482Y-57995908D01*
X186727483Y-57995908D01*
X186667883Y-57989501D01*
X186667881Y-57989500D01*
X186667873Y-57989500D01*
X186667864Y-57989500D01*
X184172129Y-57989500D01*
X184172123Y-57989501D01*
X184112516Y-57995908D01*
X183977671Y-58046202D01*
X183977664Y-58046206D01*
X183862455Y-58132452D01*
X183862452Y-58132455D01*
X183776206Y-58247664D01*
X183776202Y-58247671D01*
X183725908Y-58382517D01*
X183719501Y-58442116D01*
X183719501Y-58442123D01*
X183719500Y-58442135D01*
X179437655Y-58442135D01*
X179296697Y-58404366D01*
X179296693Y-58404365D01*
X179296692Y-58404365D01*
X179296691Y-58404364D01*
X179296686Y-58404364D01*
X179070002Y-58384532D01*
X179069998Y-58384532D01*
X178843313Y-58404364D01*
X178843302Y-58404366D01*
X178623511Y-58463258D01*
X178623502Y-58463261D01*
X178417267Y-58559431D01*
X178417265Y-58559432D01*
X178230858Y-58689954D01*
X178069954Y-58850858D01*
X177939432Y-59037265D01*
X177939431Y-59037267D01*
X177843261Y-59243502D01*
X177843258Y-59243511D01*
X177784366Y-59463302D01*
X177784364Y-59463313D01*
X177764532Y-59689998D01*
X170214966Y-59689998D01*
X170214966Y-59689997D01*
X170195141Y-59463400D01*
X170195139Y-59463389D01*
X170136269Y-59243682D01*
X170136264Y-59243668D01*
X170040136Y-59037521D01*
X170040132Y-59037513D01*
X169989025Y-58964526D01*
X169310000Y-59643551D01*
X169310000Y-59637339D01*
X169282741Y-59535606D01*
X169230080Y-59444394D01*
X169155606Y-59369920D01*
X169064394Y-59317259D01*
X168962661Y-59290000D01*
X168956445Y-59290000D01*
X169635472Y-58610974D01*
X169562478Y-58559863D01*
X169356331Y-58463735D01*
X169356317Y-58463730D01*
X169136610Y-58404860D01*
X169136599Y-58404858D01*
X168910002Y-58385034D01*
X168909998Y-58385034D01*
X168683400Y-58404858D01*
X168683389Y-58404860D01*
X168463682Y-58463730D01*
X168463673Y-58463734D01*
X168257516Y-58559866D01*
X168257512Y-58559868D01*
X168184526Y-58610973D01*
X168184526Y-58610974D01*
X168863553Y-59290000D01*
X168857339Y-59290000D01*
X168755606Y-59317259D01*
X168664394Y-59369920D01*
X168589920Y-59444394D01*
X168537259Y-59535606D01*
X168510000Y-59637339D01*
X168510000Y-59643552D01*
X167830974Y-58964526D01*
X167830973Y-58964526D01*
X167779868Y-59037512D01*
X167779866Y-59037516D01*
X167683734Y-59243673D01*
X167683730Y-59243682D01*
X167624860Y-59463389D01*
X167624858Y-59463400D01*
X167605034Y-59689997D01*
X154964150Y-59689997D01*
X154846593Y-59394173D01*
X154844861Y-59389543D01*
X154519853Y-58465079D01*
X154518313Y-58460399D01*
X154230698Y-57523594D01*
X154229354Y-57518880D01*
X153979594Y-56571221D01*
X153978437Y-56566439D01*
X153766973Y-55609603D01*
X153766004Y-55604762D01*
X153707373Y-55277585D01*
X164572588Y-55277585D01*
X164572588Y-55450806D01*
X164597742Y-55609627D01*
X164599686Y-55621897D01*
X164653215Y-55786641D01*
X164731856Y-55940984D01*
X164833674Y-56081124D01*
X164956160Y-56203610D01*
X165096300Y-56305428D01*
X165250643Y-56384069D01*
X165415387Y-56437598D01*
X165586477Y-56464696D01*
X165586478Y-56464696D01*
X165759698Y-56464696D01*
X165759699Y-56464696D01*
X165930789Y-56437598D01*
X166095533Y-56384069D01*
X166249876Y-56305428D01*
X166390016Y-56203610D01*
X166512502Y-56081124D01*
X166614320Y-55940984D01*
X166692961Y-55786641D01*
X166746490Y-55621897D01*
X166773588Y-55450807D01*
X166773588Y-55277585D01*
X166746490Y-55106495D01*
X166692961Y-54941751D01*
X166614320Y-54787408D01*
X166512502Y-54647268D01*
X166390016Y-54524782D01*
X166249876Y-54422964D01*
X166095533Y-54344323D01*
X165930789Y-54290794D01*
X165930787Y-54290793D01*
X165930786Y-54290793D01*
X165799359Y-54269977D01*
X165759699Y-54263696D01*
X165586477Y-54263696D01*
X165546816Y-54269977D01*
X165415390Y-54290793D01*
X165250640Y-54344324D01*
X165096299Y-54422964D01*
X165066983Y-54444264D01*
X164956160Y-54524782D01*
X164956158Y-54524784D01*
X164956157Y-54524784D01*
X164833676Y-54647265D01*
X164833676Y-54647266D01*
X164833674Y-54647268D01*
X164789947Y-54707452D01*
X164731856Y-54787407D01*
X164653216Y-54941748D01*
X164599685Y-55106498D01*
X164572588Y-55277585D01*
X153707373Y-55277585D01*
X153593145Y-54640164D01*
X153592367Y-54635250D01*
X153584386Y-54577414D01*
X153458409Y-53664541D01*
X153457829Y-53659607D01*
X153444851Y-53526163D01*
X153380333Y-52862764D01*
X163925536Y-52862764D01*
X163925536Y-53035985D01*
X163949968Y-53190248D01*
X163952634Y-53207076D01*
X164006163Y-53371820D01*
X164084804Y-53526163D01*
X164186622Y-53666303D01*
X164309108Y-53788789D01*
X164449248Y-53890607D01*
X164603591Y-53969248D01*
X164768335Y-54022777D01*
X164939425Y-54049875D01*
X164939426Y-54049875D01*
X165112646Y-54049875D01*
X165112647Y-54049875D01*
X165283737Y-54022777D01*
X165448481Y-53969248D01*
X165602824Y-53890607D01*
X165742964Y-53788789D01*
X165865450Y-53666303D01*
X165967268Y-53526163D01*
X166045909Y-53371820D01*
X166099438Y-53207076D01*
X166126536Y-53035986D01*
X166126536Y-52862764D01*
X166099438Y-52691674D01*
X166045909Y-52526930D01*
X165967268Y-52372587D01*
X165865450Y-52232447D01*
X165742964Y-52109961D01*
X165602824Y-52008143D01*
X165448481Y-51929502D01*
X165283737Y-51875973D01*
X165283735Y-51875972D01*
X165283734Y-51875972D01*
X165152307Y-51855156D01*
X165112647Y-51848875D01*
X164939425Y-51848875D01*
X164899764Y-51855156D01*
X164768338Y-51875972D01*
X164603588Y-51929503D01*
X164449247Y-52008143D01*
X164369292Y-52066234D01*
X164309108Y-52109961D01*
X164309106Y-52109963D01*
X164309105Y-52109963D01*
X164186624Y-52232444D01*
X164186624Y-52232445D01*
X164186622Y-52232447D01*
X164158050Y-52271773D01*
X164084804Y-52372586D01*
X164006164Y-52526927D01*
X163952633Y-52691677D01*
X163925536Y-52862764D01*
X153380333Y-52862764D01*
X153362971Y-52684240D01*
X153362596Y-52679354D01*
X153307002Y-51700965D01*
X153306822Y-51696064D01*
X153298454Y-51191206D01*
X170366193Y-51191206D01*
X170366193Y-51191217D01*
X170373190Y-51257792D01*
X171366886Y-50991532D01*
X171361384Y-51012067D01*
X171361384Y-51170049D01*
X171402273Y-51322649D01*
X171481265Y-51459466D01*
X171496295Y-51474496D01*
X170502599Y-51740756D01*
X170502599Y-51740757D01*
X170529830Y-51801917D01*
X170529833Y-51801922D01*
X170645562Y-51980131D01*
X170645567Y-51980137D01*
X170787754Y-52138047D01*
X170952887Y-52271771D01*
X170952890Y-52271773D01*
X171122964Y-52369964D01*
X171171180Y-52420531D01*
X171184404Y-52489138D01*
X171158436Y-52554003D01*
X171151159Y-52562446D01*
X171026014Y-52695091D01*
X171026010Y-52695096D01*
X170938293Y-52847027D01*
X170887975Y-53015100D01*
X170887974Y-53015106D01*
X170877773Y-53190247D01*
X170877773Y-53190248D01*
X170894229Y-53292230D01*
X170894233Y-53292246D01*
X170894234Y-53292250D01*
X171228747Y-54540668D01*
X171230706Y-54547976D01*
X171267446Y-54644532D01*
X171267451Y-54644541D01*
X171361416Y-54787407D01*
X171363858Y-54791119D01*
X171491469Y-54911515D01*
X171643406Y-54999236D01*
X171811477Y-55049552D01*
X171976420Y-55059159D01*
X171986622Y-55059754D01*
X171986622Y-55059753D01*
X171986623Y-55059754D01*
X172088626Y-55043293D01*
X173827309Y-54577414D01*
X173923878Y-54540668D01*
X174011379Y-54483116D01*
X174070452Y-54444264D01*
X174070454Y-54444262D01*
X174070454Y-54444261D01*
X174070457Y-54444260D01*
X174190853Y-54316649D01*
X174278574Y-54164712D01*
X174328891Y-53996640D01*
X174339092Y-53821495D01*
X174339092Y-53821493D01*
X174322636Y-53719511D01*
X174322632Y-53719495D01*
X174322632Y-53719492D01*
X174050799Y-52704999D01*
X191280863Y-52704999D01*
X191280863Y-52705000D01*
X191301365Y-52926259D01*
X191301366Y-52926261D01*
X191362174Y-53139979D01*
X191362180Y-53139994D01*
X191461222Y-53338896D01*
X191595133Y-53516224D01*
X191747011Y-53654678D01*
X191757845Y-53664555D01*
X191759344Y-53665921D01*
X191759346Y-53665923D01*
X191948266Y-53782897D01*
X191948272Y-53782900D01*
X191977206Y-53794109D01*
X192155472Y-53863170D01*
X192373896Y-53904000D01*
X192373899Y-53904000D01*
X192596101Y-53904000D01*
X192596104Y-53904000D01*
X192814528Y-53863170D01*
X193021730Y-53782899D01*
X193210655Y-53665922D01*
X193374868Y-53516222D01*
X193508778Y-53338896D01*
X193607824Y-53139984D01*
X193615734Y-53112182D01*
X193653013Y-53053089D01*
X193716323Y-53023532D01*
X193785562Y-53032894D01*
X193838749Y-53078204D01*
X193854266Y-53112183D01*
X193862174Y-53139979D01*
X193862180Y-53139994D01*
X193961222Y-53338896D01*
X194095133Y-53516224D01*
X194247011Y-53654678D01*
X194257845Y-53664555D01*
X194259344Y-53665921D01*
X194259346Y-53665923D01*
X194448266Y-53782897D01*
X194448272Y-53782900D01*
X194477206Y-53794109D01*
X194655472Y-53863170D01*
X194873896Y-53904000D01*
X194873899Y-53904000D01*
X195096101Y-53904000D01*
X195096104Y-53904000D01*
X195314528Y-53863170D01*
X195521730Y-53782899D01*
X195710655Y-53665922D01*
X195874868Y-53516222D01*
X196008778Y-53338896D01*
X196107824Y-53139984D01*
X196115734Y-53112182D01*
X196153013Y-53053089D01*
X196216323Y-53023532D01*
X196285562Y-53032894D01*
X196338749Y-53078204D01*
X196354266Y-53112183D01*
X196362174Y-53139979D01*
X196362180Y-53139994D01*
X196461222Y-53338896D01*
X196595133Y-53516224D01*
X196747011Y-53654678D01*
X196757845Y-53664555D01*
X196759344Y-53665921D01*
X196759346Y-53665923D01*
X196948266Y-53782897D01*
X196948272Y-53782900D01*
X196977206Y-53794109D01*
X197155472Y-53863170D01*
X197373896Y-53904000D01*
X197373899Y-53904000D01*
X197596101Y-53904000D01*
X197596104Y-53904000D01*
X197814528Y-53863170D01*
X198021730Y-53782899D01*
X198210655Y-53665922D01*
X198374868Y-53516222D01*
X198508778Y-53338896D01*
X198607824Y-53139984D01*
X198668634Y-52926260D01*
X198689137Y-52705000D01*
X198687902Y-52691677D01*
X198668634Y-52483740D01*
X198668633Y-52483738D01*
X198662952Y-52463772D01*
X198607824Y-52270016D01*
X198589115Y-52232444D01*
X198559548Y-52173065D01*
X198508778Y-52071104D01*
X198426530Y-51962190D01*
X198374866Y-51893775D01*
X198210655Y-51744078D01*
X198210653Y-51744076D01*
X198021733Y-51627102D01*
X198021727Y-51627099D01*
X197877374Y-51571177D01*
X197814528Y-51546830D01*
X197596104Y-51506000D01*
X197373896Y-51506000D01*
X197155472Y-51546830D01*
X197105695Y-51566113D01*
X196948272Y-51627099D01*
X196948266Y-51627102D01*
X196759346Y-51744076D01*
X196759344Y-51744078D01*
X196595133Y-51893775D01*
X196461222Y-52071103D01*
X196362180Y-52270005D01*
X196362175Y-52270018D01*
X196354266Y-52297817D01*
X196316986Y-52356910D01*
X196253676Y-52386467D01*
X196184437Y-52377105D01*
X196131251Y-52331794D01*
X196115734Y-52297817D01*
X196107824Y-52270016D01*
X196089115Y-52232444D01*
X196059548Y-52173065D01*
X196008778Y-52071104D01*
X195926530Y-51962190D01*
X195874866Y-51893775D01*
X195710655Y-51744078D01*
X195710653Y-51744076D01*
X195521733Y-51627102D01*
X195521727Y-51627099D01*
X195377374Y-51571177D01*
X195314528Y-51546830D01*
X195096104Y-51506000D01*
X194873896Y-51506000D01*
X194655472Y-51546830D01*
X194605695Y-51566113D01*
X194448272Y-51627099D01*
X194448266Y-51627102D01*
X194259346Y-51744076D01*
X194259344Y-51744078D01*
X194095133Y-51893775D01*
X193961222Y-52071103D01*
X193862180Y-52270005D01*
X193862175Y-52270018D01*
X193854266Y-52297817D01*
X193816986Y-52356910D01*
X193753676Y-52386467D01*
X193684437Y-52377105D01*
X193631251Y-52331794D01*
X193615734Y-52297817D01*
X193607824Y-52270016D01*
X193589115Y-52232444D01*
X193559548Y-52173065D01*
X193508778Y-52071104D01*
X193426530Y-51962190D01*
X193374866Y-51893775D01*
X193210655Y-51744078D01*
X193210653Y-51744076D01*
X193021733Y-51627102D01*
X193021727Y-51627099D01*
X192877374Y-51571177D01*
X192814528Y-51546830D01*
X192596104Y-51506000D01*
X192373896Y-51506000D01*
X192155472Y-51546830D01*
X192105695Y-51566113D01*
X191948272Y-51627099D01*
X191948266Y-51627102D01*
X191759346Y-51744076D01*
X191759344Y-51744078D01*
X191595133Y-51893775D01*
X191461222Y-52071103D01*
X191362180Y-52270005D01*
X191362174Y-52270020D01*
X191301366Y-52483738D01*
X191301365Y-52483740D01*
X191280863Y-52704999D01*
X174050799Y-52704999D01*
X173986162Y-52463772D01*
X173969708Y-52420531D01*
X173949419Y-52367209D01*
X173949414Y-52367200D01*
X173853008Y-52220623D01*
X173725398Y-52100228D01*
X173725393Y-52100224D01*
X173620466Y-52039644D01*
X173573460Y-52012506D01*
X173573458Y-52012505D01*
X173573456Y-52012504D01*
X173398755Y-51960204D01*
X173340177Y-51922120D01*
X173311488Y-51858412D01*
X173321796Y-51789307D01*
X173326930Y-51779413D01*
X173425120Y-51609342D01*
X173425125Y-51609334D01*
X173501273Y-51410960D01*
X173545453Y-51203110D01*
X173545454Y-51203101D01*
X173556574Y-50990908D01*
X173556574Y-50990901D01*
X173549576Y-50924322D01*
X172555882Y-51190581D01*
X172561384Y-51170049D01*
X172561384Y-51012067D01*
X172520495Y-50859467D01*
X172441503Y-50722650D01*
X172426471Y-50707618D01*
X173420167Y-50441358D01*
X173392939Y-50380203D01*
X173392934Y-50380194D01*
X173277201Y-50201982D01*
X173277196Y-50201975D01*
X173135016Y-50044070D01*
X172969880Y-49910344D01*
X172969877Y-49910342D01*
X172785844Y-49804092D01*
X172587469Y-49727944D01*
X172587472Y-49727944D01*
X172379622Y-49683764D01*
X172379613Y-49683763D01*
X172167420Y-49672643D01*
X172167413Y-49672643D01*
X171956080Y-49694856D01*
X171853459Y-49722353D01*
X172060907Y-50496559D01*
X172040375Y-50491058D01*
X171882393Y-50491058D01*
X171729793Y-50531947D01*
X171592976Y-50610939D01*
X171577944Y-50625970D01*
X171370495Y-49851763D01*
X171267873Y-49879261D01*
X171073738Y-49965696D01*
X170895534Y-50081422D01*
X170895528Y-50081427D01*
X170737618Y-50223614D01*
X170603894Y-50388747D01*
X170603890Y-50388754D01*
X170497643Y-50572779D01*
X170421494Y-50771156D01*
X170377314Y-50979005D01*
X170377313Y-50979014D01*
X170366193Y-51191206D01*
X153298454Y-51191206D01*
X153290581Y-50716227D01*
X153290599Y-50711250D01*
X153293869Y-50572779D01*
X153313734Y-49731605D01*
X153313948Y-49726705D01*
X153376429Y-48748675D01*
X153376839Y-48743804D01*
X153478557Y-47769146D01*
X153479170Y-47764228D01*
X153619962Y-46794452D01*
X153620776Y-46789545D01*
X153800416Y-45826202D01*
X153801411Y-45821401D01*
X154019610Y-44866052D01*
X154020815Y-44861228D01*
X154277208Y-43915460D01*
X154278608Y-43910678D01*
X154572808Y-42975915D01*
X154574361Y-42971307D01*
X154905891Y-42049089D01*
X154907666Y-42044449D01*
X154912743Y-42031931D01*
X155275951Y-41136361D01*
X155277903Y-41131815D01*
X155682384Y-40239233D01*
X155684489Y-40234825D01*
X155799983Y-40004997D01*
X174844723Y-40004997D01*
X174844723Y-40005002D01*
X174863793Y-40222975D01*
X174863793Y-40222979D01*
X174920422Y-40434322D01*
X174920424Y-40434326D01*
X174920425Y-40434330D01*
X174966661Y-40533484D01*
X175012897Y-40632638D01*
X175012898Y-40632639D01*
X175138402Y-40811877D01*
X175293123Y-40966598D01*
X175472361Y-41092102D01*
X175670670Y-41184575D01*
X175882023Y-41241207D01*
X176064926Y-41257208D01*
X176099998Y-41260277D01*
X176100000Y-41260277D01*
X176100002Y-41260277D01*
X176128254Y-41257805D01*
X176317977Y-41241207D01*
X176529330Y-41184575D01*
X176727639Y-41092102D01*
X176906877Y-40966598D01*
X177061598Y-40811877D01*
X177187102Y-40632639D01*
X177279575Y-40434330D01*
X177336207Y-40222977D01*
X177355277Y-40005000D01*
X177355277Y-40004997D01*
X178244723Y-40004997D01*
X178244723Y-40005002D01*
X178263793Y-40222975D01*
X178263793Y-40222979D01*
X178320422Y-40434322D01*
X178320424Y-40434326D01*
X178320425Y-40434330D01*
X178366661Y-40533484D01*
X178412897Y-40632638D01*
X178412898Y-40632639D01*
X178538402Y-40811877D01*
X178693123Y-40966598D01*
X178872361Y-41092102D01*
X179070670Y-41184575D01*
X179282023Y-41241207D01*
X179464926Y-41257208D01*
X179499998Y-41260277D01*
X179500000Y-41260277D01*
X179500002Y-41260277D01*
X179528254Y-41257805D01*
X179717977Y-41241207D01*
X179929330Y-41184575D01*
X180127639Y-41092102D01*
X180306877Y-40966598D01*
X180461598Y-40811877D01*
X180587102Y-40632639D01*
X180679575Y-40434330D01*
X180736207Y-40222977D01*
X180755277Y-40005000D01*
X180736207Y-39787023D01*
X180679575Y-39575670D01*
X180587102Y-39377362D01*
X180587100Y-39377359D01*
X180587099Y-39377357D01*
X180461599Y-39198124D01*
X180461596Y-39198121D01*
X180306877Y-39043402D01*
X180127639Y-38917898D01*
X180127640Y-38917898D01*
X180127638Y-38917897D01*
X180028484Y-38871661D01*
X179929330Y-38825425D01*
X179929326Y-38825424D01*
X179929322Y-38825422D01*
X179717977Y-38768793D01*
X179500002Y-38749723D01*
X179499998Y-38749723D01*
X179354682Y-38762436D01*
X179282023Y-38768793D01*
X179282020Y-38768793D01*
X179070677Y-38825422D01*
X179070668Y-38825426D01*
X178872361Y-38917898D01*
X178872357Y-38917900D01*
X178693121Y-39043402D01*
X178538402Y-39198121D01*
X178412900Y-39377357D01*
X178412898Y-39377361D01*
X178320426Y-39575668D01*
X178320422Y-39575677D01*
X178263793Y-39787020D01*
X178263793Y-39787024D01*
X178244723Y-40004997D01*
X177355277Y-40004997D01*
X177336207Y-39787023D01*
X177279575Y-39575670D01*
X177187102Y-39377362D01*
X177187100Y-39377359D01*
X177187099Y-39377357D01*
X177061599Y-39198124D01*
X177061596Y-39198121D01*
X176906877Y-39043402D01*
X176727639Y-38917898D01*
X176727640Y-38917898D01*
X176727638Y-38917897D01*
X176628484Y-38871661D01*
X176529330Y-38825425D01*
X176529326Y-38825424D01*
X176529322Y-38825422D01*
X176317977Y-38768793D01*
X176100002Y-38749723D01*
X176099998Y-38749723D01*
X175954682Y-38762436D01*
X175882023Y-38768793D01*
X175882020Y-38768793D01*
X175670677Y-38825422D01*
X175670668Y-38825426D01*
X175472361Y-38917898D01*
X175472357Y-38917900D01*
X175293121Y-39043402D01*
X175138402Y-39198121D01*
X175012900Y-39377357D01*
X175012898Y-39377361D01*
X174920426Y-39575668D01*
X174920422Y-39575677D01*
X174863793Y-39787020D01*
X174863793Y-39787024D01*
X174844723Y-40004997D01*
X155799983Y-40004997D01*
X156124521Y-39359182D01*
X156126810Y-39354845D01*
X156601685Y-38497554D01*
X156604136Y-38493333D01*
X157113054Y-37655838D01*
X157115684Y-37651702D01*
X157657820Y-36835357D01*
X157660610Y-36831331D01*
X158235124Y-36037402D01*
X158238102Y-36033456D01*
X158844020Y-35263285D01*
X158847126Y-35259496D01*
X159483515Y-34514267D01*
X159486802Y-34510571D01*
X160152590Y-33791543D01*
X160156043Y-33787962D01*
X160431365Y-33513607D01*
X160850178Y-33096265D01*
X160853738Y-33092857D01*
X161575114Y-32429595D01*
X161578840Y-32426306D01*
X162326272Y-31792569D01*
X162330087Y-31789463D01*
X163102409Y-31186240D01*
X163106328Y-31183304D01*
X163902278Y-30611586D01*
X163906321Y-30608804D01*
X164374886Y-30300000D01*
X175095065Y-30300000D01*
X175114786Y-30626038D01*
X175173667Y-30947341D01*
X175270835Y-31259164D01*
X175270839Y-31259175D01*
X175404897Y-31557041D01*
X175404898Y-31557043D01*
X175573881Y-31836576D01*
X175721476Y-32024968D01*
X176863708Y-30882736D01*
X176960967Y-31016602D01*
X177083398Y-31139033D01*
X177217262Y-31236290D01*
X176075030Y-32378522D01*
X176075030Y-32378523D01*
X176263423Y-32526118D01*
X176542956Y-32695101D01*
X176542958Y-32695102D01*
X176840824Y-32829160D01*
X176840835Y-32829164D01*
X177152658Y-32926332D01*
X177473961Y-32985213D01*
X177800000Y-33004934D01*
X178126038Y-32985213D01*
X178447341Y-32926332D01*
X178759164Y-32829164D01*
X178759175Y-32829160D01*
X179057041Y-32695102D01*
X179057043Y-32695101D01*
X179336586Y-32526112D01*
X179524968Y-32378523D01*
X179524968Y-32378522D01*
X178382736Y-31236290D01*
X178516602Y-31139033D01*
X178639033Y-31016602D01*
X178736290Y-30882736D01*
X179878522Y-32024968D01*
X179878523Y-32024968D01*
X180026112Y-31836586D01*
X180195101Y-31557043D01*
X180195102Y-31557041D01*
X180329160Y-31259175D01*
X180329164Y-31259164D01*
X180426332Y-30947341D01*
X180485213Y-30626038D01*
X180504934Y-30300000D01*
X180485213Y-29973961D01*
X180426332Y-29652658D01*
X180329164Y-29340835D01*
X180329160Y-29340824D01*
X180195102Y-29042958D01*
X180195101Y-29042956D01*
X180026118Y-28763423D01*
X179878522Y-28575030D01*
X178736290Y-29717262D01*
X178639033Y-29583398D01*
X178516602Y-29460967D01*
X178382736Y-29363709D01*
X179524968Y-28221476D01*
X179336576Y-28073881D01*
X179057043Y-27904898D01*
X179057041Y-27904897D01*
X178759175Y-27770839D01*
X178759164Y-27770835D01*
X178447341Y-27673667D01*
X178126038Y-27614786D01*
X177800000Y-27595065D01*
X177473961Y-27614786D01*
X177152658Y-27673667D01*
X176840835Y-27770835D01*
X176840824Y-27770839D01*
X176542958Y-27904897D01*
X176542956Y-27904898D01*
X176263422Y-28073881D01*
X176263416Y-28073886D01*
X176075030Y-28221474D01*
X176075029Y-28221476D01*
X177217262Y-29363709D01*
X177083398Y-29460967D01*
X176960967Y-29583398D01*
X176863709Y-29717262D01*
X175721476Y-28575029D01*
X175721474Y-28575030D01*
X175573886Y-28763416D01*
X175573881Y-28763422D01*
X175404898Y-29042956D01*
X175404897Y-29042958D01*
X175270839Y-29340824D01*
X175270835Y-29340835D01*
X175173667Y-29652658D01*
X175114786Y-29973961D01*
X175095065Y-30300000D01*
X164374886Y-30300000D01*
X164724584Y-30069534D01*
X164728702Y-30066937D01*
X165568019Y-29560946D01*
X165572261Y-29558505D01*
X166431154Y-29086684D01*
X166435515Y-29084401D01*
X167312670Y-28647470D01*
X167317150Y-28645349D01*
X168211143Y-28244013D01*
X168215696Y-28242079D01*
X169125098Y-27876981D01*
X169129707Y-27875237D01*
X170053075Y-27546959D01*
X170057733Y-27545408D01*
X170993511Y-27254503D01*
X170998221Y-27253142D01*
X171944979Y-27000054D01*
X171949778Y-26998874D01*
X172905874Y-26784042D01*
X172910690Y-26783060D01*
X173874688Y-26606806D01*
X173879578Y-26606014D01*
X174849836Y-26468636D01*
X174854702Y-26468046D01*
X175829767Y-26369754D01*
X175834656Y-26369361D01*
X176812868Y-26310322D01*
X176817763Y-26310125D01*
X177797513Y-26290437D01*
X177802489Y-26290437D01*
X178782237Y-26310125D01*
G37*
%TD.AperFunction*%
%TD*%
M02*
