%TF.GenerationSoftware,KiCad,Pcbnew,8.0.7*%
%TF.CreationDate,2025-10-12T21:35:03-07:00*%
%TF.ProjectId,Screen accessory board v1.0,53637265-656e-4206-9163-636573736f72,rev?*%
%TF.SameCoordinates,Original*%
%TF.FileFunction,Copper,L1,Top*%
%TF.FilePolarity,Positive*%
%FSLAX46Y46*%
G04 Gerber Fmt 4.6, Leading zero omitted, Abs format (unit mm)*
G04 Created by KiCad (PCBNEW 8.0.7) date 2025-10-12 21:35:03*
%MOMM*%
%LPD*%
G01*
G04 APERTURE LIST*
G04 Aperture macros list*
%AMRoundRect*
0 Rectangle with rounded corners*
0 $1 Rounding radius*
0 $2 $3 $4 $5 $6 $7 $8 $9 X,Y pos of 4 corners*
0 Add a 4 corners polygon primitive as box body*
4,1,4,$2,$3,$4,$5,$6,$7,$8,$9,$2,$3,0*
0 Add four circle primitives for the rounded corners*
1,1,$1+$1,$2,$3*
1,1,$1+$1,$4,$5*
1,1,$1+$1,$6,$7*
1,1,$1+$1,$8,$9*
0 Add four rect primitives between the rounded corners*
20,1,$1+$1,$2,$3,$4,$5,0*
20,1,$1+$1,$4,$5,$6,$7,0*
20,1,$1+$1,$6,$7,$8,$9,0*
20,1,$1+$1,$8,$9,$2,$3,0*%
%AMHorizOval*
0 Thick line with rounded ends*
0 $1 width*
0 $2 $3 position (X,Y) of the first rounded end (center of the circle)*
0 $4 $5 position (X,Y) of the second rounded end (center of the circle)*
0 Add line between two ends*
20,1,$1,$2,$3,$4,$5,0*
0 Add two circle primitives to create the rounded ends*
1,1,$1,$2,$3*
1,1,$1,$4,$5*%
G04 Aperture macros list end*
%TA.AperFunction,ComponentPad*%
%ADD10C,1.500000*%
%TD*%
%TA.AperFunction,ComponentPad*%
%ADD11HorizOval,1.700000X-0.241481X-0.064705X0.241481X0.064705X0*%
%TD*%
%TA.AperFunction,ComponentPad*%
%ADD12RoundRect,0.250000X0.665746X0.799552X-0.976328X0.359559X-0.665746X-0.799552X0.976328X-0.359559X0*%
%TD*%
%TA.AperFunction,ComponentPad*%
%ADD13C,1.600000*%
%TD*%
%TA.AperFunction,ComponentPad*%
%ADD14O,1.600000X1.600000*%
%TD*%
%TA.AperFunction,ComponentPad*%
%ADD15C,4.400000*%
%TD*%
%TA.AperFunction,ComponentPad*%
%ADD16C,1.397000*%
%TD*%
%TA.AperFunction,ComponentPad*%
%ADD17R,2.400000X2.400000*%
%TD*%
%TA.AperFunction,ComponentPad*%
%ADD18O,2.400000X2.400000*%
%TD*%
%TA.AperFunction,ComponentPad*%
%ADD19R,1.498000X1.498000*%
%TD*%
%TA.AperFunction,ComponentPad*%
%ADD20C,1.498000*%
%TD*%
%TA.AperFunction,ComponentPad*%
%ADD21R,1.700000X1.700000*%
%TD*%
%TA.AperFunction,ComponentPad*%
%ADD22O,1.700000X1.700000*%
%TD*%
%TA.AperFunction,Conductor*%
%ADD23C,0.400000*%
%TD*%
G04 APERTURE END LIST*
D10*
%TO.P,R3,1*%
%TO.N,VCC3V3*%
X179500000Y-40005000D03*
%TO.P,R3,2*%
%TO.N,GPIO17*%
X176100000Y-40005000D03*
%TD*%
D11*
%TO.P,J2,2,Pin_2*%
%TO.N,GND*%
X171961384Y-51091058D03*
D12*
%TO.P,J2,1,Pin_1*%
%TO.N,5V_VCC*%
X172608433Y-53505871D03*
%TD*%
D13*
%TO.P,R2,1*%
%TO.N,GND*%
X168910000Y-59690000D03*
D14*
%TO.P,R2,2*%
%TO.N,GPIO17*%
X179070000Y-59690000D03*
%TD*%
D15*
%TO.P,H3,1,1*%
%TO.N,GND*%
X191550000Y-65500000D03*
%TD*%
D16*
%TO.P,SW2,1,A*%
%TO.N,5V_VCC*%
X192485000Y-52705000D03*
%TO.P,SW2,2,B*%
%TO.N,Net-(D1-A)*%
X194985000Y-52705000D03*
%TO.P,SW2,3,C*%
%TO.N,unconnected-(SW2-C-Pad3)*%
X197485000Y-52705000D03*
%TD*%
D15*
%TO.P,H2,1,1*%
%TO.N,GND*%
X164050000Y-65500000D03*
%TD*%
D13*
%TO.P,C1,1*%
%TO.N,VBUS*%
X186690000Y-64770000D03*
%TO.P,C1,2*%
%TO.N,GND*%
X181690000Y-64770000D03*
%TD*%
D17*
%TO.P,D1,1,K*%
%TO.N,VBUS*%
X185420000Y-59690000D03*
D18*
%TO.P,D1,2,A*%
%TO.N,Net-(D1-A)*%
X198120000Y-59690000D03*
%TD*%
D15*
%TO.P,H1,1,1*%
%TO.N,GND*%
X177800000Y-30300000D03*
%TD*%
D13*
%TO.P,R1,1*%
%TO.N,GND*%
X168910000Y-64770000D03*
D14*
%TO.P,R1,2*%
%TO.N,Net-(R1-Pad2)*%
X179070000Y-64770000D03*
%TD*%
D19*
%TO.P,SW1,1*%
%TO.N,GPIO18*%
X174550000Y-80700000D03*
D20*
%TO.P,SW1,2*%
%TO.N,Net-(R1-Pad2)*%
X181050000Y-80700000D03*
%TO.P,SW1,3*%
%TO.N,unconnected-(SW1-Pad3)*%
X174550000Y-76200000D03*
%TO.P,SW1,4*%
%TO.N,VCC3V3*%
X181050000Y-76200000D03*
%TD*%
D21*
%TO.P,J1,1,Pin_1*%
%TO.N,VBUS*%
X186690000Y-69480000D03*
D22*
%TO.P,J1,2,Pin_2*%
%TO.N,GND*%
X184150000Y-69480000D03*
%TO.P,J1,3,Pin_3*%
%TO.N,VCC3V3*%
X181610000Y-69480000D03*
%TO.P,J1,4,Pin_4*%
%TO.N,U0TXD*%
X179070000Y-69480000D03*
%TO.P,J1,5,Pin_5*%
%TO.N,U0RXD*%
X176530000Y-69480000D03*
%TO.P,J1,6,Pin_6*%
%TO.N,GPIO16*%
X173990000Y-69480000D03*
%TO.P,J1,7,Pin_7*%
%TO.N,GPIO17*%
X171450000Y-69480000D03*
%TO.P,J1,8,Pin_8*%
%TO.N,GPIO18*%
X168910000Y-69480000D03*
%TD*%
D23*
%TO.N,GPIO17*%
X179070000Y-59690000D02*
X177130000Y-57750000D01*
X177130000Y-57750000D02*
X170145000Y-57750000D01*
X170145000Y-57750000D02*
X168275000Y-55880000D01*
X168275000Y-47830000D02*
X176100000Y-40005000D01*
X168275000Y-55880000D02*
X168275000Y-47830000D01*
%TO.N,VCC3V3*%
X179500000Y-40005000D02*
X178230000Y-41275000D01*
X168875000Y-55631472D02*
X170393528Y-57150000D01*
X170393528Y-57150000D02*
X178435000Y-57150000D01*
X180340000Y-68210000D02*
X181610000Y-69480000D01*
X175678528Y-41275000D02*
X168875000Y-48078528D01*
X168875000Y-48078528D02*
X168875000Y-55631472D01*
X178230000Y-41275000D02*
X175678528Y-41275000D01*
X178435000Y-57150000D02*
X180340000Y-59055000D01*
X180340000Y-59055000D02*
X180340000Y-68210000D01*
X181610000Y-69850000D02*
X181050000Y-70410000D01*
X181270000Y-69480000D02*
X181610000Y-69480000D01*
X181050000Y-70410000D02*
X181050000Y-76200000D01*
X181610000Y-69480000D02*
X181610000Y-69850000D01*
%TO.N,GPIO17*%
X171450000Y-69480000D02*
X171450000Y-67310000D01*
X171450000Y-67310000D02*
X179070000Y-59690000D01*
%TO.N,GPIO18*%
X173410000Y-80700000D02*
X174550000Y-80700000D01*
X172720000Y-80010000D02*
X173410000Y-80700000D01*
X172720000Y-72886489D02*
X172720000Y-80010000D01*
X168910000Y-69480000D02*
X169313511Y-69480000D01*
X169313511Y-69480000D02*
X172720000Y-72886489D01*
%TO.N,Net-(R1-Pad2)*%
X178490000Y-80700000D02*
X177800000Y-80010000D01*
X177800000Y-80010000D02*
X177800000Y-66040000D01*
X181050000Y-80700000D02*
X178490000Y-80700000D01*
X177800000Y-66040000D02*
X179070000Y-64770000D01*
%TD*%
%TA.AperFunction,Conductor*%
%TO.N,VBUS*%
G36*
X187601061Y-57150597D02*
G01*
X187777941Y-57168018D01*
X187801769Y-57172757D01*
X187966001Y-57222576D01*
X187988453Y-57231877D01*
X188139798Y-57312772D01*
X188160010Y-57326277D01*
X188292666Y-57435145D01*
X188309854Y-57452333D01*
X188418722Y-57584989D01*
X188432227Y-57605201D01*
X188513121Y-57756543D01*
X188522424Y-57779001D01*
X188572240Y-57943224D01*
X188576982Y-57967065D01*
X188594403Y-58143938D01*
X188595000Y-58156092D01*
X188595000Y-70748907D01*
X188594403Y-70761061D01*
X188576982Y-70937934D01*
X188572240Y-70961775D01*
X188522424Y-71125998D01*
X188513121Y-71148456D01*
X188432227Y-71299798D01*
X188418722Y-71320010D01*
X188309854Y-71452666D01*
X188292666Y-71469854D01*
X188160010Y-71578722D01*
X188139798Y-71592227D01*
X187988456Y-71673121D01*
X187965998Y-71682424D01*
X187801775Y-71732240D01*
X187777934Y-71736982D01*
X187601061Y-71754403D01*
X187588907Y-71755000D01*
X186553093Y-71755000D01*
X186540939Y-71754403D01*
X186364065Y-71736982D01*
X186340224Y-71732240D01*
X186176001Y-71682424D01*
X186153543Y-71673121D01*
X186002201Y-71592227D01*
X185981989Y-71578722D01*
X185849333Y-71469854D01*
X185832145Y-71452666D01*
X185723277Y-71320010D01*
X185709772Y-71299798D01*
X185628878Y-71148456D01*
X185619575Y-71125998D01*
X185574437Y-70977195D01*
X185573814Y-70907328D01*
X185611063Y-70848215D01*
X185674357Y-70818624D01*
X185724600Y-70823799D01*
X185725070Y-70821813D01*
X185732627Y-70823598D01*
X185792155Y-70829999D01*
X185792172Y-70830000D01*
X186440000Y-70830000D01*
X186440000Y-69913012D01*
X186497007Y-69945925D01*
X186624174Y-69980000D01*
X186755826Y-69980000D01*
X186882993Y-69945925D01*
X186940000Y-69913012D01*
X186940000Y-70830000D01*
X187587828Y-70830000D01*
X187587844Y-70829999D01*
X187647372Y-70823598D01*
X187647379Y-70823596D01*
X187782086Y-70773354D01*
X187782093Y-70773350D01*
X187897187Y-70687190D01*
X187897190Y-70687187D01*
X187983350Y-70572093D01*
X187983354Y-70572086D01*
X188033596Y-70437379D01*
X188033598Y-70437372D01*
X188039999Y-70377844D01*
X188040000Y-70377827D01*
X188040000Y-69730000D01*
X187123012Y-69730000D01*
X187155925Y-69672993D01*
X187190000Y-69545826D01*
X187190000Y-69414174D01*
X187155925Y-69287007D01*
X187123012Y-69230000D01*
X188040000Y-69230000D01*
X188040000Y-68582172D01*
X188039999Y-68582155D01*
X188033598Y-68522627D01*
X188033596Y-68522620D01*
X187983354Y-68387913D01*
X187983350Y-68387906D01*
X187897190Y-68272812D01*
X187897187Y-68272809D01*
X187782093Y-68186649D01*
X187782086Y-68186645D01*
X187647379Y-68136403D01*
X187647372Y-68136401D01*
X187587844Y-68130000D01*
X186940000Y-68130000D01*
X186940000Y-69046988D01*
X186882993Y-69014075D01*
X186755826Y-68980000D01*
X186624174Y-68980000D01*
X186497007Y-69014075D01*
X186440000Y-69046988D01*
X186440000Y-68130000D01*
X185792155Y-68130000D01*
X185732627Y-68136401D01*
X185732617Y-68136403D01*
X185714330Y-68143224D01*
X185644638Y-68148206D01*
X185583316Y-68114719D01*
X185549833Y-68053395D01*
X185547000Y-68027041D01*
X185547000Y-67724217D01*
X185547000Y-67724214D01*
X185547000Y-67310000D01*
X185254106Y-67017106D01*
X185254102Y-67017101D01*
X183177202Y-64940202D01*
X183169030Y-64931186D01*
X183056278Y-64793798D01*
X183042773Y-64773587D01*
X183040854Y-64769997D01*
X185385034Y-64769997D01*
X185385034Y-64770000D01*
X185404858Y-64996599D01*
X185404860Y-64996610D01*
X185463730Y-65216317D01*
X185463735Y-65216331D01*
X185559863Y-65422478D01*
X185610974Y-65495472D01*
X186290000Y-64816446D01*
X186290000Y-64822661D01*
X186317259Y-64924394D01*
X186369920Y-65015606D01*
X186444394Y-65090080D01*
X186535606Y-65142741D01*
X186637339Y-65170000D01*
X186643552Y-65170000D01*
X185964526Y-65849025D01*
X186037513Y-65900132D01*
X186037521Y-65900136D01*
X186243668Y-65996264D01*
X186243682Y-65996269D01*
X186463389Y-66055139D01*
X186463400Y-66055141D01*
X186689998Y-66074966D01*
X186690002Y-66074966D01*
X186916599Y-66055141D01*
X186916610Y-66055139D01*
X186957345Y-66044225D01*
X186989438Y-66040000D01*
X187960000Y-66040000D01*
X187960000Y-65069436D01*
X187964225Y-65037342D01*
X187975140Y-64996606D01*
X187975141Y-64996599D01*
X187994966Y-64770000D01*
X187994966Y-64769997D01*
X187975141Y-64543400D01*
X187975139Y-64543389D01*
X187916269Y-64323682D01*
X187916264Y-64323668D01*
X187820136Y-64117521D01*
X187820132Y-64117513D01*
X187769025Y-64044526D01*
X187090000Y-64723553D01*
X187090000Y-64717339D01*
X187062741Y-64615606D01*
X187010080Y-64524394D01*
X186935606Y-64449920D01*
X186844394Y-64397259D01*
X186742661Y-64370000D01*
X186736445Y-64370000D01*
X187415472Y-63690974D01*
X187342478Y-63639863D01*
X187136331Y-63543735D01*
X187136317Y-63543730D01*
X186916610Y-63484860D01*
X186916599Y-63484858D01*
X186690002Y-63465034D01*
X186689998Y-63465034D01*
X186463400Y-63484858D01*
X186463389Y-63484860D01*
X186243682Y-63543730D01*
X186243673Y-63543734D01*
X186037516Y-63639866D01*
X186037512Y-63639868D01*
X185964526Y-63690973D01*
X185964526Y-63690974D01*
X186643553Y-64370000D01*
X186637339Y-64370000D01*
X186535606Y-64397259D01*
X186444394Y-64449920D01*
X186369920Y-64524394D01*
X186317259Y-64615606D01*
X186290000Y-64717339D01*
X186290000Y-64723552D01*
X185610974Y-64044526D01*
X185610973Y-64044526D01*
X185559868Y-64117512D01*
X185559866Y-64117516D01*
X185463734Y-64323673D01*
X185463730Y-64323682D01*
X185404860Y-64543389D01*
X185404858Y-64543400D01*
X185385034Y-64769997D01*
X183040854Y-64769997D01*
X182998540Y-64690833D01*
X182984374Y-64643197D01*
X182975635Y-64543308D01*
X182939592Y-64408793D01*
X182916741Y-64323511D01*
X182916740Y-64323510D01*
X182916739Y-64323504D01*
X182891618Y-64269632D01*
X182880000Y-64217227D01*
X182880000Y-58442155D01*
X183720000Y-58442155D01*
X183720000Y-59440000D01*
X184871518Y-59440000D01*
X184860889Y-59458409D01*
X184820000Y-59611009D01*
X184820000Y-59768991D01*
X184860889Y-59921591D01*
X184871518Y-59940000D01*
X183720000Y-59940000D01*
X183720000Y-60937844D01*
X183726401Y-60997372D01*
X183726403Y-60997379D01*
X183776645Y-61132086D01*
X183776649Y-61132093D01*
X183862809Y-61247187D01*
X183862812Y-61247190D01*
X183977906Y-61333350D01*
X183977913Y-61333354D01*
X184112620Y-61383596D01*
X184112627Y-61383598D01*
X184172155Y-61389999D01*
X184172172Y-61390000D01*
X185170000Y-61390000D01*
X185170000Y-60238482D01*
X185188409Y-60249111D01*
X185341009Y-60290000D01*
X185498991Y-60290000D01*
X185651591Y-60249111D01*
X185670000Y-60238482D01*
X185670000Y-61390000D01*
X186667828Y-61390000D01*
X186667844Y-61389999D01*
X186727372Y-61383598D01*
X186727379Y-61383596D01*
X186862086Y-61333354D01*
X186862093Y-61333350D01*
X186977187Y-61247190D01*
X186977190Y-61247187D01*
X187063350Y-61132093D01*
X187063354Y-61132086D01*
X187113596Y-60997379D01*
X187113598Y-60997372D01*
X187119999Y-60937844D01*
X187120000Y-60937827D01*
X187120000Y-59940000D01*
X185968482Y-59940000D01*
X185979111Y-59921591D01*
X186020000Y-59768991D01*
X186020000Y-59611009D01*
X185979111Y-59458409D01*
X185968482Y-59440000D01*
X187120000Y-59440000D01*
X187120000Y-58442172D01*
X187119999Y-58442155D01*
X187113598Y-58382627D01*
X187113596Y-58382620D01*
X187063354Y-58247913D01*
X187063350Y-58247906D01*
X186977190Y-58132812D01*
X186977187Y-58132809D01*
X186862093Y-58046649D01*
X186862086Y-58046645D01*
X186727379Y-57996403D01*
X186727372Y-57996401D01*
X186667844Y-57990000D01*
X185670000Y-57990000D01*
X185670000Y-59141517D01*
X185651591Y-59130889D01*
X185498991Y-59090000D01*
X185341009Y-59090000D01*
X185188409Y-59130889D01*
X185170000Y-59141517D01*
X185170000Y-57990000D01*
X184172155Y-57990000D01*
X184112627Y-57996401D01*
X184112620Y-57996403D01*
X183977913Y-58046645D01*
X183977906Y-58046649D01*
X183862812Y-58132809D01*
X183862809Y-58132812D01*
X183776649Y-58247906D01*
X183776645Y-58247913D01*
X183726403Y-58382620D01*
X183726401Y-58382627D01*
X183720000Y-58442155D01*
X182880000Y-58442155D01*
X182880000Y-58156092D01*
X182880597Y-58143938D01*
X182890179Y-58046649D01*
X182898018Y-57967056D01*
X182902757Y-57943232D01*
X182952577Y-57778994D01*
X182961875Y-57756549D01*
X183042775Y-57605195D01*
X183056272Y-57584995D01*
X183165149Y-57452328D01*
X183182328Y-57435149D01*
X183314995Y-57326272D01*
X183335195Y-57312775D01*
X183486549Y-57231875D01*
X183508994Y-57222577D01*
X183673232Y-57172757D01*
X183697056Y-57168018D01*
X183873939Y-57150597D01*
X183886093Y-57150000D01*
X187588907Y-57150000D01*
X187601061Y-57150597D01*
G37*
%TD.AperFunction*%
%TD*%
%TA.AperFunction,Conductor*%
%TO.N,5V_VCC*%
G36*
X193062061Y-50800597D02*
G01*
X193238941Y-50818018D01*
X193262769Y-50822757D01*
X193427001Y-50872576D01*
X193449453Y-50881877D01*
X193543435Y-50932111D01*
X193600798Y-50962772D01*
X193621008Y-50976276D01*
X193633461Y-50986495D01*
X193635282Y-50987990D01*
X193674614Y-51045737D01*
X193676483Y-51115582D01*
X193662977Y-51147581D01*
X193656539Y-51158322D01*
X193575648Y-51309660D01*
X193575640Y-51309677D01*
X193567110Y-51327714D01*
X193567018Y-51327908D01*
X193557731Y-51350323D01*
X193557713Y-51350369D01*
X193550928Y-51369331D01*
X193550923Y-51369343D01*
X193501110Y-51533559D01*
X193501101Y-51533593D01*
X193496206Y-51553137D01*
X193496204Y-51553147D01*
X193491467Y-51576962D01*
X193491466Y-51576973D01*
X193488508Y-51596902D01*
X193488505Y-51596924D01*
X193480416Y-51679065D01*
X193472684Y-51757570D01*
X193471086Y-51773791D01*
X193470345Y-51783838D01*
X193469747Y-51796004D01*
X193469500Y-51806092D01*
X193469500Y-52022691D01*
X193449815Y-52089730D01*
X193433181Y-52110372D01*
X192922647Y-52620905D01*
X192899208Y-52533429D01*
X192840689Y-52432070D01*
X192757930Y-52349311D01*
X192656571Y-52290792D01*
X192569094Y-52267352D01*
X193137237Y-51699208D01*
X193137236Y-51699207D01*
X193021509Y-51627552D01*
X193021503Y-51627549D01*
X192814392Y-51547315D01*
X192596055Y-51506500D01*
X192373945Y-51506500D01*
X192155607Y-51547315D01*
X191948495Y-51627550D01*
X191832761Y-51699208D01*
X192400906Y-52267352D01*
X192313429Y-52290792D01*
X192212070Y-52349311D01*
X192129311Y-52432070D01*
X192070792Y-52533429D01*
X192047352Y-52620905D01*
X191477210Y-52050762D01*
X191461651Y-52071367D01*
X191461646Y-52071374D01*
X191362649Y-52270186D01*
X191362643Y-52270201D01*
X191301860Y-52483831D01*
X191301859Y-52483833D01*
X191281366Y-52704999D01*
X191281366Y-52705000D01*
X191301859Y-52926166D01*
X191301860Y-52926168D01*
X191362643Y-53139798D01*
X191362649Y-53139813D01*
X191461646Y-53338626D01*
X191461651Y-53338634D01*
X191477209Y-53359235D01*
X192047352Y-52789093D01*
X192070792Y-52876571D01*
X192129311Y-52977930D01*
X192212070Y-53060689D01*
X192313429Y-53119208D01*
X192400905Y-53142647D01*
X191832761Y-53710790D01*
X191832762Y-53710791D01*
X191948490Y-53782447D01*
X191948496Y-53782450D01*
X192155607Y-53862684D01*
X192373945Y-53903500D01*
X192596055Y-53903500D01*
X192814392Y-53862684D01*
X193021505Y-53782449D01*
X193021506Y-53782448D01*
X193137237Y-53710790D01*
X192569095Y-53142647D01*
X192656571Y-53119208D01*
X192757930Y-53060689D01*
X192840689Y-52977930D01*
X192899208Y-52876571D01*
X192922647Y-52789094D01*
X193433181Y-53299627D01*
X193466666Y-53360950D01*
X193469500Y-53387308D01*
X193469500Y-54432566D01*
X193449815Y-54499605D01*
X193397011Y-54545360D01*
X193381495Y-54551227D01*
X193262775Y-54587240D01*
X193238934Y-54591982D01*
X193062061Y-54609403D01*
X193049907Y-54610000D01*
X175895000Y-54610000D01*
X175602112Y-54902887D01*
X175602101Y-54902897D01*
X174922202Y-55582797D01*
X174913186Y-55590969D01*
X174775797Y-55703722D01*
X174755585Y-55717227D01*
X174604243Y-55798121D01*
X174581785Y-55807424D01*
X174417562Y-55857240D01*
X174393721Y-55861982D01*
X174216847Y-55879403D01*
X174204693Y-55880000D01*
X171186093Y-55880000D01*
X171173939Y-55879403D01*
X170997065Y-55861982D01*
X170973224Y-55857240D01*
X170809001Y-55807424D01*
X170786543Y-55798121D01*
X170635201Y-55717227D01*
X170614989Y-55703722D01*
X170482333Y-55594854D01*
X170465145Y-55577666D01*
X170356277Y-55445010D01*
X170342772Y-55424798D01*
X170261878Y-55273456D01*
X170252575Y-55250998D01*
X170202757Y-55086769D01*
X170198018Y-55062941D01*
X170180597Y-54886061D01*
X170180000Y-54873907D01*
X170180000Y-51806092D01*
X170180597Y-51793938D01*
X170188550Y-51713187D01*
X170198018Y-51617056D01*
X170202757Y-51593232D01*
X170252577Y-51428994D01*
X170261875Y-51406549D01*
X170342775Y-51255195D01*
X170356272Y-51234995D01*
X170449902Y-51120906D01*
X170507647Y-51081574D01*
X170577491Y-51079703D01*
X170637259Y-51115891D01*
X170667975Y-51178646D01*
X170669488Y-51191463D01*
X170678418Y-51327708D01*
X170678418Y-51327710D01*
X170678419Y-51327714D01*
X170714401Y-51461998D01*
X170731978Y-51527596D01*
X170823499Y-51713183D01*
X170823502Y-51713187D01*
X170949468Y-51877348D01*
X170949475Y-51877355D01*
X171105046Y-52013788D01*
X171105047Y-52013788D01*
X171105050Y-52013791D01*
X171284258Y-52117256D01*
X171356386Y-52141740D01*
X171466495Y-52179117D01*
X171523650Y-52219305D01*
X171550003Y-52284015D01*
X171537189Y-52352699D01*
X171489275Y-52403552D01*
X171458732Y-52416310D01*
X171389735Y-52434798D01*
X171389713Y-52434805D01*
X171293211Y-52471524D01*
X171146732Y-52567866D01*
X171026417Y-52695392D01*
X171026413Y-52695397D01*
X170938755Y-52847226D01*
X170888471Y-53015186D01*
X170888470Y-53015192D01*
X170878275Y-53190217D01*
X170894724Y-53292144D01*
X170894726Y-53292154D01*
X170998247Y-53678498D01*
X172013934Y-53406346D01*
X172008433Y-53426880D01*
X172008433Y-53584862D01*
X172049322Y-53737462D01*
X172128314Y-53874279D01*
X172143343Y-53889308D01*
X171127656Y-54161462D01*
X171231179Y-54547812D01*
X171267903Y-54644320D01*
X171364240Y-54790793D01*
X171364241Y-54790794D01*
X171491768Y-54911110D01*
X171643604Y-54998772D01*
X171811562Y-55049056D01*
X171811568Y-55049057D01*
X171986589Y-55059251D01*
X172088521Y-55042803D01*
X172088526Y-55042802D01*
X172716356Y-54874574D01*
X172508908Y-54100369D01*
X172529442Y-54105871D01*
X172687424Y-54105871D01*
X172840024Y-54064982D01*
X172976841Y-53985990D01*
X172991871Y-53970959D01*
X173199320Y-54745164D01*
X173827144Y-54576939D01*
X173827152Y-54576936D01*
X173923654Y-54540217D01*
X174070133Y-54443875D01*
X174190448Y-54316349D01*
X174190452Y-54316344D01*
X174278110Y-54164515D01*
X174328394Y-53996555D01*
X174328395Y-53996549D01*
X174338590Y-53821524D01*
X174322141Y-53719598D01*
X174322138Y-53719582D01*
X174218617Y-53333242D01*
X173202931Y-53605393D01*
X173208433Y-53584862D01*
X173208433Y-53426880D01*
X173167544Y-53274280D01*
X173088552Y-53137463D01*
X173073520Y-53122431D01*
X174089208Y-52850278D01*
X173985687Y-52463931D01*
X173948962Y-52367421D01*
X173852625Y-52220948D01*
X173852624Y-52220947D01*
X173725097Y-52100631D01*
X173573261Y-52012969D01*
X173405303Y-51962685D01*
X173405297Y-51962684D01*
X173230276Y-51952490D01*
X173128344Y-51968938D01*
X173128334Y-51968940D01*
X173059322Y-51987432D01*
X172989472Y-51985769D01*
X172931610Y-51946606D01*
X172904106Y-51882378D01*
X172915693Y-51813475D01*
X172934001Y-51785898D01*
X172997770Y-51713184D01*
X173060893Y-51641206D01*
X173164358Y-51461998D01*
X173209943Y-51327708D01*
X173230871Y-51266056D01*
X173230873Y-51266049D01*
X173234961Y-51234995D01*
X173257883Y-51060890D01*
X173251452Y-50962772D01*
X173249442Y-50932111D01*
X173264699Y-50863927D01*
X173314397Y-50814817D01*
X173373176Y-50800000D01*
X193049907Y-50800000D01*
X193062061Y-50800597D01*
G37*
%TD.AperFunction*%
%TD*%
%TA.AperFunction,Conductor*%
%TO.N,Net-(D1-A)*%
G36*
X202248999Y-50819685D02*
G01*
X202294754Y-50872489D01*
X202305943Y-50926055D01*
X202293180Y-51696026D01*
X202292997Y-51701006D01*
X202237408Y-52679314D01*
X202237026Y-52684282D01*
X202142172Y-53659608D01*
X202141590Y-53664556D01*
X202007634Y-54635251D01*
X202006854Y-54640173D01*
X201834001Y-55604741D01*
X201833023Y-55609627D01*
X201621571Y-56566409D01*
X201620399Y-56571252D01*
X201370657Y-57518843D01*
X201369290Y-57523634D01*
X201081697Y-58460372D01*
X201080139Y-58465105D01*
X200755146Y-59389525D01*
X200753400Y-59394192D01*
X200391514Y-60304851D01*
X200389581Y-60309444D01*
X199991407Y-61204816D01*
X199989291Y-61209327D01*
X199555476Y-62087956D01*
X199553181Y-62092379D01*
X199167521Y-62800320D01*
X199118164Y-62849774D01*
X199058630Y-62865000D01*
X197905307Y-62865000D01*
X197893153Y-62864403D01*
X197716278Y-62846982D01*
X197692437Y-62842240D01*
X197528214Y-62792424D01*
X197505756Y-62783121D01*
X197354414Y-62702227D01*
X197334202Y-62688722D01*
X197196813Y-62575969D01*
X197187797Y-62567797D01*
X194060000Y-59440000D01*
X196433968Y-59440000D01*
X197571518Y-59440000D01*
X197560889Y-59458409D01*
X197520000Y-59611009D01*
X197520000Y-59768991D01*
X197560889Y-59921591D01*
X197571518Y-59940000D01*
X196433968Y-59940000D01*
X196434274Y-59944079D01*
X196434275Y-59944086D01*
X196490967Y-60192475D01*
X196490973Y-60192494D01*
X196584058Y-60429671D01*
X196584057Y-60429671D01*
X196711455Y-60650328D01*
X196870320Y-60849540D01*
X197057097Y-61022842D01*
X197267616Y-61166371D01*
X197267624Y-61166376D01*
X197497176Y-61276921D01*
X197497174Y-61276921D01*
X197740652Y-61352024D01*
X197740660Y-61352026D01*
X197870000Y-61371520D01*
X197870000Y-60238482D01*
X197888409Y-60249111D01*
X198041009Y-60290000D01*
X198198991Y-60290000D01*
X198351591Y-60249111D01*
X198370000Y-60238482D01*
X198370000Y-61371519D01*
X198499339Y-61352026D01*
X198499347Y-61352024D01*
X198742824Y-61276921D01*
X198972376Y-61166376D01*
X198972377Y-61166375D01*
X199182905Y-61022840D01*
X199369679Y-60849540D01*
X199528544Y-60650328D01*
X199655941Y-60429671D01*
X199749026Y-60192494D01*
X199749032Y-60192475D01*
X199805724Y-59944086D01*
X199805725Y-59944079D01*
X199806032Y-59940000D01*
X198668482Y-59940000D01*
X198679111Y-59921591D01*
X198720000Y-59768991D01*
X198720000Y-59611009D01*
X198679111Y-59458409D01*
X198668482Y-59440000D01*
X199806031Y-59440000D01*
X199805725Y-59435920D01*
X199805724Y-59435913D01*
X199749032Y-59187524D01*
X199749026Y-59187505D01*
X199655941Y-58950328D01*
X199655942Y-58950328D01*
X199528544Y-58729671D01*
X199369679Y-58530459D01*
X199182905Y-58357159D01*
X198972377Y-58213624D01*
X198972376Y-58213623D01*
X198742823Y-58103078D01*
X198742825Y-58103078D01*
X198499354Y-58027977D01*
X198499348Y-58027976D01*
X198370000Y-58008479D01*
X198370000Y-59141517D01*
X198351591Y-59130889D01*
X198198991Y-59090000D01*
X198041009Y-59090000D01*
X197888409Y-59130889D01*
X197870000Y-59141517D01*
X197870000Y-58008479D01*
X197740651Y-58027976D01*
X197740645Y-58027977D01*
X197497175Y-58103078D01*
X197267624Y-58213623D01*
X197267616Y-58213628D01*
X197057097Y-58357157D01*
X196870320Y-58530459D01*
X196711455Y-58729671D01*
X196584058Y-58950328D01*
X196490973Y-59187505D01*
X196490967Y-59187524D01*
X196434275Y-59435913D01*
X196434274Y-59435920D01*
X196433968Y-59440000D01*
X194060000Y-59440000D01*
X193972202Y-59352202D01*
X193964030Y-59343186D01*
X193888686Y-59251380D01*
X193851275Y-59205795D01*
X193837772Y-59185585D01*
X193756878Y-59034243D01*
X193747575Y-59011785D01*
X193697757Y-58847556D01*
X193693018Y-58823728D01*
X193675597Y-58646847D01*
X193675000Y-58634693D01*
X193675000Y-53290177D01*
X193694685Y-53223138D01*
X193747489Y-53177383D01*
X193816647Y-53167439D01*
X193880203Y-53196464D01*
X193910000Y-53234906D01*
X193961644Y-53338622D01*
X193961651Y-53338634D01*
X193977209Y-53359235D01*
X194547352Y-52789093D01*
X194570792Y-52876571D01*
X194629311Y-52977930D01*
X194712070Y-53060689D01*
X194813429Y-53119208D01*
X194900905Y-53142647D01*
X194332761Y-53710790D01*
X194332762Y-53710791D01*
X194448490Y-53782447D01*
X194448496Y-53782450D01*
X194655607Y-53862684D01*
X194873945Y-53903500D01*
X195096055Y-53903500D01*
X195314392Y-53862684D01*
X195521505Y-53782449D01*
X195521506Y-53782448D01*
X195637237Y-53710790D01*
X195069095Y-53142647D01*
X195156571Y-53119208D01*
X195257930Y-53060689D01*
X195340689Y-52977930D01*
X195399208Y-52876571D01*
X195422647Y-52789094D01*
X195992788Y-53359235D01*
X195992789Y-53359235D01*
X196008349Y-53338632D01*
X196008350Y-53338629D01*
X196107350Y-53139813D01*
X196107356Y-53139798D01*
X196168139Y-52926168D01*
X196168140Y-52926166D01*
X196188634Y-52705000D01*
X196581048Y-52705000D01*
X196600802Y-52892943D01*
X196600803Y-52892946D01*
X196659199Y-53072671D01*
X196659200Y-53072673D01*
X196753684Y-53236326D01*
X196753685Y-53236328D01*
X196753687Y-53236330D01*
X196880138Y-53376767D01*
X196880141Y-53376769D01*
X197033019Y-53487842D01*
X197033020Y-53487842D01*
X197033024Y-53487845D01*
X197173817Y-53550530D01*
X197205658Y-53564707D01*
X197205663Y-53564709D01*
X197390511Y-53604000D01*
X197579489Y-53604000D01*
X197764337Y-53564709D01*
X197936976Y-53487845D01*
X198089862Y-53376767D01*
X198216313Y-53236330D01*
X198310801Y-53072670D01*
X198369198Y-52892942D01*
X198388952Y-52705000D01*
X198369198Y-52517058D01*
X198310801Y-52337330D01*
X198256774Y-52243752D01*
X198216315Y-52173673D01*
X198216314Y-52173672D01*
X198216313Y-52173670D01*
X198089862Y-52033233D01*
X198089858Y-52033230D01*
X197936980Y-51922157D01*
X197936977Y-51922155D01*
X197936976Y-51922155D01*
X197866637Y-51890838D01*
X197764341Y-51845292D01*
X197764336Y-51845290D01*
X197579489Y-51806000D01*
X197390511Y-51806000D01*
X197205663Y-51845290D01*
X197205658Y-51845292D01*
X197033024Y-51922155D01*
X197033019Y-51922157D01*
X196880141Y-52033230D01*
X196880138Y-52033232D01*
X196880138Y-52033233D01*
X196816912Y-52103451D01*
X196753684Y-52173673D01*
X196659200Y-52337326D01*
X196659199Y-52337328D01*
X196600803Y-52517053D01*
X196600802Y-52517056D01*
X196581048Y-52705000D01*
X196188634Y-52705000D01*
X196188634Y-52704999D01*
X196168140Y-52483833D01*
X196168139Y-52483831D01*
X196107356Y-52270201D01*
X196107350Y-52270186D01*
X196008351Y-52071370D01*
X196008349Y-52071367D01*
X195992788Y-52050762D01*
X195422647Y-52620904D01*
X195399208Y-52533429D01*
X195340689Y-52432070D01*
X195257930Y-52349311D01*
X195156571Y-52290792D01*
X195069094Y-52267352D01*
X195637237Y-51699208D01*
X195637236Y-51699207D01*
X195521509Y-51627552D01*
X195521503Y-51627549D01*
X195314392Y-51547315D01*
X195096055Y-51506500D01*
X194873945Y-51506500D01*
X194655607Y-51547315D01*
X194448495Y-51627550D01*
X194332761Y-51699208D01*
X194900906Y-52267352D01*
X194813429Y-52290792D01*
X194712070Y-52349311D01*
X194629311Y-52432070D01*
X194570792Y-52533429D01*
X194547352Y-52620905D01*
X193977210Y-52050762D01*
X193961651Y-52071367D01*
X193961646Y-52071374D01*
X193910000Y-52175094D01*
X193862497Y-52226331D01*
X193794834Y-52243752D01*
X193728494Y-52221826D01*
X193684539Y-52167515D01*
X193675000Y-52119822D01*
X193675000Y-51806092D01*
X193675597Y-51793938D01*
X193684927Y-51699207D01*
X193693018Y-51617056D01*
X193697757Y-51593232D01*
X193747577Y-51428994D01*
X193756875Y-51406549D01*
X193837775Y-51255195D01*
X193851272Y-51234995D01*
X193960149Y-51102328D01*
X193977328Y-51085149D01*
X194109995Y-50976272D01*
X194130195Y-50962775D01*
X194281549Y-50881875D01*
X194303994Y-50872577D01*
X194468232Y-50822757D01*
X194492056Y-50818018D01*
X194668939Y-50800597D01*
X194681093Y-50800000D01*
X202181960Y-50800000D01*
X202248999Y-50819685D01*
G37*
%TD.AperFunction*%
%TD*%
M02*
