M48
; DRILL file {KiCad 8.0.7} date 2025-07-29T20:25:41-0700
; FORMAT={-:-/ absolute / inch / decimal}
; #@! TF.CreationDate,2025-07-29T20:25:41-07:00
; #@! TF.GenerationSoftware,Kicad,Pcbnew,8.0.7
; #@! TF.FileFunction,Plated,1,2,PTH
FMAT,2
INCH
; #@! TA.AperFunction,Plated,PTH,ComponentDrill
T1C0.0315
; #@! TA.AperFunction,Plated,PTH,ComponentDrill
T2C0.0330
; #@! TA.AperFunction,Plated,PTH,ComponentDrill
T3C0.0350
; #@! TA.AperFunction,Plated,PTH,ComponentDrill
T4C0.0394
; #@! TA.AperFunction,Plated,PTH,ComponentDrill
T5C0.0433
; #@! TA.AperFunction,Plated,PTH,ComponentDrill
T6C0.0472
; #@! TA.AperFunction,Plated,PTH,ComponentDrill
T7C0.0587
; #@! TA.AperFunction,Plated,PTH,ComponentDrill
T8C0.1260
%
G90
G05
T1
X5.45Y-1.54
X5.45Y-1.94
X5.45Y-2.035
X5.45Y-2.435
T2
X5.4813Y-2.65
X5.4813Y-2.7287
X5.4813Y-2.8075
X5.4813Y-2.8862
X5.4813Y-2.965
X5.4813Y-3.0437
X5.4813Y-3.1224
X5.4813Y-3.2012
X5.56Y-2.65
X5.56Y-2.7287
X5.56Y-2.8075
X5.56Y-2.8862
X5.56Y-2.965
X5.56Y-3.0437
X5.56Y-3.1224
X5.56Y-3.2012
T3
X5.4131Y-1.39
X5.5116Y-1.39
X5.61Y-1.39
T4
X4.74Y-2.93
X4.74Y-3.03
X4.74Y-3.13
T5
X5.6Y-1.71
X5.6Y-1.81
X5.6Y-1.91
X5.6Y-2.19
X5.6Y-2.29
X5.6Y-2.39
T6
X4.92Y-2.9473
X5.0184Y-2.9473
X5.1966Y-2.9473
X5.295Y-2.9473
T7
X4.7843Y-1.3002
X4.7843Y-1.4573
X4.7843Y-1.6144
X4.7843Y-1.7715
X4.7843Y-1.9285
X4.7843Y-2.0856
X4.7843Y-2.2427
X4.7843Y-2.3998
X5.1Y-1.3
X5.1Y-1.4571
X5.1Y-1.6142
X5.1Y-1.7713
X5.1Y-1.9283
X5.1Y-2.0854
X5.1Y-2.2425
X5.1Y-2.3996
T8
X5.6074Y-1.1176
M30
