%TF.GenerationSoftware,KiCad,Pcbnew,8.0.7*%
%TF.CreationDate,2025-07-29T20:25:38-07:00*%
%TF.ProjectId,V2.7-Connector-board,56322e37-2d43-46f6-9e6e-6563746f722d,rev?*%
%TF.SameCoordinates,Original*%
%TF.FileFunction,Legend,Bot*%
%TF.FilePolarity,Positive*%
%FSLAX46Y46*%
G04 Gerber Fmt 4.6, Leading zero omitted, Abs format (unit mm)*
G04 Created by KiCad (PCBNEW 8.0.7) date 2025-07-29 20:25:38*
%MOMM*%
%LPD*%
G01*
G04 APERTURE LIST*
%ADD10C,0.150000*%
%ADD11C,0.508000*%
%ADD12C,0.200000*%
%ADD13C,0.120000*%
G04 APERTURE END LIST*
D10*
X143125601Y-67814819D02*
X142935125Y-67814819D01*
X142935125Y-67814819D02*
X142839887Y-67767200D01*
X142839887Y-67767200D02*
X142792268Y-67719580D01*
X142792268Y-67719580D02*
X142697030Y-67576723D01*
X142697030Y-67576723D02*
X142649411Y-67386247D01*
X142649411Y-67386247D02*
X142649411Y-67005295D01*
X142649411Y-67005295D02*
X142697030Y-66910057D01*
X142697030Y-66910057D02*
X142744649Y-66862438D01*
X142744649Y-66862438D02*
X142839887Y-66814819D01*
X142839887Y-66814819D02*
X143030363Y-66814819D01*
X143030363Y-66814819D02*
X143125601Y-66862438D01*
X143125601Y-66862438D02*
X143173220Y-66910057D01*
X143173220Y-66910057D02*
X143220839Y-67005295D01*
X143220839Y-67005295D02*
X143220839Y-67243390D01*
X143220839Y-67243390D02*
X143173220Y-67338628D01*
X143173220Y-67338628D02*
X143125601Y-67386247D01*
X143125601Y-67386247D02*
X143030363Y-67433866D01*
X143030363Y-67433866D02*
X142839887Y-67433866D01*
X142839887Y-67433866D02*
X142744649Y-67386247D01*
X142744649Y-67386247D02*
X142697030Y-67338628D01*
X142697030Y-67338628D02*
X142649411Y-67243390D01*
X142649411Y-83181819D02*
X143220839Y-83181819D01*
X142935125Y-83181819D02*
X142935125Y-82181819D01*
X142935125Y-82181819D02*
X143030363Y-82324676D01*
X143030363Y-82324676D02*
X143125601Y-82419914D01*
X143125601Y-82419914D02*
X143220839Y-82467533D01*
X141792268Y-82181819D02*
X141982744Y-82181819D01*
X141982744Y-82181819D02*
X142077982Y-82229438D01*
X142077982Y-82229438D02*
X142125601Y-82277057D01*
X142125601Y-82277057D02*
X142220839Y-82419914D01*
X142220839Y-82419914D02*
X142268458Y-82610390D01*
X142268458Y-82610390D02*
X142268458Y-82991342D01*
X142268458Y-82991342D02*
X142220839Y-83086580D01*
X142220839Y-83086580D02*
X142173220Y-83134200D01*
X142173220Y-83134200D02*
X142077982Y-83181819D01*
X142077982Y-83181819D02*
X141887506Y-83181819D01*
X141887506Y-83181819D02*
X141792268Y-83134200D01*
X141792268Y-83134200D02*
X141744649Y-83086580D01*
X141744649Y-83086580D02*
X141697030Y-82991342D01*
X141697030Y-82991342D02*
X141697030Y-82753247D01*
X141697030Y-82753247D02*
X141744649Y-82658009D01*
X141744649Y-82658009D02*
X141792268Y-82610390D01*
X141792268Y-82610390D02*
X141887506Y-82562771D01*
X141887506Y-82562771D02*
X142077982Y-82562771D01*
X142077982Y-82562771D02*
X142173220Y-82610390D01*
X142173220Y-82610390D02*
X142220839Y-82658009D01*
X142220839Y-82658009D02*
X142268458Y-82753247D01*
X133124411Y-84705819D02*
X133695839Y-84705819D01*
X133410125Y-84705819D02*
X133410125Y-83705819D01*
X133410125Y-83705819D02*
X133505363Y-83848676D01*
X133505363Y-83848676D02*
X133600601Y-83943914D01*
X133600601Y-83943914D02*
X133695839Y-83991533D01*
X132743458Y-83801057D02*
X132695839Y-83753438D01*
X132695839Y-83753438D02*
X132600601Y-83705819D01*
X132600601Y-83705819D02*
X132362506Y-83705819D01*
X132362506Y-83705819D02*
X132267268Y-83753438D01*
X132267268Y-83753438D02*
X132219649Y-83801057D01*
X132219649Y-83801057D02*
X132172030Y-83896295D01*
X132172030Y-83896295D02*
X132172030Y-83991533D01*
X132172030Y-83991533D02*
X132219649Y-84134390D01*
X132219649Y-84134390D02*
X132791077Y-84705819D01*
X132791077Y-84705819D02*
X132172030Y-84705819D01*
X131886315Y-83705819D02*
X131552982Y-84705819D01*
X131552982Y-84705819D02*
X131219649Y-83705819D01*
X127838030Y-83705819D02*
X128314220Y-83705819D01*
X128314220Y-83705819D02*
X128361839Y-84182009D01*
X128361839Y-84182009D02*
X128314220Y-84134390D01*
X128314220Y-84134390D02*
X128218982Y-84086771D01*
X128218982Y-84086771D02*
X127980887Y-84086771D01*
X127980887Y-84086771D02*
X127885649Y-84134390D01*
X127885649Y-84134390D02*
X127838030Y-84182009D01*
X127838030Y-84182009D02*
X127790411Y-84277247D01*
X127790411Y-84277247D02*
X127790411Y-84515342D01*
X127790411Y-84515342D02*
X127838030Y-84610580D01*
X127838030Y-84610580D02*
X127885649Y-84658200D01*
X127885649Y-84658200D02*
X127980887Y-84705819D01*
X127980887Y-84705819D02*
X128218982Y-84705819D01*
X128218982Y-84705819D02*
X128314220Y-84658200D01*
X128314220Y-84658200D02*
X128361839Y-84610580D01*
X127504696Y-83705819D02*
X127171363Y-84705819D01*
X127171363Y-84705819D02*
X126838030Y-83705819D01*
X137823363Y-67116390D02*
X137918601Y-67068771D01*
X137918601Y-67068771D02*
X137966220Y-67021152D01*
X137966220Y-67021152D02*
X138013839Y-66925914D01*
X138013839Y-66925914D02*
X138013839Y-66878295D01*
X138013839Y-66878295D02*
X137966220Y-66783057D01*
X137966220Y-66783057D02*
X137918601Y-66735438D01*
X137918601Y-66735438D02*
X137823363Y-66687819D01*
X137823363Y-66687819D02*
X137632887Y-66687819D01*
X137632887Y-66687819D02*
X137537649Y-66735438D01*
X137537649Y-66735438D02*
X137490030Y-66783057D01*
X137490030Y-66783057D02*
X137442411Y-66878295D01*
X137442411Y-66878295D02*
X137442411Y-66925914D01*
X137442411Y-66925914D02*
X137490030Y-67021152D01*
X137490030Y-67021152D02*
X137537649Y-67068771D01*
X137537649Y-67068771D02*
X137632887Y-67116390D01*
X137632887Y-67116390D02*
X137823363Y-67116390D01*
X137823363Y-67116390D02*
X137918601Y-67164009D01*
X137918601Y-67164009D02*
X137966220Y-67211628D01*
X137966220Y-67211628D02*
X138013839Y-67306866D01*
X138013839Y-67306866D02*
X138013839Y-67497342D01*
X138013839Y-67497342D02*
X137966220Y-67592580D01*
X137966220Y-67592580D02*
X137918601Y-67640200D01*
X137918601Y-67640200D02*
X137823363Y-67687819D01*
X137823363Y-67687819D02*
X137632887Y-67687819D01*
X137632887Y-67687819D02*
X137537649Y-67640200D01*
X137537649Y-67640200D02*
X137490030Y-67592580D01*
X137490030Y-67592580D02*
X137442411Y-67497342D01*
X137442411Y-67497342D02*
X137442411Y-67306866D01*
X137442411Y-67306866D02*
X137490030Y-67211628D01*
X137490030Y-67211628D02*
X137537649Y-67164009D01*
X137537649Y-67164009D02*
X137632887Y-67116390D01*
X115903333Y-69812819D02*
X115903333Y-70527104D01*
X115903333Y-70527104D02*
X115950952Y-70669961D01*
X115950952Y-70669961D02*
X116046190Y-70765200D01*
X116046190Y-70765200D02*
X116189047Y-70812819D01*
X116189047Y-70812819D02*
X116284285Y-70812819D01*
X115474761Y-69908057D02*
X115427142Y-69860438D01*
X115427142Y-69860438D02*
X115331904Y-69812819D01*
X115331904Y-69812819D02*
X115093809Y-69812819D01*
X115093809Y-69812819D02*
X114998571Y-69860438D01*
X114998571Y-69860438D02*
X114950952Y-69908057D01*
X114950952Y-69908057D02*
X114903333Y-70003295D01*
X114903333Y-70003295D02*
X114903333Y-70098533D01*
X114903333Y-70098533D02*
X114950952Y-70241390D01*
X114950952Y-70241390D02*
X115522380Y-70812819D01*
X115522380Y-70812819D02*
X114903333Y-70812819D01*
D11*
%TO.C,J1*%
X139604999Y-84076301D02*
G75*
G02*
X138842999Y-84076301I-381000J0D01*
G01*
X138842999Y-84076301D02*
G75*
G02*
X139604999Y-84076301I381000J0D01*
G01*
D12*
%TO.C,J2*%
X114657134Y-27717280D02*
X114657134Y-66257280D01*
X117157134Y-68757280D02*
X133907134Y-68757280D01*
D13*
X119143780Y-65641160D02*
X119143780Y-28188160D01*
X131843780Y-31490160D02*
X119143780Y-28188160D01*
X131843780Y-31490160D02*
X131843780Y-62339160D01*
X131843780Y-62339160D02*
X119143780Y-65641160D01*
D12*
X133907134Y-25217280D02*
X117157134Y-25217280D01*
X136407134Y-66257280D02*
X136407134Y-27717280D01*
X114657134Y-27717280D02*
G75*
G02*
X117157134Y-25217280I2500000J0D01*
G01*
X117157134Y-68757280D02*
G75*
G02*
X114657140Y-66257280I66J2500060D01*
G01*
X133907134Y-25217280D02*
G75*
G02*
X136407134Y-27717280I0J-2500000D01*
G01*
X136407134Y-66257280D02*
G75*
G02*
X133907134Y-68757284I-2500074J70D01*
G01*
%TD*%
M02*
