%TF.GenerationSoftware,KiCad,Pcbnew,8.0.7*%
%TF.CreationDate,2025-07-29T20:25:38-07:00*%
%TF.ProjectId,V2.7-Connector-board,56322e37-2d43-46f6-9e6e-6563746f722d,rev?*%
%TF.SameCoordinates,Original*%
%TF.FileFunction,Legend,Top*%
%TF.FilePolarity,Positive*%
%FSLAX46Y46*%
G04 Gerber Fmt 4.6, Leading zero omitted, Abs format (unit mm)*
G04 Created by KiCad (PCBNEW 8.0.7) date 2025-07-29 20:25:38*
%MOMM*%
%LPD*%
G01*
G04 APERTURE LIST*
%ADD10C,0.150000*%
%ADD11C,0.120000*%
%ADD12C,0.152400*%
%ADD13C,0.508000*%
G04 APERTURE END LIST*
D10*
X119478588Y-61464819D02*
X118907160Y-61464819D01*
X119192874Y-61464819D02*
X119192874Y-60464819D01*
X119192874Y-60464819D02*
X119097636Y-60607676D01*
X119097636Y-60607676D02*
X119002398Y-60702914D01*
X119002398Y-60702914D02*
X118907160Y-60750533D01*
X132178588Y-33524819D02*
X131607160Y-33524819D01*
X131892874Y-33524819D02*
X131892874Y-32524819D01*
X131892874Y-32524819D02*
X131797636Y-32667676D01*
X131797636Y-32667676D02*
X131702398Y-32762914D01*
X131702398Y-32762914D02*
X131607160Y-32810533D01*
X133035731Y-32524819D02*
X132845255Y-32524819D01*
X132845255Y-32524819D02*
X132750017Y-32572438D01*
X132750017Y-32572438D02*
X132702398Y-32620057D01*
X132702398Y-32620057D02*
X132607160Y-32762914D01*
X132607160Y-32762914D02*
X132559541Y-32953390D01*
X132559541Y-32953390D02*
X132559541Y-33334342D01*
X132559541Y-33334342D02*
X132607160Y-33429580D01*
X132607160Y-33429580D02*
X132654779Y-33477200D01*
X132654779Y-33477200D02*
X132750017Y-33524819D01*
X132750017Y-33524819D02*
X132940493Y-33524819D01*
X132940493Y-33524819D02*
X133035731Y-33477200D01*
X133035731Y-33477200D02*
X133083350Y-33429580D01*
X133083350Y-33429580D02*
X133130969Y-33334342D01*
X133130969Y-33334342D02*
X133130969Y-33096247D01*
X133130969Y-33096247D02*
X133083350Y-33001009D01*
X133083350Y-33001009D02*
X133035731Y-32953390D01*
X133035731Y-32953390D02*
X132940493Y-32905771D01*
X132940493Y-32905771D02*
X132750017Y-32905771D01*
X132750017Y-32905771D02*
X132654779Y-32953390D01*
X132654779Y-32953390D02*
X132607160Y-33001009D01*
X132607160Y-33001009D02*
X132559541Y-33096247D01*
X119097636Y-32953390D02*
X119002398Y-32905771D01*
X119002398Y-32905771D02*
X118954779Y-32858152D01*
X118954779Y-32858152D02*
X118907160Y-32762914D01*
X118907160Y-32762914D02*
X118907160Y-32715295D01*
X118907160Y-32715295D02*
X118954779Y-32620057D01*
X118954779Y-32620057D02*
X119002398Y-32572438D01*
X119002398Y-32572438D02*
X119097636Y-32524819D01*
X119097636Y-32524819D02*
X119288112Y-32524819D01*
X119288112Y-32524819D02*
X119383350Y-32572438D01*
X119383350Y-32572438D02*
X119430969Y-32620057D01*
X119430969Y-32620057D02*
X119478588Y-32715295D01*
X119478588Y-32715295D02*
X119478588Y-32762914D01*
X119478588Y-32762914D02*
X119430969Y-32858152D01*
X119430969Y-32858152D02*
X119383350Y-32905771D01*
X119383350Y-32905771D02*
X119288112Y-32953390D01*
X119288112Y-32953390D02*
X119097636Y-32953390D01*
X119097636Y-32953390D02*
X119002398Y-33001009D01*
X119002398Y-33001009D02*
X118954779Y-33048628D01*
X118954779Y-33048628D02*
X118907160Y-33143866D01*
X118907160Y-33143866D02*
X118907160Y-33334342D01*
X118907160Y-33334342D02*
X118954779Y-33429580D01*
X118954779Y-33429580D02*
X119002398Y-33477200D01*
X119002398Y-33477200D02*
X119097636Y-33524819D01*
X119097636Y-33524819D02*
X119288112Y-33524819D01*
X119288112Y-33524819D02*
X119383350Y-33477200D01*
X119383350Y-33477200D02*
X119430969Y-33429580D01*
X119430969Y-33429580D02*
X119478588Y-33334342D01*
X119478588Y-33334342D02*
X119478588Y-33143866D01*
X119478588Y-33143866D02*
X119430969Y-33048628D01*
X119430969Y-33048628D02*
X119383350Y-33001009D01*
X119383350Y-33001009D02*
X119288112Y-32953390D01*
X117217819Y-58146792D02*
X116741628Y-58480125D01*
X117217819Y-58718220D02*
X116217819Y-58718220D01*
X116217819Y-58718220D02*
X116217819Y-58337268D01*
X116217819Y-58337268D02*
X116265438Y-58242030D01*
X116265438Y-58242030D02*
X116313057Y-58194411D01*
X116313057Y-58194411D02*
X116408295Y-58146792D01*
X116408295Y-58146792D02*
X116551152Y-58146792D01*
X116551152Y-58146792D02*
X116646390Y-58194411D01*
X116646390Y-58194411D02*
X116694009Y-58242030D01*
X116694009Y-58242030D02*
X116741628Y-58337268D01*
X116741628Y-58337268D02*
X116741628Y-58718220D01*
X116217819Y-57242030D02*
X116217819Y-57718220D01*
X116217819Y-57718220D02*
X116694009Y-57765839D01*
X116694009Y-57765839D02*
X116646390Y-57718220D01*
X116646390Y-57718220D02*
X116598771Y-57622982D01*
X116598771Y-57622982D02*
X116598771Y-57384887D01*
X116598771Y-57384887D02*
X116646390Y-57289649D01*
X116646390Y-57289649D02*
X116694009Y-57242030D01*
X116694009Y-57242030D02*
X116789247Y-57194411D01*
X116789247Y-57194411D02*
X117027342Y-57194411D01*
X117027342Y-57194411D02*
X117122580Y-57242030D01*
X117122580Y-57242030D02*
X117170200Y-57289649D01*
X117170200Y-57289649D02*
X117217819Y-57384887D01*
X117217819Y-57384887D02*
X117217819Y-57622982D01*
X117217819Y-57622982D02*
X117170200Y-57718220D01*
X117170200Y-57718220D02*
X117122580Y-57765839D01*
X116217819Y-56337268D02*
X116217819Y-56527744D01*
X116217819Y-56527744D02*
X116265438Y-56622982D01*
X116265438Y-56622982D02*
X116313057Y-56670601D01*
X116313057Y-56670601D02*
X116455914Y-56765839D01*
X116455914Y-56765839D02*
X116646390Y-56813458D01*
X116646390Y-56813458D02*
X117027342Y-56813458D01*
X117027342Y-56813458D02*
X117122580Y-56765839D01*
X117122580Y-56765839D02*
X117170200Y-56718220D01*
X117170200Y-56718220D02*
X117217819Y-56622982D01*
X117217819Y-56622982D02*
X117217819Y-56432506D01*
X117217819Y-56432506D02*
X117170200Y-56337268D01*
X117170200Y-56337268D02*
X117122580Y-56289649D01*
X117122580Y-56289649D02*
X117027342Y-56242030D01*
X117027342Y-56242030D02*
X116789247Y-56242030D01*
X116789247Y-56242030D02*
X116694009Y-56289649D01*
X116694009Y-56289649D02*
X116646390Y-56337268D01*
X116646390Y-56337268D02*
X116598771Y-56432506D01*
X116598771Y-56432506D02*
X116598771Y-56622982D01*
X116598771Y-56622982D02*
X116646390Y-56718220D01*
X116646390Y-56718220D02*
X116694009Y-56765839D01*
X116694009Y-56765839D02*
X116789247Y-56813458D01*
X117217819Y-55051553D02*
X116217819Y-55051553D01*
X116217819Y-55051553D02*
X116932104Y-54718220D01*
X116932104Y-54718220D02*
X116217819Y-54384887D01*
X116217819Y-54384887D02*
X117217819Y-54384887D01*
X116694009Y-53575363D02*
X116694009Y-53908696D01*
X117217819Y-53908696D02*
X116217819Y-53908696D01*
X116217819Y-53908696D02*
X116217819Y-53432506D01*
X117217819Y-53051553D02*
X116217819Y-53051553D01*
X116217819Y-53051553D02*
X116217819Y-52813458D01*
X116217819Y-52813458D02*
X116265438Y-52670601D01*
X116265438Y-52670601D02*
X116360676Y-52575363D01*
X116360676Y-52575363D02*
X116455914Y-52527744D01*
X116455914Y-52527744D02*
X116646390Y-52480125D01*
X116646390Y-52480125D02*
X116789247Y-52480125D01*
X116789247Y-52480125D02*
X116979723Y-52527744D01*
X116979723Y-52527744D02*
X117074961Y-52575363D01*
X117074961Y-52575363D02*
X117170200Y-52670601D01*
X117170200Y-52670601D02*
X117217819Y-52813458D01*
X117217819Y-52813458D02*
X117217819Y-53051553D01*
X117122580Y-50718220D02*
X117170200Y-50765839D01*
X117170200Y-50765839D02*
X117217819Y-50908696D01*
X117217819Y-50908696D02*
X117217819Y-51003934D01*
X117217819Y-51003934D02*
X117170200Y-51146791D01*
X117170200Y-51146791D02*
X117074961Y-51242029D01*
X117074961Y-51242029D02*
X116979723Y-51289648D01*
X116979723Y-51289648D02*
X116789247Y-51337267D01*
X116789247Y-51337267D02*
X116646390Y-51337267D01*
X116646390Y-51337267D02*
X116455914Y-51289648D01*
X116455914Y-51289648D02*
X116360676Y-51242029D01*
X116360676Y-51242029D02*
X116265438Y-51146791D01*
X116265438Y-51146791D02*
X116217819Y-51003934D01*
X116217819Y-51003934D02*
X116217819Y-50908696D01*
X116217819Y-50908696D02*
X116265438Y-50765839D01*
X116265438Y-50765839D02*
X116313057Y-50718220D01*
X117217819Y-50146791D02*
X117170200Y-50242029D01*
X117170200Y-50242029D02*
X117122580Y-50289648D01*
X117122580Y-50289648D02*
X117027342Y-50337267D01*
X117027342Y-50337267D02*
X116741628Y-50337267D01*
X116741628Y-50337267D02*
X116646390Y-50289648D01*
X116646390Y-50289648D02*
X116598771Y-50242029D01*
X116598771Y-50242029D02*
X116551152Y-50146791D01*
X116551152Y-50146791D02*
X116551152Y-50003934D01*
X116551152Y-50003934D02*
X116598771Y-49908696D01*
X116598771Y-49908696D02*
X116646390Y-49861077D01*
X116646390Y-49861077D02*
X116741628Y-49813458D01*
X116741628Y-49813458D02*
X117027342Y-49813458D01*
X117027342Y-49813458D02*
X117122580Y-49861077D01*
X117122580Y-49861077D02*
X117170200Y-49908696D01*
X117170200Y-49908696D02*
X117217819Y-50003934D01*
X117217819Y-50003934D02*
X117217819Y-50146791D01*
X116551152Y-49384886D02*
X117217819Y-49384886D01*
X116646390Y-49384886D02*
X116598771Y-49337267D01*
X116598771Y-49337267D02*
X116551152Y-49242029D01*
X116551152Y-49242029D02*
X116551152Y-49099172D01*
X116551152Y-49099172D02*
X116598771Y-49003934D01*
X116598771Y-49003934D02*
X116694009Y-48956315D01*
X116694009Y-48956315D02*
X117217819Y-48956315D01*
X116551152Y-48480124D02*
X117217819Y-48480124D01*
X116646390Y-48480124D02*
X116598771Y-48432505D01*
X116598771Y-48432505D02*
X116551152Y-48337267D01*
X116551152Y-48337267D02*
X116551152Y-48194410D01*
X116551152Y-48194410D02*
X116598771Y-48099172D01*
X116598771Y-48099172D02*
X116694009Y-48051553D01*
X116694009Y-48051553D02*
X117217819Y-48051553D01*
X117170200Y-47194410D02*
X117217819Y-47289648D01*
X117217819Y-47289648D02*
X117217819Y-47480124D01*
X117217819Y-47480124D02*
X117170200Y-47575362D01*
X117170200Y-47575362D02*
X117074961Y-47622981D01*
X117074961Y-47622981D02*
X116694009Y-47622981D01*
X116694009Y-47622981D02*
X116598771Y-47575362D01*
X116598771Y-47575362D02*
X116551152Y-47480124D01*
X116551152Y-47480124D02*
X116551152Y-47289648D01*
X116551152Y-47289648D02*
X116598771Y-47194410D01*
X116598771Y-47194410D02*
X116694009Y-47146791D01*
X116694009Y-47146791D02*
X116789247Y-47146791D01*
X116789247Y-47146791D02*
X116884485Y-47622981D01*
X117170200Y-46289648D02*
X117217819Y-46384886D01*
X117217819Y-46384886D02*
X117217819Y-46575362D01*
X117217819Y-46575362D02*
X117170200Y-46670600D01*
X117170200Y-46670600D02*
X117122580Y-46718219D01*
X117122580Y-46718219D02*
X117027342Y-46765838D01*
X117027342Y-46765838D02*
X116741628Y-46765838D01*
X116741628Y-46765838D02*
X116646390Y-46718219D01*
X116646390Y-46718219D02*
X116598771Y-46670600D01*
X116598771Y-46670600D02*
X116551152Y-46575362D01*
X116551152Y-46575362D02*
X116551152Y-46384886D01*
X116551152Y-46384886D02*
X116598771Y-46289648D01*
X116551152Y-46003933D02*
X116551152Y-45622981D01*
X116217819Y-45861076D02*
X117074961Y-45861076D01*
X117074961Y-45861076D02*
X117170200Y-45813457D01*
X117170200Y-45813457D02*
X117217819Y-45718219D01*
X117217819Y-45718219D02*
X117217819Y-45622981D01*
X117217819Y-45146790D02*
X117170200Y-45242028D01*
X117170200Y-45242028D02*
X117122580Y-45289647D01*
X117122580Y-45289647D02*
X117027342Y-45337266D01*
X117027342Y-45337266D02*
X116741628Y-45337266D01*
X116741628Y-45337266D02*
X116646390Y-45289647D01*
X116646390Y-45289647D02*
X116598771Y-45242028D01*
X116598771Y-45242028D02*
X116551152Y-45146790D01*
X116551152Y-45146790D02*
X116551152Y-45003933D01*
X116551152Y-45003933D02*
X116598771Y-44908695D01*
X116598771Y-44908695D02*
X116646390Y-44861076D01*
X116646390Y-44861076D02*
X116741628Y-44813457D01*
X116741628Y-44813457D02*
X117027342Y-44813457D01*
X117027342Y-44813457D02*
X117122580Y-44861076D01*
X117122580Y-44861076D02*
X117170200Y-44908695D01*
X117170200Y-44908695D02*
X117217819Y-45003933D01*
X117217819Y-45003933D02*
X117217819Y-45146790D01*
X117217819Y-44384885D02*
X116551152Y-44384885D01*
X116741628Y-44384885D02*
X116646390Y-44337266D01*
X116646390Y-44337266D02*
X116598771Y-44289647D01*
X116598771Y-44289647D02*
X116551152Y-44194409D01*
X116551152Y-44194409D02*
X116551152Y-44099171D01*
X116694009Y-42670599D02*
X116741628Y-42527742D01*
X116741628Y-42527742D02*
X116789247Y-42480123D01*
X116789247Y-42480123D02*
X116884485Y-42432504D01*
X116884485Y-42432504D02*
X117027342Y-42432504D01*
X117027342Y-42432504D02*
X117122580Y-42480123D01*
X117122580Y-42480123D02*
X117170200Y-42527742D01*
X117170200Y-42527742D02*
X117217819Y-42622980D01*
X117217819Y-42622980D02*
X117217819Y-43003932D01*
X117217819Y-43003932D02*
X116217819Y-43003932D01*
X116217819Y-43003932D02*
X116217819Y-42670599D01*
X116217819Y-42670599D02*
X116265438Y-42575361D01*
X116265438Y-42575361D02*
X116313057Y-42527742D01*
X116313057Y-42527742D02*
X116408295Y-42480123D01*
X116408295Y-42480123D02*
X116503533Y-42480123D01*
X116503533Y-42480123D02*
X116598771Y-42527742D01*
X116598771Y-42527742D02*
X116646390Y-42575361D01*
X116646390Y-42575361D02*
X116694009Y-42670599D01*
X116694009Y-42670599D02*
X116694009Y-43003932D01*
X117217819Y-41861075D02*
X117170200Y-41956313D01*
X117170200Y-41956313D02*
X117122580Y-42003932D01*
X117122580Y-42003932D02*
X117027342Y-42051551D01*
X117027342Y-42051551D02*
X116741628Y-42051551D01*
X116741628Y-42051551D02*
X116646390Y-42003932D01*
X116646390Y-42003932D02*
X116598771Y-41956313D01*
X116598771Y-41956313D02*
X116551152Y-41861075D01*
X116551152Y-41861075D02*
X116551152Y-41718218D01*
X116551152Y-41718218D02*
X116598771Y-41622980D01*
X116598771Y-41622980D02*
X116646390Y-41575361D01*
X116646390Y-41575361D02*
X116741628Y-41527742D01*
X116741628Y-41527742D02*
X117027342Y-41527742D01*
X117027342Y-41527742D02*
X117122580Y-41575361D01*
X117122580Y-41575361D02*
X117170200Y-41622980D01*
X117170200Y-41622980D02*
X117217819Y-41718218D01*
X117217819Y-41718218D02*
X117217819Y-41861075D01*
X117217819Y-40670599D02*
X116694009Y-40670599D01*
X116694009Y-40670599D02*
X116598771Y-40718218D01*
X116598771Y-40718218D02*
X116551152Y-40813456D01*
X116551152Y-40813456D02*
X116551152Y-41003932D01*
X116551152Y-41003932D02*
X116598771Y-41099170D01*
X117170200Y-40670599D02*
X117217819Y-40765837D01*
X117217819Y-40765837D02*
X117217819Y-41003932D01*
X117217819Y-41003932D02*
X117170200Y-41099170D01*
X117170200Y-41099170D02*
X117074961Y-41146789D01*
X117074961Y-41146789D02*
X116979723Y-41146789D01*
X116979723Y-41146789D02*
X116884485Y-41099170D01*
X116884485Y-41099170D02*
X116836866Y-41003932D01*
X116836866Y-41003932D02*
X116836866Y-40765837D01*
X116836866Y-40765837D02*
X116789247Y-40670599D01*
X117217819Y-40194408D02*
X116551152Y-40194408D01*
X116741628Y-40194408D02*
X116646390Y-40146789D01*
X116646390Y-40146789D02*
X116598771Y-40099170D01*
X116598771Y-40099170D02*
X116551152Y-40003932D01*
X116551152Y-40003932D02*
X116551152Y-39908694D01*
X117217819Y-39146789D02*
X116217819Y-39146789D01*
X117170200Y-39146789D02*
X117217819Y-39242027D01*
X117217819Y-39242027D02*
X117217819Y-39432503D01*
X117217819Y-39432503D02*
X117170200Y-39527741D01*
X117170200Y-39527741D02*
X117122580Y-39575360D01*
X117122580Y-39575360D02*
X117027342Y-39622979D01*
X117027342Y-39622979D02*
X116741628Y-39622979D01*
X116741628Y-39622979D02*
X116646390Y-39575360D01*
X116646390Y-39575360D02*
X116598771Y-39527741D01*
X116598771Y-39527741D02*
X116551152Y-39432503D01*
X116551152Y-39432503D02*
X116551152Y-39242027D01*
X116551152Y-39242027D02*
X116598771Y-39146789D01*
X116551152Y-38003931D02*
X117217819Y-37765836D01*
X117217819Y-37765836D02*
X116551152Y-37527741D01*
X116313057Y-37194407D02*
X116265438Y-37146788D01*
X116265438Y-37146788D02*
X116217819Y-37051550D01*
X116217819Y-37051550D02*
X116217819Y-36813455D01*
X116217819Y-36813455D02*
X116265438Y-36718217D01*
X116265438Y-36718217D02*
X116313057Y-36670598D01*
X116313057Y-36670598D02*
X116408295Y-36622979D01*
X116408295Y-36622979D02*
X116503533Y-36622979D01*
X116503533Y-36622979D02*
X116646390Y-36670598D01*
X116646390Y-36670598D02*
X117217819Y-37242026D01*
X117217819Y-37242026D02*
X117217819Y-36622979D01*
X117122580Y-36194407D02*
X117170200Y-36146788D01*
X117170200Y-36146788D02*
X117217819Y-36194407D01*
X117217819Y-36194407D02*
X117170200Y-36242026D01*
X117170200Y-36242026D02*
X117122580Y-36194407D01*
X117122580Y-36194407D02*
X117217819Y-36194407D01*
X116217819Y-35813455D02*
X116217819Y-35146789D01*
X116217819Y-35146789D02*
X117217819Y-35575360D01*
X142338588Y-83181819D02*
X141767160Y-83181819D01*
X142052874Y-83181819D02*
X142052874Y-82181819D01*
X142052874Y-82181819D02*
X141957636Y-82324676D01*
X141957636Y-82324676D02*
X141862398Y-82419914D01*
X141862398Y-82419914D02*
X141767160Y-82467533D01*
X143195731Y-82181819D02*
X143005255Y-82181819D01*
X143005255Y-82181819D02*
X142910017Y-82229438D01*
X142910017Y-82229438D02*
X142862398Y-82277057D01*
X142862398Y-82277057D02*
X142767160Y-82419914D01*
X142767160Y-82419914D02*
X142719541Y-82610390D01*
X142719541Y-82610390D02*
X142719541Y-82991342D01*
X142719541Y-82991342D02*
X142767160Y-83086580D01*
X142767160Y-83086580D02*
X142814779Y-83134200D01*
X142814779Y-83134200D02*
X142910017Y-83181819D01*
X142910017Y-83181819D02*
X143100493Y-83181819D01*
X143100493Y-83181819D02*
X143195731Y-83134200D01*
X143195731Y-83134200D02*
X143243350Y-83086580D01*
X143243350Y-83086580D02*
X143290969Y-82991342D01*
X143290969Y-82991342D02*
X143290969Y-82753247D01*
X143290969Y-82753247D02*
X143243350Y-82658009D01*
X143243350Y-82658009D02*
X143195731Y-82610390D01*
X143195731Y-82610390D02*
X143100493Y-82562771D01*
X143100493Y-82562771D02*
X142910017Y-82562771D01*
X142910017Y-82562771D02*
X142814779Y-82610390D01*
X142814779Y-82610390D02*
X142767160Y-82658009D01*
X142767160Y-82658009D02*
X142719541Y-82753247D01*
X131702398Y-61464819D02*
X131892874Y-61464819D01*
X131892874Y-61464819D02*
X131988112Y-61417200D01*
X131988112Y-61417200D02*
X132035731Y-61369580D01*
X132035731Y-61369580D02*
X132130969Y-61226723D01*
X132130969Y-61226723D02*
X132178588Y-61036247D01*
X132178588Y-61036247D02*
X132178588Y-60655295D01*
X132178588Y-60655295D02*
X132130969Y-60560057D01*
X132130969Y-60560057D02*
X132083350Y-60512438D01*
X132083350Y-60512438D02*
X131988112Y-60464819D01*
X131988112Y-60464819D02*
X131797636Y-60464819D01*
X131797636Y-60464819D02*
X131702398Y-60512438D01*
X131702398Y-60512438D02*
X131654779Y-60560057D01*
X131654779Y-60560057D02*
X131607160Y-60655295D01*
X131607160Y-60655295D02*
X131607160Y-60893390D01*
X131607160Y-60893390D02*
X131654779Y-60988628D01*
X131654779Y-60988628D02*
X131702398Y-61036247D01*
X131702398Y-61036247D02*
X131797636Y-61083866D01*
X131797636Y-61083866D02*
X131988112Y-61083866D01*
X131988112Y-61083866D02*
X132083350Y-61036247D01*
X132083350Y-61036247D02*
X132130969Y-60988628D01*
X132130969Y-60988628D02*
X132178588Y-60893390D01*
X142751398Y-67814819D02*
X142941874Y-67814819D01*
X142941874Y-67814819D02*
X143037112Y-67767200D01*
X143037112Y-67767200D02*
X143084731Y-67719580D01*
X143084731Y-67719580D02*
X143179969Y-67576723D01*
X143179969Y-67576723D02*
X143227588Y-67386247D01*
X143227588Y-67386247D02*
X143227588Y-67005295D01*
X143227588Y-67005295D02*
X143179969Y-66910057D01*
X143179969Y-66910057D02*
X143132350Y-66862438D01*
X143132350Y-66862438D02*
X143037112Y-66814819D01*
X143037112Y-66814819D02*
X142846636Y-66814819D01*
X142846636Y-66814819D02*
X142751398Y-66862438D01*
X142751398Y-66862438D02*
X142703779Y-66910057D01*
X142703779Y-66910057D02*
X142656160Y-67005295D01*
X142656160Y-67005295D02*
X142656160Y-67243390D01*
X142656160Y-67243390D02*
X142703779Y-67338628D01*
X142703779Y-67338628D02*
X142751398Y-67386247D01*
X142751398Y-67386247D02*
X142846636Y-67433866D01*
X142846636Y-67433866D02*
X143037112Y-67433866D01*
X143037112Y-67433866D02*
X143132350Y-67386247D01*
X143132350Y-67386247D02*
X143179969Y-67338628D01*
X143179969Y-67338628D02*
X143227588Y-67243390D01*
X137639636Y-67116390D02*
X137544398Y-67068771D01*
X137544398Y-67068771D02*
X137496779Y-67021152D01*
X137496779Y-67021152D02*
X137449160Y-66925914D01*
X137449160Y-66925914D02*
X137449160Y-66878295D01*
X137449160Y-66878295D02*
X137496779Y-66783057D01*
X137496779Y-66783057D02*
X137544398Y-66735438D01*
X137544398Y-66735438D02*
X137639636Y-66687819D01*
X137639636Y-66687819D02*
X137830112Y-66687819D01*
X137830112Y-66687819D02*
X137925350Y-66735438D01*
X137925350Y-66735438D02*
X137972969Y-66783057D01*
X137972969Y-66783057D02*
X138020588Y-66878295D01*
X138020588Y-66878295D02*
X138020588Y-66925914D01*
X138020588Y-66925914D02*
X137972969Y-67021152D01*
X137972969Y-67021152D02*
X137925350Y-67068771D01*
X137925350Y-67068771D02*
X137830112Y-67116390D01*
X137830112Y-67116390D02*
X137639636Y-67116390D01*
X137639636Y-67116390D02*
X137544398Y-67164009D01*
X137544398Y-67164009D02*
X137496779Y-67211628D01*
X137496779Y-67211628D02*
X137449160Y-67306866D01*
X137449160Y-67306866D02*
X137449160Y-67497342D01*
X137449160Y-67497342D02*
X137496779Y-67592580D01*
X137496779Y-67592580D02*
X137544398Y-67640200D01*
X137544398Y-67640200D02*
X137639636Y-67687819D01*
X137639636Y-67687819D02*
X137830112Y-67687819D01*
X137830112Y-67687819D02*
X137925350Y-67640200D01*
X137925350Y-67640200D02*
X137972969Y-67592580D01*
X137972969Y-67592580D02*
X138020588Y-67497342D01*
X138020588Y-67497342D02*
X138020588Y-67306866D01*
X138020588Y-67306866D02*
X137972969Y-67211628D01*
X137972969Y-67211628D02*
X137925350Y-67164009D01*
X137925350Y-67164009D02*
X137830112Y-67116390D01*
X125692819Y-72596333D02*
X126407104Y-72596333D01*
X126407104Y-72596333D02*
X126549961Y-72643952D01*
X126549961Y-72643952D02*
X126645200Y-72739190D01*
X126645200Y-72739190D02*
X126692819Y-72882047D01*
X126692819Y-72882047D02*
X126692819Y-72977285D01*
X126026152Y-71691571D02*
X126692819Y-71691571D01*
X125645200Y-71929666D02*
X126359485Y-72167761D01*
X126359485Y-72167761D02*
X126359485Y-71548714D01*
X132717819Y-72596333D02*
X133432104Y-72596333D01*
X133432104Y-72596333D02*
X133574961Y-72643952D01*
X133574961Y-72643952D02*
X133670200Y-72739190D01*
X133670200Y-72739190D02*
X133717819Y-72882047D01*
X133717819Y-72882047D02*
X133717819Y-72977285D01*
X132717819Y-72215380D02*
X132717819Y-71596333D01*
X132717819Y-71596333D02*
X133098771Y-71929666D01*
X133098771Y-71929666D02*
X133098771Y-71786809D01*
X133098771Y-71786809D02*
X133146390Y-71691571D01*
X133146390Y-71691571D02*
X133194009Y-71643952D01*
X133194009Y-71643952D02*
X133289247Y-71596333D01*
X133289247Y-71596333D02*
X133527342Y-71596333D01*
X133527342Y-71596333D02*
X133622580Y-71643952D01*
X133622580Y-71643952D02*
X133670200Y-71691571D01*
X133670200Y-71691571D02*
X133717819Y-71786809D01*
X133717819Y-71786809D02*
X133717819Y-72072523D01*
X133717819Y-72072523D02*
X133670200Y-72167761D01*
X133670200Y-72167761D02*
X133622580Y-72215380D01*
X134961333Y-57350819D02*
X134628000Y-56874628D01*
X134389905Y-57350819D02*
X134389905Y-56350819D01*
X134389905Y-56350819D02*
X134770857Y-56350819D01*
X134770857Y-56350819D02*
X134866095Y-56398438D01*
X134866095Y-56398438D02*
X134913714Y-56446057D01*
X134913714Y-56446057D02*
X134961333Y-56541295D01*
X134961333Y-56541295D02*
X134961333Y-56684152D01*
X134961333Y-56684152D02*
X134913714Y-56779390D01*
X134913714Y-56779390D02*
X134866095Y-56827009D01*
X134866095Y-56827009D02*
X134770857Y-56874628D01*
X134770857Y-56874628D02*
X134389905Y-56874628D01*
X135342286Y-56446057D02*
X135389905Y-56398438D01*
X135389905Y-56398438D02*
X135485143Y-56350819D01*
X135485143Y-56350819D02*
X135723238Y-56350819D01*
X135723238Y-56350819D02*
X135818476Y-56398438D01*
X135818476Y-56398438D02*
X135866095Y-56446057D01*
X135866095Y-56446057D02*
X135913714Y-56541295D01*
X135913714Y-56541295D02*
X135913714Y-56636533D01*
X135913714Y-56636533D02*
X135866095Y-56779390D01*
X135866095Y-56779390D02*
X135294667Y-57350819D01*
X135294667Y-57350819D02*
X135913714Y-57350819D01*
X137223667Y-32411200D02*
X137366524Y-32458819D01*
X137366524Y-32458819D02*
X137604619Y-32458819D01*
X137604619Y-32458819D02*
X137699857Y-32411200D01*
X137699857Y-32411200D02*
X137747476Y-32363580D01*
X137747476Y-32363580D02*
X137795095Y-32268342D01*
X137795095Y-32268342D02*
X137795095Y-32173104D01*
X137795095Y-32173104D02*
X137747476Y-32077866D01*
X137747476Y-32077866D02*
X137699857Y-32030247D01*
X137699857Y-32030247D02*
X137604619Y-31982628D01*
X137604619Y-31982628D02*
X137414143Y-31935009D01*
X137414143Y-31935009D02*
X137318905Y-31887390D01*
X137318905Y-31887390D02*
X137271286Y-31839771D01*
X137271286Y-31839771D02*
X137223667Y-31744533D01*
X137223667Y-31744533D02*
X137223667Y-31649295D01*
X137223667Y-31649295D02*
X137271286Y-31554057D01*
X137271286Y-31554057D02*
X137318905Y-31506438D01*
X137318905Y-31506438D02*
X137414143Y-31458819D01*
X137414143Y-31458819D02*
X137652238Y-31458819D01*
X137652238Y-31458819D02*
X137795095Y-31506438D01*
X138128429Y-31458819D02*
X138366524Y-32458819D01*
X138366524Y-32458819D02*
X138557000Y-31744533D01*
X138557000Y-31744533D02*
X138747476Y-32458819D01*
X138747476Y-32458819D02*
X138985572Y-31458819D01*
X139890333Y-32458819D02*
X139318905Y-32458819D01*
X139604619Y-32458819D02*
X139604619Y-31458819D01*
X139604619Y-31458819D02*
X139509381Y-31601676D01*
X139509381Y-31601676D02*
X139414143Y-31696914D01*
X139414143Y-31696914D02*
X139318905Y-31744533D01*
X141948819Y-32511999D02*
X142186914Y-32511999D01*
X142091676Y-32750094D02*
X142186914Y-32511999D01*
X142186914Y-32511999D02*
X142091676Y-32273904D01*
X142377390Y-32654856D02*
X142186914Y-32511999D01*
X142186914Y-32511999D02*
X142377390Y-32369142D01*
X143039180Y-32512000D02*
X142801085Y-32512000D01*
X142896323Y-32273905D02*
X142801085Y-32512000D01*
X142801085Y-32512000D02*
X142896323Y-32750095D01*
X142610609Y-32369143D02*
X142801085Y-32512000D01*
X142801085Y-32512000D02*
X142610609Y-32654857D01*
X135429666Y-66637819D02*
X135429666Y-67352104D01*
X135429666Y-67352104D02*
X135382047Y-67494961D01*
X135382047Y-67494961D02*
X135286809Y-67590200D01*
X135286809Y-67590200D02*
X135143952Y-67637819D01*
X135143952Y-67637819D02*
X135048714Y-67637819D01*
X136429666Y-67637819D02*
X135858238Y-67637819D01*
X136143952Y-67637819D02*
X136143952Y-66637819D01*
X136143952Y-66637819D02*
X136048714Y-66780676D01*
X136048714Y-66780676D02*
X135953476Y-66875914D01*
X135953476Y-66875914D02*
X135858238Y-66923533D01*
X117829095Y-69558819D02*
X117829095Y-70368342D01*
X117829095Y-70368342D02*
X117876714Y-70463580D01*
X117876714Y-70463580D02*
X117924333Y-70511200D01*
X117924333Y-70511200D02*
X118019571Y-70558819D01*
X118019571Y-70558819D02*
X118210047Y-70558819D01*
X118210047Y-70558819D02*
X118305285Y-70511200D01*
X118305285Y-70511200D02*
X118352904Y-70463580D01*
X118352904Y-70463580D02*
X118400523Y-70368342D01*
X118400523Y-70368342D02*
X118400523Y-69558819D01*
X119400523Y-70558819D02*
X118829095Y-70558819D01*
X119114809Y-70558819D02*
X119114809Y-69558819D01*
X119114809Y-69558819D02*
X119019571Y-69701676D01*
X119019571Y-69701676D02*
X118924333Y-69796914D01*
X118924333Y-69796914D02*
X118829095Y-69844533D01*
X137093095Y-28842819D02*
X137093095Y-27842819D01*
X137093095Y-28319009D02*
X137664523Y-28319009D01*
X137664523Y-28842819D02*
X137664523Y-27842819D01*
X138664523Y-28842819D02*
X138093095Y-28842819D01*
X138378809Y-28842819D02*
X138378809Y-27842819D01*
X138378809Y-27842819D02*
X138283571Y-27985676D01*
X138283571Y-27985676D02*
X138188333Y-28080914D01*
X138188333Y-28080914D02*
X138093095Y-28128533D01*
X134961333Y-44904819D02*
X134628000Y-44428628D01*
X134389905Y-44904819D02*
X134389905Y-43904819D01*
X134389905Y-43904819D02*
X134770857Y-43904819D01*
X134770857Y-43904819D02*
X134866095Y-43952438D01*
X134866095Y-43952438D02*
X134913714Y-44000057D01*
X134913714Y-44000057D02*
X134961333Y-44095295D01*
X134961333Y-44095295D02*
X134961333Y-44238152D01*
X134961333Y-44238152D02*
X134913714Y-44333390D01*
X134913714Y-44333390D02*
X134866095Y-44381009D01*
X134866095Y-44381009D02*
X134770857Y-44428628D01*
X134770857Y-44428628D02*
X134389905Y-44428628D01*
X135913714Y-44904819D02*
X135342286Y-44904819D01*
X135628000Y-44904819D02*
X135628000Y-43904819D01*
X135628000Y-43904819D02*
X135532762Y-44047676D01*
X135532762Y-44047676D02*
X135437524Y-44142914D01*
X135437524Y-44142914D02*
X135342286Y-44190533D01*
X143414761Y-52620057D02*
X143319523Y-52572438D01*
X143319523Y-52572438D02*
X143224285Y-52477200D01*
X143224285Y-52477200D02*
X143081428Y-52334342D01*
X143081428Y-52334342D02*
X142986190Y-52286723D01*
X142986190Y-52286723D02*
X142890952Y-52286723D01*
X142938571Y-52524819D02*
X142843333Y-52477200D01*
X142843333Y-52477200D02*
X142748095Y-52381961D01*
X142748095Y-52381961D02*
X142700476Y-52191485D01*
X142700476Y-52191485D02*
X142700476Y-51858152D01*
X142700476Y-51858152D02*
X142748095Y-51667676D01*
X142748095Y-51667676D02*
X142843333Y-51572438D01*
X142843333Y-51572438D02*
X142938571Y-51524819D01*
X142938571Y-51524819D02*
X143129047Y-51524819D01*
X143129047Y-51524819D02*
X143224285Y-51572438D01*
X143224285Y-51572438D02*
X143319523Y-51667676D01*
X143319523Y-51667676D02*
X143367142Y-51858152D01*
X143367142Y-51858152D02*
X143367142Y-52191485D01*
X143367142Y-52191485D02*
X143319523Y-52381961D01*
X143319523Y-52381961D02*
X143224285Y-52477200D01*
X143224285Y-52477200D02*
X143129047Y-52524819D01*
X143129047Y-52524819D02*
X142938571Y-52524819D01*
X143748095Y-51620057D02*
X143795714Y-51572438D01*
X143795714Y-51572438D02*
X143890952Y-51524819D01*
X143890952Y-51524819D02*
X144129047Y-51524819D01*
X144129047Y-51524819D02*
X144224285Y-51572438D01*
X144224285Y-51572438D02*
X144271904Y-51620057D01*
X144271904Y-51620057D02*
X144319523Y-51715295D01*
X144319523Y-51715295D02*
X144319523Y-51810533D01*
X144319523Y-51810533D02*
X144271904Y-51953390D01*
X144271904Y-51953390D02*
X143700476Y-52524819D01*
X143700476Y-52524819D02*
X144319523Y-52524819D01*
X143414761Y-40428057D02*
X143319523Y-40380438D01*
X143319523Y-40380438D02*
X143224285Y-40285200D01*
X143224285Y-40285200D02*
X143081428Y-40142342D01*
X143081428Y-40142342D02*
X142986190Y-40094723D01*
X142986190Y-40094723D02*
X142890952Y-40094723D01*
X142938571Y-40332819D02*
X142843333Y-40285200D01*
X142843333Y-40285200D02*
X142748095Y-40189961D01*
X142748095Y-40189961D02*
X142700476Y-39999485D01*
X142700476Y-39999485D02*
X142700476Y-39666152D01*
X142700476Y-39666152D02*
X142748095Y-39475676D01*
X142748095Y-39475676D02*
X142843333Y-39380438D01*
X142843333Y-39380438D02*
X142938571Y-39332819D01*
X142938571Y-39332819D02*
X143129047Y-39332819D01*
X143129047Y-39332819D02*
X143224285Y-39380438D01*
X143224285Y-39380438D02*
X143319523Y-39475676D01*
X143319523Y-39475676D02*
X143367142Y-39666152D01*
X143367142Y-39666152D02*
X143367142Y-39999485D01*
X143367142Y-39999485D02*
X143319523Y-40189961D01*
X143319523Y-40189961D02*
X143224285Y-40285200D01*
X143224285Y-40285200D02*
X143129047Y-40332819D01*
X143129047Y-40332819D02*
X142938571Y-40332819D01*
X144319523Y-40332819D02*
X143748095Y-40332819D01*
X144033809Y-40332819D02*
X144033809Y-39332819D01*
X144033809Y-39332819D02*
X143938571Y-39475676D01*
X143938571Y-39475676D02*
X143843333Y-39570914D01*
X143843333Y-39570914D02*
X143748095Y-39618533D01*
D11*
%TO.C,J4*%
X129002264Y-74562000D02*
X128578000Y-74862000D01*
X128578000Y-74862000D02*
X129002264Y-75162000D01*
X129002264Y-75162000D02*
X129002264Y-74562000D01*
X127618000Y-76222000D02*
X127318000Y-76222000D01*
X127318000Y-76222000D02*
X127318000Y-76672000D01*
X125118000Y-76222000D02*
X124818000Y-76222000D01*
X124818000Y-76222000D02*
X124818000Y-76672000D01*
X129298000Y-76672000D02*
X123138000Y-76672000D01*
X127618000Y-76672000D02*
X127618000Y-76222000D01*
X127318000Y-76672000D02*
X127618000Y-76672000D01*
X125118000Y-76672000D02*
X125118000Y-76222000D01*
X124818000Y-76672000D02*
X125118000Y-76672000D01*
X123138000Y-76672000D02*
X123138000Y-85352000D01*
X129298000Y-85352000D02*
X129298000Y-76672000D01*
X123138000Y-85352000D02*
X129298000Y-85352000D01*
%TO.C,J3*%
X136027264Y-74562000D02*
X135603000Y-74862000D01*
X135603000Y-74862000D02*
X136027264Y-75162000D01*
X136027264Y-75162000D02*
X136027264Y-74562000D01*
X134643000Y-76222000D02*
X134343000Y-76222000D01*
X134343000Y-76222000D02*
X134343000Y-76672000D01*
X132143000Y-76222000D02*
X131843000Y-76222000D01*
X131843000Y-76222000D02*
X131843000Y-76672000D01*
X136323000Y-76672000D02*
X130163000Y-76672000D01*
X134643000Y-76672000D02*
X134643000Y-76222000D01*
X134343000Y-76672000D02*
X134643000Y-76672000D01*
X132143000Y-76672000D02*
X132143000Y-76222000D01*
X131843000Y-76672000D02*
X132143000Y-76672000D01*
X130163000Y-76672000D02*
X130163000Y-85352000D01*
X136323000Y-85352000D02*
X136323000Y-76672000D01*
X130163000Y-85352000D02*
X136323000Y-85352000D01*
%TO.C,R2*%
X137060000Y-53499000D02*
X137060000Y-60039000D01*
X137060000Y-60039000D02*
X139800000Y-60039000D01*
X138430000Y-52729000D02*
X138430000Y-53499000D01*
X138430000Y-60809000D02*
X138430000Y-60039000D01*
X139800000Y-53499000D02*
X137060000Y-53499000D01*
X139800000Y-60039000D02*
X139800000Y-53499000D01*
D12*
%TO.C,SW1*%
X145924900Y-37426900D02*
X145924900Y-33185100D01*
X145924900Y-33185100D02*
X134063100Y-33185100D01*
X134063100Y-37426900D02*
X145924900Y-37426900D01*
X134063100Y-33185100D02*
X134063100Y-37426900D01*
%TO.C,J1*%
X136997000Y-65178701D02*
X136997000Y-83441301D01*
X136997000Y-83441301D02*
X143881123Y-83441301D01*
X144766874Y-83441301D02*
X145455200Y-83441301D01*
X145455200Y-65178701D02*
X136997000Y-65178701D01*
X145455200Y-83441301D02*
X145455200Y-65178701D01*
D13*
X139604999Y-84076301D02*
G75*
G02*
X138842999Y-84076301I-381000J0D01*
G01*
X138842999Y-84076301D02*
G75*
G02*
X139604999Y-84076301I381000J0D01*
G01*
D11*
%TO.C,U1*%
X114666000Y-70982000D02*
X122516000Y-70982000D01*
X114666000Y-82922000D02*
X114666000Y-70982000D01*
X120396000Y-83252000D02*
X122846000Y-83252000D01*
X122516000Y-70982000D02*
X122516000Y-82922000D01*
X122516000Y-82922000D02*
X114666000Y-82922000D01*
X122846000Y-83252000D02*
X122846000Y-80922000D01*
%TO.C,R1*%
X137060000Y-40926000D02*
X137060000Y-47466000D01*
X137060000Y-47466000D02*
X139800000Y-47466000D01*
X138430000Y-40156000D02*
X138430000Y-40926000D01*
X138430000Y-48236000D02*
X138430000Y-47466000D01*
X139800000Y-40926000D02*
X137060000Y-40926000D01*
X139800000Y-47466000D02*
X139800000Y-40926000D01*
%TO.C,Q2*%
X140869000Y-53046000D02*
X140869000Y-63286000D01*
X144000000Y-53046000D02*
X144000000Y-63286000D01*
X145510000Y-53046000D02*
X140869000Y-53046000D01*
X145510000Y-53046000D02*
X145510000Y-63286000D01*
X145510000Y-56316000D02*
X144000000Y-56316000D01*
X145510000Y-60017000D02*
X144000000Y-60017000D01*
X145510000Y-63286000D02*
X140869000Y-63286000D01*
%TO.C,Q1*%
X140869000Y-40854000D02*
X140869000Y-51094000D01*
X144000000Y-40854000D02*
X144000000Y-51094000D01*
X145510000Y-40854000D02*
X140869000Y-40854000D01*
X145510000Y-40854000D02*
X145510000Y-51094000D01*
X145510000Y-44124000D02*
X144000000Y-44124000D01*
X145510000Y-47825000D02*
X144000000Y-47825000D01*
X145510000Y-51094000D02*
X140869000Y-51094000D01*
%TD*%
M02*
