<?xml version="1.0" encoding="UTF-8" standalone="no"?>
<!-- Created with Inkscape (http://www.inkscape.org/) -->

<svg
   width="0.091862999in"
   height="0.24548143in"
   viewBox="0 0 2.3333201 6.2352283"
   version="1.1"
   id="svg1"
   xml:space="preserve"
   xmlns="http://www.w3.org/2000/svg"
   xmlns:svg="http://www.w3.org/2000/svg"><defs
     id="defs1" /><g
     id="layer14"
     transform="translate(-73.83514,-10.276882)"><path
       style="display:inline;fill:#fa4300;fill-opacity:1;stroke:none;stroke-width:0.0173145"
       d="m 74.755375,12.938788 v -1.255213 -0.325253 c 0,-0.07129 -0.0065,-0.141329 0.02891,-0.206172 0.101943,-0.186694 0.37662,-0.167777 0.451051,0.03203 0.03571,0.09597 0.0148,0.224006 0.0148,0.325252 v 0.66427 h 0.916226 V 11.088 c 0,-0.184789 0.02208,-0.384468 -0.09729,-0.540602 -0.12234,-0.159985 -0.301125,-0.179551 -0.484516,-0.216214 -0.389091,-0.07779 -0.821173,-0.0693 -1.209416,0.0082 -0.07785,0.01558 -0.159168,0.02381 -0.233637,0.05255 -0.118228,0.04519 -0.207575,0.13778 -0.259713,0.251666 -0.06599,0.144099 -0.04264,0.322092 -0.04264,0.476408 v 0.907066 2.867797 0.801704 c 0,0.151718 -0.01792,0.31534 0.0432,0.458098 0.08952,0.209159 0.289623,0.26357 0.492804,0.298934 0.384044,0.06683 0.782268,0.08129 1.168187,0.01775 0.159574,-0.0264 0.34496,-0.04411 0.467274,-0.160894 0.159497,-0.152238 0.155757,-0.345208 0.155757,-0.549562 V 15.096692 14.03843 c 0,-0.227252 0.01779,-0.462816 -0.05051,-0.68258 -0.083,-0.267075 -0.273737,-0.532506 -0.558777,-0.599037 -0.125089,-0.02943 -0.264877,-0.01991 -0.389398,0.0087 -0.152286,0.03506 -0.276937,0.09843 -0.412301,0.173534 m 0.215314,0.789281 c 0.132499,-0.01731 0.264119,0.07831 0.278655,0.213963 0.01628,0.152065 8.65e-4,0.314258 8.65e-4,0.467275 v 0.934549 c 0,0.144662 0.01883,0.31508 -0.142017,0.385377 -0.02433,0.01082 -0.05137,0.01905 -0.07788,0.02164 -0.131218,0.01299 -0.259609,-0.07952 -0.274071,-0.214526 -0.01615,-0.150593 -8.66e-4,-0.311142 -8.66e-4,-0.462687 V 14.13937 c 0,-0.144705 -0.02052,-0.313955 0.137434,-0.387931 0.0242,-0.01125 0.05138,-0.01948 0.07788,-0.02294 z"
       id="path69-8" /></g></svg>
